<?xml version="1.0" encoding="UTF-8" standalone="no"?>
<!-- Created with Inkscape (http://www.inkscape.org/) -->

<svg
   width="775.26819mm"
   height="157.94556mm"
   viewBox="0 0 775.26819 157.94556"
   version="1.1"
   id="svg5"
   inkscape:version="1.1.2 (b8e25be833, 2022-02-05)"
   sodipodi:docname="drawing.svg"
   xmlns:inkscape="http://www.inkscape.org/namespaces/inkscape"
   xmlns:sodipodi="http://sodipodi.sourceforge.net/DTD/sodipodi-0.dtd"
   xmlns="http://www.w3.org/2000/svg"
   xmlns:svg="http://www.w3.org/2000/svg">
  <sodipodi:namedview
     id="namedview7"
     pagecolor="#ffffff"
     bordercolor="#666666"
     borderopacity="1.0"
     inkscape:pageshadow="2"
     inkscape:pageopacity="0.0"
     inkscape:pagecheckerboard="0"
     inkscape:document-units="mm"
     showgrid="false"
     inkscape:zoom="0.32026164"
     inkscape:cx="1712.6622"
     inkscape:cy="744.7036"
     inkscape:window-width="1482"
     inkscape:window-height="983"
     inkscape:window-x="253"
     inkscape:window-y="17"
     inkscape:window-maximized="0"
     inkscape:current-layer="layer1" />
  <defs
     id="defs2">
    <clipPath
       id="clip0">
      <rect
         x="697"
         y="993"
         width="3040"
         height="670"
         id="rect9" />
    </clipPath>
  </defs>
  <g
     inkscape:label="Layer 1"
     inkscape:groupmode="layer"
     id="layer1"
     transform="translate(289.73561,-61.059211)">
    <g
       style="overflow:hidden"
       id="g83"
       transform="matrix(0.26458333,0,0,0.26458333,-304.72333,55.350674)">
      <g
         clip-path="url(#clip0)"
         transform="translate(-697,-993)"
         id="g54">
        <g
           aria-label="HamiltonianH(f, g, J)CircuitZ(C, L, l)Chip GeometryKQCMask GeometryKQCFabricationOASISValidationNetlist, Full FEMElement libraryComponents FEM"
           transform="translate(747,1100)"
           id="text40"
           style="font-size:83px;font-family:'Microsoft Sans Serif', 'Microsoft Sans Serif_MSFontService', sans-serif;fill:#62f8c1">
          <path
             d="M 53.293457,0 H 45.390625 V -27.963867 H 14.508789 V 0 H 6.6464844 v -59.413086 h 7.8623046 v 24.397461 h 30.881836 v -24.397461 h 7.902832 z"
             id="path85" />
          <path
             d="m 92.807617,-11.307129 v -9.523926 H 87.57959 q -16.616211,0 -16.616211,9.037598 0,3.2827148 2.431641,5.0659179 2.43164,1.7426758 6.565429,1.7426758 3.769043,0 7.294922,-1.7021484 3.525879,-1.7021485 5.552246,-4.6201173 z m 0,6.8896485 q -5.835937,5.4306641 -15.035644,5.4306641 -6.403321,0 -10.53711,-3.4448242 -4.133789,-3.4853516 -4.133789,-8.9565434 0,-15.076171 25.978028,-15.076171 h 3.728515 q 0,-4.620118 -0.486328,-6.687012 -0.486328,-2.107422 -2.715332,-3.485352 -2.229004,-1.377929 -7.092285,-1.377929 -10.212891,0 -10.53711,7.294921 h -7.61914 q 0.851074,-13.252441 18.561523,-13.252441 8.267578,0 12.887696,3.282715 4.620119,3.282715 4.620119,12.887695 V 0 h -7.619143 z"
             id="path87" />
          <path
             d="m 169.8501,0 h -7.65967 v -27.801758 q 0,-5.349609 -1.54004,-7.61914 -1.54004,-2.269532 -5.14697,-2.269532 -5.55225,0 -10.90186,6.889649 V 0 h -7.61914 v -27.801758 q 0,-5.349609 -1.54004,-7.61914 -1.54004,-2.269532 -5.1875,-2.269532 -5.55224,0 -10.86133,6.889649 V 0 h -7.65966 v -42.999512 h 7.65966 v 5.471192 q 5.43067,-6.443848 12.03663,-6.443848 9.44287,0 12.03662,7.78125 4.2959,-5.065918 7.29492,-6.40332 2.99902,-1.37793 5.87646,-1.37793 13.21192,0 13.21192,15.846191 z"
             id="path89" />
          <path
             d="m 188.5332,0 h -7.65966 v -42.999512 h 7.65966 z m 0,-51.145508 h -7.65966 v -8.267578 h 7.65966 z"
             id="path91" />
          <path
             d="m 207.45947,0 h -7.65967 v -59.413086 h 7.65967 z"
             id="path93" />
          <path
             d="m 235.42334,0.08105469 q -2.5127,0.48632812 -5.47119,0.48632812 -4.70117,0 -6.88965,-1.66162111 -2.18848,-1.7021484 -2.71533,-4.3364258 -0.52686,-2.6342773 -0.52686,-7.1733399 v -24.397461 h -5.30908 v -5.998047 h 5.30908 V -53.69873 h 7.61914 v 10.699218 h 6.97071 v 5.998047 h -6.97071 v 24.802735 q 0,4.41748 1.09424,5.6333003 1.13477,1.175293 3.08008,1.175293 1.98584,0 3.80957,-0.3242188 z"
             id="path95" />
          <path
             d="m 259.21289,-43.972168 q 9.19971,0 14.6709,5.876465 5.51172,5.876465 5.51172,16.616211 0,10.699219 -5.51172,16.6162108 -5.47119,5.8764648 -14.6709,5.8764648 -9.15918,0 -14.6709,-5.8764648 -5.47119,-5.9169918 -5.47119,-16.6162108 0,-10.739746 5.47119,-16.616211 5.51172,-5.876465 14.6709,-5.876465 z m 0,38.9873047 q 5.47119,0 8.87549,-4.133789 3.4043,-4.1743167 3.4043,-12.3608397 0,-8.227051 -3.4043,-12.36084 -3.4043,-4.174316 -8.87549,-4.174316 -5.47119,0 -8.87549,4.174316 -3.40429,4.133789 -3.40429,12.36084 0,8.186523 3.40429,12.3608397 3.4043,4.133789 8.87549,4.133789 z"
             id="path97" />
          <path
             d="m 295.60645,-37.52832 q 5.71435,-6.443848 12.84716,-6.443848 14.54932,0 14.54932,15.846191 V 0 h -7.65967 v -27.801758 q 0,-5.268554 -1.90478,-7.578613 -1.86426,-2.310059 -6.16016,-2.310059 -5.83594,0 -11.67187,6.889649 V 0 h -7.65967 v -42.999512 h 7.65967 z"
             id="path99" />
          <path
             d="m 341.76709,0 h -7.65967 v -42.999512 h 7.65967 z m 0,-51.145508 h -7.65967 v -8.267578 h 7.65967 z"
             id="path101" />
          <path
             d="m 380.26807,-11.307129 v -9.523926 h -5.22803 q -16.61621,0 -16.61621,9.037598 0,3.2827148 2.43164,5.0659179 2.43164,1.7426758 6.56543,1.7426758 3.76904,0 7.29492,-1.7021484 3.52588,-1.7021485 5.55225,-4.6201173 z m 0,6.8896485 q -5.83594,5.4306641 -15.03565,5.4306641 -6.40332,0 -10.53711,-3.4448242 -4.13379,-3.4853516 -4.13379,-8.9565434 0,-15.076171 25.97803,-15.076171 h 3.72852 q 0,-4.620118 -0.48633,-6.687012 -0.48633,-2.107422 -2.71533,-3.485352 -2.22901,-1.377929 -7.09229,-1.377929 -10.21289,0 -10.53711,7.294921 h -7.61914 q 0.85108,-13.252441 18.56152,-13.252441 8.26758,0 12.8877,3.282715 4.62012,3.282715 4.62012,12.887695 V 0 h -7.61914 z"
             id="path103" />
          <path
             d="m 406.854,-37.52832 q 5.71436,-6.443848 12.84717,-6.443848 14.54932,0 14.54932,15.846191 V 0 h -7.65967 v -27.801758 q 0,-5.268554 -1.90478,-7.578613 -1.86426,-2.310059 -6.16016,-2.310059 -5.83594,0 -11.67188,6.889649 V 0 h -7.65966 v -42.999512 h 7.65966 z"
             id="path105" />
          <path
             d="M 53.293457,99 H 45.390625 V 71.036133 H 14.508789 V 99 H 6.6464844 V 39.586914 H 14.508789 V 63.984375 H 45.390625 V 39.586914 h 7.902832 z"
             style="fill:#000000"
             id="path107" />
          <path
             d="M 84.580566,116.42676 H 79.352539 Q 64.924805,97.703125 64.924805,77.520508 q 0,-20.223145 14.427734,-38.946778 h 5.228027 q -12.117675,19.412598 -12.117675,38.946778 0,19.493652 12.117675,38.906252 z"
             style="fill:#000000"
             id="path109" />
          <path
             d="M 102.16943,61.998535 V 99 H 94.550293 V 61.998535 h -6.322266 v -5.998047 h 6.322266 v -3.80957 q 0,-13.617188 12.036617,-13.617188 3.68799,0 5.71436,0.486329 v 6.646484 q -2.26953,-0.405273 -4.62012,-0.405273 -2.79638,0 -4.17431,1.580566 -1.33741,1.540039 -1.33741,5.390137 v 3.728515 h 8.146 v 5.998047 z"
             style="fill:#000000"
             id="path111" />
          <path
             d="m 126.32373,99 q 0,5.30908 -2.10742,8.51074 -2.10742,3.20166 -6.20068,3.20166 v -3.89062 q 4.09326,0 4.09326,-7.82178 h -4.09326 v -8.308105 h 8.3081 z"
             style="fill:#000000"
             id="path113" />
          <path
             d="M 133.69971,99 Z"
             style="fill:#000000"
             id="path115" />
          <path
             d="m 196.2334,95.676758 q 0,20.750002 -18.72363,20.750002 -8.10547,0 -12.80665,-3.52588 -4.66064,-3.52588 -4.66064,-9.4834 h 7.90283 q 0,7.05176 9.4834,7.05176 5.34961,0 8.26758,-2.9585 2.91797,-2.91797 2.91797,-11.509763 v -2.14795 q -5.10645,6.160153 -12.27979,6.160153 -8.42968,0 -13.0498,-5.998043 -4.62012,-5.998047 -4.62012,-16.17041 0,-10.53711 5.14697,-16.656739 5.1875,-6.160156 13.00928,-6.160156 6.9707,0 11.79346,4.295898 v -3.323242 h 7.61914 z M 188.61426,86.63916 V 66.213379 q -4.94434,-5.228027 -11.30713,-5.228027 -4.90381,0 -7.86231,4.255371 -2.91796,4.214843 -2.91796,12.604004 0,7.943359 2.75585,12.077148 2.79639,4.093262 7.7002,4.093262 6.40332,0 11.63135,-7.375977 z"
             style="fill:#000000"
             id="path117" />
          <path
             d="m 217.59131,99 q 0,5.30908 -2.10742,8.51074 -2.10743,3.20166 -6.20069,3.20166 v -3.89062 q 4.09326,0 4.09326,-7.82178 h -4.09326 v -8.308105 h 8.30811 z"
             style="fill:#000000"
             id="path119" />
          <path
             d="M 224.96729,99 Z"
             style="fill:#000000"
             id="path121" />
          <path
             d="m 281.86768,79.992676 q 0,10.901855 -4.21485,15.481445 -4.21484,4.539059 -12.44189,4.539059 -7.37598,0 -11.67188,-4.498532 -4.2959,-4.498535 -4.2959,-11.874511 V 82.05957 h 7.90284 q 0,10.861328 8.06494,10.861328 4.25537,0 6.5249,-2.391113 2.26953,-2.391113 2.26953,-10.131836 V 39.586914 h 7.86231 z"
             style="fill:#000000"
             id="path123" />
          <path
             d="m 296.74121,38.57373 q 14.42774,18.723633 14.42774,38.946778 0,20.182617 -14.42774,38.906252 h -5.22803 q 12.11768,-19.4126 12.11768,-38.906252 0,-19.53418 -12.11768,-38.946778 z"
             style="fill:#000000"
             id="path125" />
          <path
             d="m 628.47229,1.0131836 q -12.604,0 -20.14209,-8.2675781 -7.49756,-8.3081055 -7.49756,-22.4521485 0,-14.144043 7.49756,-22.411621 7.53809,-8.308106 20.14209,-8.308106 9.68604,0 16.49463,5.228028 6.80859,5.228027 7.65967,13.779297 h -8.10547 q -0.48633,-5.633301 -4.90381,-8.956543 -4.37695,-3.323242 -11.06397,-3.323242 -9.03759,0 -14.30615,6.24121 -5.26855,6.200684 -5.26855,17.750977 0,11.509766 5.22803,17.750977 5.22802,6.2412105 14.18457,6.2412105 6.9707,0 11.2666,-3.4042968 4.2959,-3.4042967 4.86328,-9.7265627 h 8.10547 q -0.85108,9.4833986 -7.45703,14.6708986 -6.60596,5.1875 -16.69727,5.1875 z"
             id="path127" />
          <path
             d="m 670.17493,0 h -7.65967 v -42.999512 h 7.65967 z m 0,-51.145508 h -7.65967 v -8.267578 h 7.65967 z"
             id="path129" />
          <path
             d="m 703.77209,-36.028809 q -1.62109,-0.486328 -4.66064,-0.486328 -5.83594,0 -10.01025,6.119629 V 0 h -7.65967 v -42.999512 h 7.65967 v 5.998047 q 4.82275,-6.970703 11.18554,-6.970703 1.6211,0 3.48535,0.324219 z"
             id="path131" />
          <path
             d="m 726.50793,1.0131836 q -9.15918,0 -14.67089,-5.8764648 -5.4712,-5.9169918 -5.4712,-16.6162108 0,-10.739746 5.4712,-16.616211 5.51171,-5.876465 14.67089,-5.876465 7.05176,0 11.75293,3.566406 4.7417,3.566407 5.59278,10.293946 h -7.86231 q -0.16211,-3.850098 -2.91797,-5.876465 -2.71533,-2.026367 -6.56543,-2.026367 -5.47119,0 -8.87548,4.174316 -3.4043,4.133789 -3.4043,12.36084 0,8.186523 3.4043,12.3608397 3.40429,4.133789 8.87548,4.133789 3.8501,0 6.56543,-2.0263672 2.75586,-2.0263672 2.91797,-5.8359375 h 7.86231 q -0.85108,6.7275391 -5.59278,10.2939453 -4.70117,3.5664063 -11.75293,3.5664063 z"
             id="path133" />
          <path
             d="m 777.81555,-5.4711914 q -5.71435,6.484375 -12.84717,6.484375 -14.54931,0 -14.54931,-15.8867186 v -28.125977 h 7.65967 v 27.801758 q 0,5.2685548 1.86425,7.5786134 1.86426,2.3100586 6.16016,2.3100586 6.40332,0 11.7124,-6.889648 v -30.800782 h 7.61914 V 0 h -7.61914 z"
             id="path135" />
          <path
             d="m 804.40149,0 h -7.65967 v -42.999512 h 7.65967 z m 0,-51.145508 h -7.65967 v -8.267578 h 7.65967 z"
             id="path137" />
          <path
             d="m 832.36536,0.08105469 q -2.5127,0.48632812 -5.47119,0.48632812 -4.70118,0 -6.88965,-1.66162111 -2.18848,-1.7021484 -2.71534,-4.3364258 -0.52685,-2.6342773 -0.52685,-7.1733399 v -24.397461 h -5.30908 v -5.998047 h 5.30908 V -53.69873 h 7.61914 v 10.699218 h 6.9707 v 5.998047 h -6.9707 v 24.802735 q 0,4.41748 1.09424,5.6333003 1.13476,1.175293 3.08008,1.175293 1.98584,0 3.80957,-0.3242188 z"
             id="path139" />
          <path
             d="m 645.41272,99 h -46.97119 v -7.375977 l 36.92041,-44.985351 h -33.51611 v -7.051758 h 42.55371 v 7.375977 l -36.92041,44.985351 h 37.93359 z"
             style="fill:#000000"
             id="path141" />
          <path
             d="m 672.28235,116.42676 h -5.22803 q -14.42773,-18.723635 -14.42773,-38.906252 0,-20.223145 14.42773,-38.946778 h 5.22803 q -12.11768,19.412598 -12.11768,38.946778 0,19.493652 12.11768,38.906252 z"
             style="fill:#000000"
             id="path143" />
          <path
             d="m 706.81165,100.01318 q -12.60401,0 -20.14209,-8.267575 Q 679.172,83.4375 679.172,69.293457 q 0,-14.144043 7.49756,-22.411621 7.53808,-8.308106 20.14209,-8.308106 9.68603,0 16.49462,5.228028 6.8086,5.228027 7.65967,13.779297 h -8.10547 q -0.48632,-5.633301 -4.9038,-8.956543 -4.37696,-3.323242 -11.06397,-3.323242 -9.0376,0 -14.30615,6.24121 -5.26856,6.200684 -5.26856,17.750977 0,11.509766 5.22803,17.750977 5.22803,6.241211 14.18457,6.241211 6.9707,0 11.2666,-3.404297 4.2959,-3.404297 4.86328,-9.726563 h 8.10547 q -0.85107,9.483399 -7.45703,14.670899 -6.60596,5.187496 -16.69726,5.187496 z"
             style="fill:#000000"
             id="path145" />
          <path
             d="m 750.9054,99 q 0,5.30908 -2.10743,8.51074 -2.10742,3.20166 -6.20068,3.20166 v -3.89062 q 4.09326,0 4.09326,-7.82178 h -4.09326 v -8.308105 h 8.30811 z"
             style="fill:#000000"
             id="path147" />
          <path
             d="M 758.28137,99 Z"
             style="fill:#000000"
             id="path149" />
          <path
             d="m 823.73303,99 h -36.7583 V 39.586914 h 7.86231 v 52.361328 h 28.89599 z"
             style="fill:#000000"
             id="path151" />
          <path
             d="m 842.17297,99 q 0,5.30908 -2.10742,8.51074 -2.10742,3.20166 -6.20068,3.20166 v -3.89062 q 4.09326,0 4.09326,-7.82178 h -4.09326 v -8.308105 h 8.3081 z"
             style="fill:#000000"
             id="path153" />
          <path
             d="M 849.54895,99 Z"
             style="fill:#000000"
             id="path155" />
          <path
             d="m 884.88879,99 h -7.65966 V 39.586914 h 7.65966 z"
             style="fill:#000000"
             id="path157" />
          <path
             d="m 898.74915,38.57373 q 14.42773,18.723633 14.42773,38.946778 0,20.182617 -14.42773,38.906252 h -5.22803 q 12.11767,-19.4126 12.11767,-38.906252 0,-19.53418 -12.11767,-38.946778 z"
             style="fill:#000000"
             id="path159" />
          <path
             d="m 1126.3802,3.0131836 q -12.604,0 -20.142,-8.2675781 -7.4976,-8.3081055 -7.4976,-22.4521485 0,-14.144043 7.4976,-22.411621 7.538,-8.308106 20.142,-8.308106 9.6861,0 16.4947,5.228028 6.8086,5.228027 7.6596,13.779297 h -8.1054 q -0.4864,-5.633301 -4.9038,-8.956543 -4.377,-3.323242 -11.064,-3.323242 -9.0376,0 -14.3061,6.24121 -5.2686,6.200684 -5.2686,17.750977 0,11.509766 5.228,17.7509766 5.2281,6.2412109 14.1846,6.2412109 6.9707,0 11.2666,-3.4042968 4.2959,-3.4042967 4.8633,-9.7265627 h 8.1054 q -0.851,9.4833986 -7.457,14.6708986 -6.6059,5.1875 -16.6973,5.1875 z"
             id="path161" />
          <path
             d="m 1168.0829,-35.52832 q 5.7143,-6.443848 12.8472,-6.443848 14.5493,0 14.5493,15.846191 V 2 h -7.6597 v -27.801758 q 0,-5.268554 -1.9048,-7.578613 -1.8642,-2.310059 -6.1601,-2.310059 -5.836,0 -11.6719,6.889649 V 2 h -7.6597 v -59.413086 h 7.6597 z"
             id="path163" />
          <path
             d="m 1214.2435,2 h -7.6596 v -42.999512 h 7.6596 z m 0,-51.145508 h -7.6596 v -8.267578 h 7.6596 z"
             id="path165" />
          <path
             d="m 1233.1698,-35.852539 q 5.1064,-6.119629 12.2798,-6.119629 8.4297,0 13.0498,5.998047 4.6201,5.957519 4.6201,16.129883 0,10.5776364 -5.1875,16.7377927 -5.147,6.1196289 -13.0093,6.1196289 -6.9707,0 -11.7529,-4.3364258 V 18.535156 h -7.6597 v -59.534668 h 7.6597 z m 0,27.6396484 q 4.9038,5.2280273 11.2666,5.2280273 4.9443,0 7.8623,-4.2148437 2.918,-4.255371 2.918,-12.644531 0,-7.94336 -2.7559,-12.036621 -2.7558,-4.133789 -7.7002,-4.133789 -6.3628,0 -11.5908,7.375976 z"
             id="path167" />
          <path
             d="M 1266.0375,2 Z"
             id="path169" />
          <path
             d="m 1320.7089,3.0131836 q -12.8067,0 -20.7906,-8.3891602 -7.9433,-8.3891604 -7.9433,-22.3305664 0,-13.981934 7.8623,-22.330566 7.8623,-8.389161 20.6284,-8.389161 10.7397,0 17.832,5.1875 7.1328,5.146973 7.9839,13.819825 h -8.146 q -0.4863,-5.754883 -5.1875,-8.997071 -4.7012,-3.282714 -12.4013,-3.282714 -9.1998,0 -14.8331,6.281738 -5.5927,6.281738 -5.5927,17.710449 0,11.388184 5.6738,17.7104492 5.6738,6.2817383 14.833,6.2817383 12.8472,0 19.0884,-8.4702145 v -9.037598 h -15.6841 v -7.092285 h 23.3032 V 2 h -5.5522 l -2.0669,-6.2412109 q -6.0386,7.2543945 -19.0073,7.2543945 z"
             id="path171" />
          <path
             d="m 1376.5555,3.0131836 q -9.4834,0 -15.2382,-5.9169922 -5.7549,-5.9575195 -5.7549,-16.5756834 0,-10.53711 5.5522,-16.494629 5.5928,-5.998047 14.5899,-5.998047 9.1997,0 14.6709,5.876465 5.5117,5.876465 5.5117,16.616211 v 1.82373 h -32.3814 q 0.4864,7.457032 4.0933,11.0639651 3.6475,3.6069336 8.9565,3.6069336 4.0122,0 7.2139,-2.0263672 3.2422,-2.0668945 3.4043,-5.8359375 h 7.9028 q -0.8916,6.6464844 -6.0385,10.253418 -5.1065,3.6069336 -12.4825,3.6069336 z m 11.2666,-26.6669926 q -0.9321,-6.200683 -4.1743,-9.280761 -3.2422,-3.080078 -7.9433,-3.080078 -4.5796,0 -7.8623,3.080078 -3.2828,3.03955 -4.1744,9.280761 z"
             id="path173" />
          <path
             d="m 1421.8651,-41.972168 q 9.1997,0 14.6709,5.876465 5.5117,5.876465 5.5117,16.616211 0,10.6992186 -5.5117,16.6162107 -5.4712,5.8764649 -14.6709,5.8764649 -9.1592,0 -14.6709,-5.8764649 -5.4712,-5.9169921 -5.4712,-16.6162107 0,-10.739746 5.4712,-16.616211 5.5117,-5.876465 14.6709,-5.876465 z m 0,38.9873047 q 5.4712,0 8.8755,-4.133789 3.4043,-4.1743167 3.4043,-12.3608397 0,-8.227051 -3.4043,-12.36084 -3.4043,-4.174316 -8.8755,-4.174316 -5.4712,0 -8.8755,4.174316 -3.4043,4.133789 -3.4043,12.36084 0,8.186523 3.4043,12.3608397 3.4043,4.133789 8.8755,4.133789 z"
             id="path175" />
          <path
             d="m 1508.7152,2 h -7.6597 v -27.801758 q 0,-5.349609 -1.54,-7.61914 -1.54,-2.269532 -5.147,-2.269532 -5.5522,0 -10.9018,6.889649 V 2 h -7.6192 v -27.801758 q 0,-5.349609 -1.54,-7.61914 -1.54,-2.269532 -5.1875,-2.269532 -5.5523,0 -10.8613,6.889649 V 2 h -7.6597 v -42.999512 h 7.6597 v 5.471192 q 5.4306,-6.443848 12.0366,-6.443848 9.4429,0 12.0366,7.78125 4.2959,-5.065918 7.2949,-6.40332 2.9991,-1.37793 5.8765,-1.37793 13.2119,0 13.2119,15.846191 z"
             id="path177" />
          <path
             d="m 1538.0165,3.0131836 q -9.4834,0 -15.2383,-5.9169922 -5.7549,-5.9575195 -5.7549,-16.5756834 0,-10.53711 5.5523,-16.494629 5.5927,-5.998047 14.5898,-5.998047 9.1997,0 14.6709,5.876465 5.5117,5.876465 5.5117,16.616211 v 1.82373 h -32.3813 q 0.4863,7.457032 4.0932,11.0639651 3.6475,3.6069336 8.9566,3.6069336 4.0122,0 7.2138,-2.0263672 3.2422,-2.0668945 3.4043,-5.8359375 h 7.9029 q -0.8916,6.6464844 -6.0386,10.253418 -5.1064,3.6069336 -12.4824,3.6069336 z m 11.2666,-26.6669926 q -0.9321,-6.200683 -4.1743,-9.280761 -3.2422,-3.080078 -7.9434,-3.080078 -4.5796,0 -7.8623,3.080078 -3.2827,3.03955 -4.1743,9.280761 z"
             id="path179" />
          <path
             d="m 1582.5966,2.0810547 q -2.5127,0.4863281 -5.4712,0.4863281 -4.7012,0 -6.8897,-1.66162108 -2.1885,-1.70214844 -2.7153,-4.33642582 -0.5269,-2.6342773 -0.5269,-7.1733399 v -24.397461 h -5.3091 v -5.998047 h 5.3091 V -51.69873 h 7.6192 v 10.699218 h 6.9707 v 5.998047 h -6.9707 v 24.802735 q 0,4.41748 1.0942,5.6333003 1.1348,1.175293 3.0801,1.175293 1.9858,0 3.8096,-0.3242188 z"
             id="path181" />
          <path
             d="m 1611.2899,-34.028809 q -1.6211,-0.486328 -4.6606,-0.486328 -5.836,0 -10.0103,6.119629 V 2 h -7.6596 v -42.999512 h 7.6596 v 5.998047 q 4.8228,-6.970703 11.1856,-6.970703 1.6211,0 3.4853,0.324219 z"
             id="path183" />
          <path
             d="m 1619.0306,12.375 q 5.6739,0 9.2808,-10.375 l -16.2515,-42.999512 h 8.2676 l 11.3882,33.6376956 11.3882,-33.6376956 h 8.2676 L 1635.12,2 q -2.3506,6.1601563 -4.0122,9.483398 -1.6211,3.36377 -4.2959,5.633301 -2.6343,2.310059 -6.4844,2.310059 -2.8774,0 -4.9443,-0.567383 v -7.051758 q 1.7832,0.567383 3.6474,0.567383 z"
             id="path185" />
          <path
             d="m 1150.0482,101 h -10.375 l -21.0742,-29.625488 -9.2402,9.037597 V 101 h -7.8623 V 41.586914 h 7.8623 v 29.463379 l 28.977,-29.463379 h 10.6182 l -24.8838,24.397461 z"
             style="font-weight:700;fill:#759deb"
             id="path187" />
          <path
             d="m 1211.974,100.18945 -4.6606,5.55225 -9.8077,-7.740723 q -6.6059,4.012203 -14.914,4.012203 -12.523,0 -20.5069,-8.429684 -7.9838,-8.470215 -7.9838,-22.290039 0,-13.860352 7.9838,-22.290039 7.9839,-8.429688 20.5069,-8.429688 12.4824,0 20.4258,8.429688 7.9433,8.429687 7.9433,22.290039 0,13.455078 -7.7002,22.087402 z m -14.6304,-11.469235 q 5.4712,-6.484375 5.4712,-17.426758 0,-11.347656 -5.6738,-17.669922 -5.6738,-6.322265 -14.4683,-6.322265 -8.9565,0 -14.7114,6.322265 -5.7144,6.322266 -5.7144,17.669922 0,11.307129 5.7144,17.669922 5.7144,6.322266 14.5493,6.322266 4.7012,0 8.9566,-1.98584 l -5.917,-4.660645 4.6606,-5.552246 z"
             style="font-weight:700;fill:#759deb"
             id="path189" />
          <path
             d="m 1246.3007,102.01318 q -12.604,0 -20.1421,-8.267575 -7.4976,-8.308105 -7.4976,-22.452148 0,-14.144043 7.4976,-22.411621 7.5381,-8.308106 20.1421,-8.308106 9.686,0 16.4946,5.228028 6.8086,5.228027 7.6597,13.779297 h -8.1055 q -0.4863,-5.633301 -4.9038,-8.956543 -4.377,-3.323242 -11.064,-3.323242 -9.0376,0 -14.3061,6.24121 -5.2686,6.200684 -5.2686,17.750977 0,11.509766 5.228,17.750977 5.2281,6.241211 14.1846,6.241211 6.9707,0 11.2666,-3.404297 4.2959,-3.404297 4.8633,-9.726563 h 8.1055 q -0.8511,9.483399 -7.4571,14.670899 -6.6059,5.187496 -16.6972,5.187496 z"
             style="font-weight:700;fill:#759deb"
             id="path191" />
          <path
             d="m 1861.6831,0 h -7.457 V -50.537598 L 1837.2856,0 h -7.0517 l -16.9404,-50.537598 V 0 h -7.4571 v -59.413086 h 11.7935 l 16.0893,49.5244141 16.1704,-49.5244141 h 11.7935 z"
             id="path193" />
          <path
             d="m 1901.1973,-11.307129 v -9.523926 h -5.2281 q -16.6162,0 -16.6162,9.037598 0,3.2827148 2.4317,5.0659179 2.4316,1.7426758 6.5654,1.7426758 3.769,0 7.2949,-1.7021484 3.5259,-1.7021485 5.5523,-4.6201173 z m 0,6.8896485 q -5.836,5.4306641 -15.0357,5.4306641 -6.4033,0 -10.5371,-3.4448242 -4.1338,-3.4853516 -4.1338,-8.9565434 0,-15.076171 25.9781,-15.076171 h 3.7285 q 0,-4.620118 -0.4864,-6.687012 -0.4863,-2.107422 -2.7153,-3.485352 -2.229,-1.377929 -7.0923,-1.377929 -10.2129,0 -10.5371,7.294921 h -7.6191 q 0.851,-13.252441 18.5615,-13.252441 8.2676,0 12.8877,3.282715 4.6201,3.282715 4.6201,12.887695 V 0 h -7.6191 z"
             id="path195" />
          <path
             d="m 1935.4834,1.0131836 q -17.6294,0 -18.4399,-13.8603516 h 7.6596 q 0.081,7.8623047 10.6992,7.8623047 4.7417,0 7.2139,-1.9453125 2.5127,-1.9858398 2.5127,-4.9443362 0,-2.917968 -2.4316,-4.093261 -2.4317,-1.215821 -10.0508,-3.120606 -7.5786,-1.904785 -11.1045,-4.255371 -3.4854,-2.350586 -3.4854,-8.267578 0,-5.349609 4.3365,-8.834961 4.3769,-3.525879 11.6718,-3.525879 16.8999,0 17.2647,12.036621 h -7.6192 q -0.4052,-6.079101 -9.1186,-6.079101 -3.8501,0 -6.4033,1.458984 -2.5127,1.458984 -2.5127,4.255371 0,2.512695 1.9453,3.647461 1.9453,1.094238 9.7266,2.999023 7.8217,1.864258 11.5908,4.376954 3.8095,2.512695 3.8095,8.672851 0,5.8764649 -4.7011,9.7670899 -4.6607,3.8500977 -12.5635,3.8500977 z"
             id="path197" />
          <path
             d="m 1997.166,0 h -9.1186 l -13.982,-21.844238 -4.7822,4.741699 V 0 h -7.6597 v -59.413086 h 7.6597 v 33.678223 l 16.5757,-17.264649 h 9.6455 l -16.292,16.008301 z"
             id="path199" />
          <path
             d="M 1997.4902,0 Z"
             id="path201" />
          <path
             d="m 2052.1616,1.0131836 q -12.8066,0 -20.7905,-8.3891602 -7.9434,-8.3891604 -7.9434,-22.3305664 0,-13.981934 7.8623,-22.330566 7.8623,-8.389161 20.6285,-8.389161 10.7397,0 17.832,5.1875 7.1328,5.146973 7.9839,13.819825 h -8.146 q -0.4863,-5.754883 -5.1875,-8.997071 -4.7012,-3.282714 -12.4014,-3.282714 -9.1997,0 -14.833,6.281738 -5.5928,6.281738 -5.5928,17.710449 0,11.388184 5.6739,17.710449 5.6738,6.2817385 14.833,6.2817385 12.8471,0 19.0883,-8.4702145 v -9.037598 h -15.684 v -7.092285 h 23.3032 V 0 h -5.5523 l -2.0669,-6.2412109 q -6.0385,7.2543945 -19.0073,7.2543945 z"
             id="path203" />
          <path
             d="m 2108.0083,1.0131836 q -9.4834,0 -15.2383,-5.9169922 -5.7549,-5.9575194 -5.7549,-16.5756834 0,-10.53711 5.5523,-16.494629 5.5928,-5.998047 14.5898,-5.998047 9.1997,0 14.6709,5.876465 5.5117,5.876465 5.5117,16.616211 v 1.82373 h -32.3813 q 0.4863,7.457032 4.0933,11.0639651 3.6474,3.6069336 8.9565,3.6069336 4.0122,0 7.2139,-2.0263672 3.2422,-2.0668945 3.4043,-5.8359375 h 7.9028 q -0.8916,6.6464844 -6.0386,10.253418 -5.1064,3.6069336 -12.4824,3.6069336 z m 11.2666,-26.6669926 q -0.9321,-6.200683 -4.1743,-9.280761 -3.2422,-3.080078 -7.9434,-3.080078 -4.5796,0 -7.8623,3.080078 -3.2827,3.03955 -4.1743,9.280761 z"
             id="path205" />
          <path
             d="m 2153.3179,-43.972168 q 9.1997,0 14.6709,5.876465 5.5117,5.876465 5.5117,16.616211 0,10.699219 -5.5117,16.6162108 -5.4712,5.8764648 -14.6709,5.8764648 -9.1592,0 -14.6709,-5.8764648 -5.4712,-5.9169918 -5.4712,-16.6162108 0,-10.739746 5.4712,-16.616211 5.5117,-5.876465 14.6709,-5.876465 z m 0,38.9873047 q 5.4712,0 8.8755,-4.133789 3.4043,-4.1743167 3.4043,-12.3608397 0,-8.227051 -3.4043,-12.36084 -3.4043,-4.174316 -8.8755,-4.174316 -5.4712,0 -8.8755,4.174316 -3.4043,4.133789 -3.4043,12.36084 0,8.186523 3.4043,12.3608397 3.4043,4.133789 8.8755,4.133789 z"
             id="path207" />
          <path
             d="m 2240.168,0 h -7.6597 v -27.801758 q 0,-5.349609 -1.54,-7.61914 -1.5401,-2.269532 -5.147,-2.269532 -5.5523,0 -10.9019,6.889649 V 0 h -7.6191 v -27.801758 q 0,-5.349609 -1.54,-7.61914 -1.5401,-2.269532 -5.1875,-2.269532 -5.5523,0 -10.8614,6.889649 V 0 h -7.6596 v -42.999512 h 7.6596 v 5.471192 q 5.4307,-6.443848 12.0366,-6.443848 9.4429,0 12.0367,7.78125 4.2959,-5.065918 7.2949,-6.40332 2.999,-1.37793 5.8765,-1.37793 13.2119,0 13.2119,15.846191 z"
             id="path209" />
          <path
             d="m 2269.4692,1.0131836 q -9.4834,0 -15.2382,-5.9169922 -5.7549,-5.9575194 -5.7549,-16.5756834 0,-10.53711 5.5522,-16.494629 5.5928,-5.998047 14.5899,-5.998047 9.1997,0 14.6709,5.876465 5.5117,5.876465 5.5117,16.616211 v 1.82373 h -32.3814 q 0.4864,7.457032 4.0933,11.0639651 3.6475,3.6069336 8.9565,3.6069336 4.0122,0 7.2139,-2.0263672 3.2422,-2.0668945 3.4043,-5.8359375 h 7.9028 q -0.8916,6.6464844 -6.0385,10.253418 -5.1065,3.6069336 -12.4825,3.6069336 z m 11.2666,-26.6669926 q -0.9321,-6.200683 -4.1743,-9.280761 -3.2422,-3.080078 -7.9433,-3.080078 -4.5796,0 -7.8623,3.080078 -3.2828,3.03955 -4.1744,9.280761 z"
             id="path211" />
          <path
             d="m 2314.0493,0.08105469 q -2.5127,0.48632812 -5.4712,0.48632812 -4.7011,0 -6.8896,-1.66162111 -2.1885,-1.7021484 -2.7154,-4.3364258 -0.5268,-2.6342773 -0.5268,-7.1733399 v -24.397461 h -5.3091 v -5.998047 h 5.3091 V -53.69873 h 7.6191 v 10.699218 h 6.9707 v 5.998047 h -6.9707 v 24.802735 q 0,4.41748 1.0943,5.6333003 1.1347,1.175293 3.08,1.175293 1.9859,0 3.8096,-0.3242188 z"
             id="path213" />
          <path
             d="m 2342.7427,-36.028809 q -1.6211,-0.486328 -4.6607,-0.486328 -5.8359,0 -10.0102,6.119629 V 0 h -7.6597 v -42.999512 h 7.6597 v 5.998047 q 4.8227,-6.970703 11.1855,-6.970703 1.6211,0 3.4854,0.324219 z"
             id="path215" />
          <path
             d="m 2350.4834,10.375 q 5.6738,0 9.2808,-10.375 l -16.2515,-42.999512 h 8.2676 l 11.3882,33.6376956 11.3881,-33.6376956 h 8.2676 L 2366.5728,0 q -2.3506,6.1601562 -4.0123,9.4833984 -1.621,3.3637696 -4.2959,5.6333006 -2.6342,2.310059 -6.4843,2.310059 -2.8775,0 -4.9444,-0.567383 V 9.8076172 q 1.7832,0.5673828 3.6475,0.5673828 z"
             id="path217" />
          <path
             d="m 1854.3882,99 h -10.375 l -21.0742,-29.625488 -9.2403,9.037597 V 99 h -7.8623 V 39.586914 h 7.8623 v 29.463379 l 28.9771,-29.463379 h 10.6181 l -24.8837,24.397461 z"
             style="font-weight:700;fill:#759deb"
             id="path219" />
          <path
             d="m 1916.314,98.189453 -4.6607,5.552247 -9.8076,-7.740723 q -6.606,4.012203 -14.9141,4.012203 -12.5229,0 -20.5068,-8.429684 -7.9839,-8.470215 -7.9839,-22.290039 0,-13.860352 7.9839,-22.290039 7.9839,-8.429688 20.5068,-8.429688 12.4825,0 20.4258,8.429688 7.9434,8.429687 7.9434,22.290039 0,13.455078 -7.7002,22.087402 z m -14.6304,-11.469238 q 5.4712,-6.484375 5.4712,-17.426758 0,-11.347656 -5.6738,-17.669922 -5.6739,-6.322265 -14.4683,-6.322265 -8.9565,0 -14.7114,6.322265 -5.7144,6.322266 -5.7144,17.669922 0,11.307129 5.7144,17.669922 5.7143,6.322266 14.5493,6.322266 4.7012,0 8.9565,-1.98584 l -5.917,-4.660645 4.6607,-5.552246 z"
             style="font-weight:700;fill:#759deb"
             id="path221" />
          <path
             d="m 1950.6406,100.01318 q -12.604,0 -20.1421,-8.267575 -7.4975,-8.308105 -7.4975,-22.452148 0,-14.144043 7.4975,-22.411621 7.5381,-8.308106 20.1421,-8.308106 9.6861,0 16.4947,5.228028 6.8085,5.228027 7.6596,13.779297 h -8.1054 q -0.4864,-5.633301 -4.9039,-8.956543 -4.3769,-3.323242 -11.0639,-3.323242 -9.0376,0 -14.3062,6.24121 -5.2685,6.200684 -5.2685,17.750977 0,11.509766 5.228,17.750977 5.228,6.241211 14.1846,6.241211 6.9707,0 11.2666,-3.404297 4.2959,-3.404297 4.8633,-9.726563 h 8.1054 q -0.8511,9.483399 -7.457,14.670899 -6.606,5.187496 -16.6973,5.187496 z"
             style="font-weight:700;fill:#759deb"
             id="path223" />
          <path
             d="m 2577.438,-52.361328 h -32.2192 v 18.399414 h 27.9233 v 7.051758 h -27.9233 V 0 h -7.8624 v -59.413086 h 40.0816 z"
             id="path225" />
          <path
             d="m 2614.2773,-11.307129 v -9.523926 h -5.228 q -16.6162,0 -16.6162,9.037598 0,3.2827148 2.4316,5.0659179 2.4317,1.7426758 6.5655,1.7426758 3.769,0 7.2949,-1.7021484 3.5259,-1.7021485 5.5522,-4.6201173 z m 0,6.8896485 q -5.8359,5.4306641 -15.0356,5.4306641 -6.4033,0 -10.5371,-3.4448242 -4.1338,-3.4853516 -4.1338,-8.9565434 0,-15.076171 25.978,-15.076171 h 3.7285 q 0,-4.620118 -0.4863,-6.687012 -0.4863,-2.107422 -2.7153,-3.485352 -2.229,-1.377929 -7.0923,-1.377929 -10.2129,0 -10.5371,7.294921 h -7.6192 q 0.8511,-13.252441 18.5616,-13.252441 8.2676,0 12.8877,3.282715 4.6201,3.282715 4.6201,12.887695 V 0 h -7.6192 z"
             id="path227" />
          <path
             d="m 2640.8633,-37.852539 q 5.1064,-6.119629 12.2798,-6.119629 8.4297,0 13.0498,5.998047 4.6201,5.957519 4.6201,16.129883 0,10.577636 -5.1875,16.7377927 -5.147,6.1196289 -13.0093,6.1196289 -6.9707,0 -11.7529,-4.3364258 V 0 h -7.6597 v -59.413086 h 7.6597 z m 0,27.639648 q 4.9038,5.2280277 11.2666,5.2280277 4.9443,0 7.8623,-4.2148437 2.918,-4.255371 2.918,-12.644531 0,-7.94336 -2.7559,-12.036621 -2.7559,-4.133789 -7.7002,-4.133789 -6.3628,0 -11.5908,7.375976 z"
             id="path229" />
          <path
             d="m 2701.6948,-36.028809 q -1.6211,-0.486328 -4.6606,-0.486328 -5.836,0 -10.0103,6.119629 V 0 h -7.6596 v -42.999512 h 7.6596 v 5.998047 q 4.8228,-6.970703 11.1856,-6.970703 1.6211,0 3.4853,0.324219 z"
             id="path231" />
          <path
             d="m 2714.6636,0 h -7.6597 v -42.999512 h 7.6597 z m 0,-51.145508 h -7.6597 v -8.267578 h 7.6597 z"
             id="path233" />
          <path
             d="m 2743.3569,1.0131836 q -9.1591,0 -14.6709,-5.8764648 -5.4712,-5.9169918 -5.4712,-16.6162108 0,-10.739746 5.4712,-16.616211 5.5118,-5.876465 14.6709,-5.876465 7.0518,0 11.753,3.566406 4.7417,3.566407 5.5927,10.293946 h -7.8623 q -0.1621,-3.850098 -2.9179,-5.876465 -2.7154,-2.026367 -6.5655,-2.026367 -5.4712,0 -8.8755,4.174316 -3.4043,4.133789 -3.4043,12.36084 0,8.186523 3.4043,12.3608397 3.4043,4.133789 8.8755,4.133789 3.8501,0 6.5655,-2.0263672 2.7558,-2.0263672 2.9179,-5.8359375 h 7.8623 q -0.851,6.7275391 -5.5927,10.2939453 -4.7012,3.5664063 -11.753,3.5664063 z"
             id="path235" />
          <path
             d="m 2794.6646,-11.307129 v -9.523926 h -5.2281 q -16.6162,0 -16.6162,9.037598 0,3.2827148 2.4317,5.0659179 2.4316,1.7426758 6.5654,1.7426758 3.769,0 7.2949,-1.7021484 3.5259,-1.7021485 5.5523,-4.6201173 z m 0,6.8896485 q -5.836,5.4306641 -15.0357,5.4306641 -6.4033,0 -10.5371,-3.4448242 -4.1338,-3.4853516 -4.1338,-8.9565434 0,-15.076171 25.978,-15.076171 h 3.7286 q 0,-4.620118 -0.4864,-6.687012 -0.4863,-2.107422 -2.7153,-3.485352 -2.229,-1.377929 -7.0923,-1.377929 -10.2129,0 -10.5371,7.294921 h -7.6191 q 0.851,-13.252441 18.5615,-13.252441 8.2676,0 12.8877,3.282715 4.6201,3.282715 4.6201,12.887695 V 0 h -7.6191 z"
             id="path237" />
          <path
             d="m 2830.2881,0.08105469 q -2.5127,0.48632812 -5.4712,0.48632812 -4.7012,0 -6.8897,-1.66162111 -2.1884,-1.7021484 -2.7153,-4.3364258 -0.5268,-2.6342773 -0.5268,-7.1733399 v -24.397461 h -5.3091 v -5.998047 h 5.3091 V -53.69873 h 7.6191 v 10.699218 h 6.9707 v 5.998047 h -6.9707 v 24.802735 q 0,4.41748 1.0942,5.6333003 1.1348,1.175293 3.0801,1.175293 1.9859,0 3.8096,-0.3242188 z"
             id="path239" />
          <path
             d="m 2844.3105,0 h -7.6596 v -42.999512 h 7.6596 z m 0,-51.145508 h -7.6596 v -8.267578 h 7.6596 z"
             id="path241" />
          <path
             d="m 2873.0039,-43.972168 q 9.1997,0 14.6709,5.876465 5.5117,5.876465 5.5117,16.616211 0,10.699219 -5.5117,16.6162108 -5.4712,5.8764648 -14.6709,5.8764648 -9.1592,0 -14.6709,-5.8764648 -5.4712,-5.9169918 -5.4712,-16.6162108 0,-10.739746 5.4712,-16.616211 5.5117,-5.876465 14.6709,-5.876465 z m 0,38.9873047 q 5.4712,0 8.8755,-4.133789 3.4043,-4.1743167 3.4043,-12.3608397 0,-8.227051 -3.4043,-12.36084 -3.4043,-4.174316 -8.8755,-4.174316 -5.4712,0 -8.8755,4.174316 -3.4043,4.133789 -3.4043,12.36084 0,8.186523 3.4043,12.3608397 3.4043,4.133789 8.8755,4.133789 z"
             id="path243" />
          <path
             d="m 2909.3975,-37.52832 q 5.7143,-6.443848 12.8471,-6.443848 14.5493,0 14.5493,15.846191 V 0 h -7.6596 v -27.801758 q 0,-5.268554 -1.9048,-7.578613 -1.8643,-2.310059 -6.1602,-2.310059 -5.8359,0 -11.6718,6.889649 V 0 h -7.6597 v -42.999512 h 7.6597 z"
             id="path245" />
          <path
             d="m 2563.0913,38.57373 q 12.4824,0 20.4258,8.429688 7.9433,8.429687 7.9433,22.290039 0,13.860352 -7.9433,22.290039 -7.9434,8.429684 -20.4258,8.429684 -12.5229,0 -20.5068,-8.429684 -7.9839,-8.470215 -7.9839,-22.290039 0,-13.860352 7.9839,-22.290039 7.9839,-8.429688 20.5068,-8.429688 z m -0.081,54.711915 q 8.916,0 14.5898,-6.322266 5.7144,-6.322266 5.7144,-17.669922 0,-11.347656 -5.6739,-17.669922 -5.6738,-6.322265 -14.4682,-6.322265 -8.9566,0 -14.7115,6.322265 -5.7143,6.322266 -5.7143,17.669922 0,11.307129 5.7143,17.669922 5.7144,6.322266 14.5494,6.322266 z"
             style="fill:#000000"
             id="path247" />
          <path
             d="M 2632.6362,74.683594 2622.1802,47.125 2612.2104,74.683594 Z M 2650.7114,99 h -8.8755 l -6.8896,-18.075195 h -24.8838 L 2603.4971,99 h -8.3081 l 22.8169,-59.413086 h 8.4702 z"
             style="fill:#000000"
             id="path249" />
          <path
             d="m 2679.6885,100.01318 q -12.5635,0 -18.8047,-5.633297 -6.2007,-5.633301 -6.5249,-14.468262 h 7.5786 q 0.6079,6.646484 5.5117,9.848145 4.9444,3.161132 11.9151,3.161132 6.6059,0 10.6181,-2.715332 4.0528,-2.715332 4.0528,-7.375976 0,-4.903809 -4.1744,-7.132813 -4.1743,-2.229004 -14.3872,-4.376953 -10.1723,-2.188476 -14.6303,-6.038574 -4.4175,-3.850098 -4.4175,-10.253418 0,-7.213867 5.7549,-11.833984 5.7954,-4.620118 15.3598,-4.620118 10.0508,0 16.211,4.660645 6.1601,4.660645 6.5249,13.171387 h -7.6597 q -1.1753,-10.780274 -14.752,-10.780274 -6.5654,0 -10.1723,2.472168 -3.607,2.472168 -3.607,6.56543 0,3.728516 2.8775,5.592773 2.918,1.864258 10.8208,3.606934 7.9434,1.742676 12.604,3.444824 4.6606,1.702149 7.9839,5.309082 3.3232,3.566406 3.3232,9.604981 0,7.659668 -6.1196,12.725586 -6.0791,5.065914 -15.8867,5.065914 z"
             style="fill:#000000"
             id="path251" />
          <path
             d="m 2721.5127,99 h -7.9028 V 39.586914 h 7.9028 z"
             style="fill:#000000"
             id="path253" />
          <path
             d="m 2758.1089,100.01318 q -12.5635,0 -18.8047,-5.633297 -6.2007,-5.633301 -6.5249,-14.468262 h 7.5786 q 0.6079,6.646484 5.5117,9.848145 4.9444,3.161132 11.9151,3.161132 6.6059,0 10.6181,-2.715332 4.0528,-2.715332 4.0528,-7.375976 0,-4.903809 -4.1743,-7.132813 -4.1744,-2.229004 -14.3873,-4.376953 -10.1723,-2.188476 -14.6303,-6.038574 -4.4175,-3.850098 -4.4175,-10.253418 0,-7.213867 5.7549,-11.833984 5.7954,-4.620118 15.3598,-4.620118 10.0508,0 16.211,4.660645 6.1601,4.660645 6.5249,13.171387 h -7.6597 q -1.1753,-10.780274 -14.7519,-10.780274 -6.5655,0 -10.1724,2.472168 -3.6069,2.472168 -3.6069,6.56543 0,3.728516 2.8774,5.592773 2.918,1.864258 10.8208,3.606934 7.9434,1.742676 12.604,3.444824 4.6607,1.702149 7.9839,5.309082 3.3232,3.566406 3.3232,9.604981 0,7.659668 -6.1196,12.725586 -6.0791,5.065914 -15.8867,5.065914 z"
             style="fill:#000000"
             id="path255" />
          <path
             d="M 1853.9829,333.58691 1830.8823,393 h -8.1054 l -23.1006,-59.41309 h 8.3891 l 18.7642,50.94288 18.7642,-50.94288 z"
             id="path257" />
          <path
             d="m 1887.418,381.69287 v -9.52392 h -5.2281 q -16.6162,0 -16.6162,9.03759 0,3.28272 2.4317,5.06592 2.4316,1.74268 6.5654,1.74268 3.769,0 7.2949,-1.70215 3.5259,-1.70215 5.5523,-4.62012 z m 0,6.88965 q -5.836,5.43066 -15.0357,5.43066 -6.4033,0 -10.5371,-3.44482 -4.1338,-3.48535 -4.1338,-8.95654 0,-15.07618 25.9781,-15.07618 h 3.7285 q 0,-4.62011 -0.4864,-6.68701 -0.4863,-2.10742 -2.7153,-3.48535 -2.229,-1.37793 -7.0923,-1.37793 -10.2129,0 -10.5371,7.29492 h -7.6191 q 0.851,-13.25244 18.5615,-13.25244 8.2676,0 12.8877,3.28272 4.6201,3.28271 4.6201,12.88769 V 393 h -7.6191 z"
             id="path259" />
          <path
             d="m 1914.0039,393 h -7.6597 v -59.41309 h 7.6597 z"
             id="path261" />
          <path
             d="m 1932.9302,393 h -7.6597 v -42.99951 h 7.6597 z m 0,-51.14551 h -7.6597 v -8.26758 h 7.6597 z"
             id="path263" />
          <path
             d="m 1971.4312,380.63916 v -20.42578 q -4.9444,-5.22803 -11.3072,-5.22803 -4.9038,0 -7.8623,4.25537 -2.9179,4.21485 -2.9179,12.60401 0,7.94336 2.7558,12.07714 2.7964,4.09327 7.7002,4.09327 6.4033,0 11.6314,-7.37598 z m 0,7.21387 q -5.1065,6.16015 -12.2798,6.16015 -8.4297,0 -13.0498,-5.99804 -4.6202,-5.99805 -4.6202,-16.17041 0,-10.53711 5.147,-16.65674 5.1875,-6.16016 13.0093,-6.16016 6.9707,0 11.7935,4.2959 v -19.73682 h 7.6191 V 393 h -7.6191 z"
             id="path265" />
          <path
             d="m 2017.5918,381.69287 v -9.52392 h -5.228 q -16.6162,0 -16.6162,9.03759 0,3.28272 2.4316,5.06592 2.4316,1.74268 6.5654,1.74268 3.7691,0 7.295,-1.70215 3.5258,-1.70215 5.5522,-4.62012 z m 0,6.88965 q -5.8359,5.43066 -15.0356,5.43066 -6.4034,0 -10.5372,-3.44482 -4.1337,-3.48535 -4.1337,-8.95654 0,-15.07618 25.978,-15.07618 h 3.7285 q 0,-4.62011 -0.4863,-6.68701 -0.4864,-2.10742 -2.7154,-3.48535 -2.229,-1.37793 -7.0922,-1.37793 -10.2129,0 -10.5372,7.29492 h -7.6191 q 0.8511,-13.25244 18.5615,-13.25244 8.2676,0 12.8877,3.28272 4.6201,3.28271 4.6201,12.88769 V 393 h -7.6191 z"
             id="path267" />
          <path
             d="m 2053.2153,393.08105 q -2.5127,0.48633 -5.4712,0.48633 -4.7011,0 -6.8896,-1.66162 -2.1885,-1.70215 -2.7153,-4.33642 -0.5269,-2.63428 -0.5269,-7.17334 v -24.39746 h -5.3091 v -5.99805 h 5.3091 v -10.69922 h 7.6191 v 10.69922 h 6.9707 v 5.99805 h -6.9707 v 24.80273 q 0,4.41748 1.0943,5.6333 1.1347,1.17529 3.0801,1.17529 1.9858,0 3.8095,-0.32422 z"
             id="path269" />
          <path
             d="m 2067.2378,393 h -7.6597 v -42.99951 h 7.6597 z m 0,-51.14551 h -7.6597 v -8.26758 h 7.6597 z"
             id="path271" />
          <path
             d="m 2095.9312,349.02783 q 9.1997,0 14.6709,5.87647 5.5117,5.87646 5.5117,16.61621 0,10.69922 -5.5117,16.61621 -5.4712,5.87646 -14.6709,5.87646 -9.1592,0 -14.6709,-5.87646 -5.4712,-5.91699 -5.4712,-16.61621 0,-10.73975 5.4712,-16.61621 5.5117,-5.87647 14.6709,-5.87647 z m 0,38.98731 q 5.4711,0 8.8754,-4.13379 3.4043,-4.17432 3.4043,-12.36084 0,-8.22705 -3.4043,-12.36084 -3.4043,-4.17432 -8.8754,-4.17432 -5.4712,0 -8.8755,4.17432 -3.4043,4.13379 -3.4043,12.36084 0,8.18652 3.4043,12.36084 3.4043,4.13379 8.8755,4.13379 z"
             id="path273" />
          <path
             d="m 2132.3247,355.47168 q 5.7144,-6.44385 12.8472,-6.44385 14.5493,0 14.5493,15.84619 V 393 h -7.6597 v -27.80176 q 0,-5.26855 -1.9048,-7.57861 -1.8642,-2.31006 -6.1601,-2.31006 -5.836,0 -11.6719,6.88965 V 393 h -7.6597 v -42.99951 h 7.6597 z"
             id="path275" />
          <path
             d="m 1852.4834,492 h -8.0649 l -31.125,-46.89014 V 492 h -7.4571 v -59.41309 h 8.0244 l 31.125,46.89014 v -46.89014 h 7.4976 z"
             style="fill:#000000"
             id="path277" />
          <path
             d="m 1883.041,493.01318 q -9.4834,0 -15.2383,-5.91699 -5.7548,-5.95752 -5.7548,-16.57568 0,-10.53711 5.5522,-16.49463 5.5928,-5.99805 14.5898,-5.99805 9.1997,0 14.6709,5.87647 5.5118,5.87646 5.5118,16.61621 v 1.82373 h -32.3814 q 0.4863,7.45703 4.0933,11.06396 3.6474,3.60694 8.9565,3.60694 4.0122,0 7.2139,-2.02637 3.2422,-2.0669 3.4043,-5.83594 h 7.9028 q -0.8916,6.64649 -6.0386,10.25342 -5.1064,3.60693 -12.4824,3.60693 z m 11.2666,-26.66699 q -0.9321,-6.20068 -4.1743,-9.28076 -3.2422,-3.08008 -7.9434,-3.08008 -4.5795,0 -7.8623,3.08008 -3.2827,3.03955 -4.1743,9.28076 z"
             style="fill:#000000"
             id="path279" />
          <path
             d="m 1927.6211,492.08105 q -2.5127,0.48633 -5.4712,0.48633 -4.7012,0 -6.8896,-1.66162 -2.1885,-1.70215 -2.7154,-4.33642 -0.5268,-2.63428 -0.5268,-7.17334 v -24.39746 h -5.3091 v -5.99805 h 5.3091 v -10.69922 h 7.6191 v 10.69922 h 6.9707 v 5.99805 h -6.9707 v 24.80273 q 0,4.41748 1.0942,5.6333 1.1348,1.17529 3.0801,1.17529 1.9859,0 3.8096,-0.32422 z"
             style="fill:#000000"
             id="path281" />
          <path
             d="m 1941.6436,492 h -7.6597 v -59.41309 h 7.6597 z"
             style="fill:#000000"
             id="path283" />
          <path
             d="m 1960.5698,492 h -7.6596 v -42.99951 h 7.6596 z m 0,-51.14551 h -7.6596 v -8.26758 h 7.6596 z"
             style="fill:#000000"
             id="path285" />
          <path
             d="m 1987.1963,493.01318 q -17.6294,0 -18.44,-13.86035 h 7.6597 q 0.081,7.86231 10.6992,7.86231 4.7417,0 7.2139,-1.94532 2.5127,-1.98584 2.5127,-4.94433 0,-2.91797 -2.4316,-4.09326 -2.4317,-1.21582 -10.0508,-3.12061 -7.5786,-1.90478 -11.1045,-4.25537 -3.4854,-2.35059 -3.4854,-8.26758 0,-5.34961 4.3365,-8.83496 4.3769,-3.52588 11.6718,-3.52588 16.8999,0 17.2647,12.03662 h -7.6192 q -0.4052,-6.0791 -9.1186,-6.0791 -3.8501,0 -6.4033,1.45899 -2.5127,1.45898 -2.5127,4.25537 0,2.51269 1.9453,3.64746 1.9453,1.09424 9.7265,2.99902 7.8218,1.86426 11.5909,4.37695 3.8095,2.5127 3.8095,8.67286 0,5.87646 -4.7011,9.76709 -4.6607,3.85009 -12.5635,3.85009 z"
             style="fill:#000000"
             id="path287" />
          <path
             d="m 2030.0337,492.08105 q -2.5127,0.48633 -5.4712,0.48633 -4.7012,0 -6.8896,-1.66162 -2.1885,-1.70215 -2.7154,-4.33642 -0.5268,-2.63428 -0.5268,-7.17334 v -24.39746 h -5.3091 v -5.99805 h 5.3091 v -10.69922 h 7.6191 v 10.69922 h 6.9707 v 5.99805 h -6.9707 v 24.80273 q 0,4.41748 1.0942,5.6333 1.1348,1.17529 3.0801,1.17529 1.9859,0 3.8096,-0.32422 z"
             style="fill:#000000"
             id="path289" />
          <path
             d="m 2046.4473,492 q 0,5.30908 -2.1075,8.51074 -2.1074,3.20166 -6.2006,3.20166 v -3.89062 q 4.0932,0 4.0932,-7.82178 h -4.0932 v -8.30811 h 8.3081 z"
             style="fill:#000000"
             id="path291" />
          <path
             d="M 2053.8232,492 Z"
             style="fill:#000000"
             id="path293" />
          <path
             d="m 2122.5981,439.63867 h -32.2192 v 18.39942 h 27.9233 v 7.05175 h -27.9233 V 492 h -7.8623 v -59.41309 h 40.0815 z"
             style="fill:#000000"
             id="path295" />
          <path
             d="m 2159.4375,486.52881 q -5.7144,6.48437 -12.8472,6.48437 -14.5493,0 -14.5493,-15.88672 v -28.12597 h 7.6597 v 27.80176 q 0,5.26855 1.8642,7.57861 1.8643,2.31006 6.1602,2.31006 6.4033,0 11.7124,-6.88965 v -30.80078 h 7.6191 V 492 h -7.6191 z"
             style="fill:#000000"
             id="path297" />
          <path
             d="m 2186.0234,492 h -7.6596 v -59.41309 h 7.6596 z"
             style="fill:#000000"
             id="path299" />
          <path
             d="m 2204.9497,492 h -7.6597 v -59.41309 h 7.6597 z"
             style="fill:#000000"
             id="path301" />
          <path
             d="M 2210.583,492 Z"
             style="fill:#000000"
             id="path303" />
          <path
             d="m 2279.3579,439.63867 h -32.2192 v 18.39942 h 27.9233 v 7.05175 h -27.9233 V 492 h -7.8623 v -59.41309 h 40.0815 z"
             style="fill:#000000"
             id="path305" />
          <path
             d="m 2334.2725,492 h -44.2964 v -59.41309 h 42.9184 v 7.05176 h -35.0561 v 18.15625 h 32.7866 v 7.05176 h -32.7866 v 20.10156 h 36.4341 z"
             style="fill:#000000"
             id="path307" />
          <path
             d="m 2401.1831,492 h -7.457 V 441.4624 L 2376.7856,492 h -7.0517 l -16.9404,-50.5376 V 492 h -7.4571 v -59.41309 h 11.7935 l 16.0893,49.52442 16.1704,-49.52442 h 11.7935 z"
             style="fill:#000000"
             id="path309" />
          <path
             d="m 419.52487,396 h -44.29638 v -59.41309 h 42.91845 v 7.05176 h -35.05615 v 18.15625 h 32.78662 v 7.05176 h -32.78662 v 20.10156 h 36.43408 z"
             id="path311" />
          <path
             d="m 437.23532,396 h -7.65967 v -59.41309 h 7.65967 z"
             id="path313" />
          <path
             d="m 466.77975,397.01318 q -9.48339,0 -15.23828,-5.91699 -5.75488,-5.95752 -5.75488,-16.57568 0,-10.53711 5.55225,-16.49463 5.59277,-5.99805 14.58984,-5.99805 9.19971,0 14.6709,5.87647 5.51172,5.87646 5.51172,16.61621 v 1.82373 h -32.38135 q 0.48633,7.45703 4.09326,11.06396 3.64746,3.60694 8.95654,3.60694 4.01221,0 7.21387,-2.02637 3.24219,-2.0669 3.4043,-5.83594 h 7.90283 q -0.8916,6.64649 -6.03857,10.25342 -5.10645,3.60693 -12.48243,3.60693 z m 11.26661,-26.66699 q -0.93213,-6.20068 -4.17432,-9.28076 -3.24219,-3.08008 -7.94336,-3.08008 -4.57959,0 -7.8623,3.08008 -3.28272,3.03955 -4.17432,9.28076 z"
             id="path315" />
          <path
             d="m 552.77878,396 h -7.65967 v -27.80176 q 0,-5.34961 -1.54004,-7.61914 -1.54004,-2.26953 -5.14697,-2.26953 -5.55225,0 -10.90186,6.88965 V 396 h -7.61914 v -27.80176 q 0,-5.34961 -1.54004,-7.61914 -1.54004,-2.26953 -5.1875,-2.26953 -5.55224,0 -10.86132,6.88965 V 396 h -7.65967 v -42.99951 h 7.65967 v 5.47119 q 5.43066,-6.44385 12.03662,-6.44385 9.44287,0 12.03662,7.78125 4.2959,-5.06592 7.29492,-6.40332 2.99902,-1.37793 5.87646,-1.37793 13.21192,0 13.21192,15.84619 z"
             id="path317" />
          <path
             d="m 582.08005,397.01318 q -9.4834,0 -15.23828,-5.91699 -5.75489,-5.95752 -5.75489,-16.57568 0,-10.53711 5.55225,-16.49463 5.59277,-5.99805 14.58984,-5.99805 9.19971,0 14.6709,5.87647 5.51172,5.87646 5.51172,16.61621 v 1.82373 h -32.38135 q 0.48633,7.45703 4.09326,11.06396 3.64747,3.60694 8.95655,3.60694 4.0122,0 7.21386,-2.02637 3.24219,-2.0669 3.4043,-5.83594 h 7.90283 q -0.8916,6.64649 -6.03857,10.25342 -5.10645,3.60693 -12.48242,3.60693 z m 11.2666,-26.66699 q -0.93213,-6.20068 -4.17432,-9.28076 -3.24218,-3.08008 -7.94336,-3.08008 -4.57959,0 -7.8623,3.08008 -3.28272,3.03955 -4.17432,9.28076 z"
             id="path319" />
          <path
             d="m 617.62253,358.47168 q 5.71435,-6.44385 12.84717,-6.44385 14.54931,0 14.54931,15.84619 V 396 h -7.65967 v -27.80176 q 0,-5.26855 -1.90478,-7.57861 -1.86426,-2.31006 -6.16016,-2.31006 -5.83593,0 -11.67187,6.88965 V 396 h -7.65967 v -42.99951 h 7.65967 z"
             id="path321" />
          <path
             d="m 672.82077,396.08105 q -2.5127,0.48633 -5.47119,0.48633 -4.70117,0 -6.88965,-1.66162 -2.18848,-1.70215 -2.71533,-4.33642 -0.52686,-2.63428 -0.52686,-7.17334 v -24.39746 h -5.30908 v -5.99805 h 5.30908 v -10.69922 h 7.61914 v 10.69922 h 6.97071 v 5.99805 h -6.97071 v 24.80273 q 0,4.41748 1.09424,5.6333 1.13477,1.17529 3.08008,1.17529 1.98584,0 3.80957,-0.32422 z"
             id="path323" />
          <path
             d="M 673.55026,396 Z"
             id="path325" />
          <path
             d="m 708.89011,396 h -7.65967 v -59.41309 h 7.65967 z"
             id="path327" />
          <path
             d="m 727.81638,396 h -7.65967 v -42.99951 h 7.65967 z m 0,-51.14551 h -7.65967 v -8.26758 h 7.65967 z"
             id="path329" />
          <path
             d="m 746.74265,358.14746 q 5.10644,-6.11963 12.27978,-6.11963 8.42969,0 13.04981,5.99805 4.62011,5.95752 4.62011,16.12988 0,10.57764 -5.1875,16.73779 -5.14697,6.11963 -13.00928,6.11963 -6.9707,0 -11.75292,-4.33642 V 396 h -7.65967 v -59.41309 h 7.65967 z m 0,27.63965 q 4.9038,5.22803 11.2666,5.22803 4.94433,0 7.8623,-4.21485 2.91797,-4.25537 2.91797,-12.64453 0,-7.94336 -2.75586,-12.03662 -2.75586,-4.13379 -7.70019,-4.13379 -6.3628,0 -11.59082,7.37598 z"
             id="path331" />
          <path
             d="m 807.57419,359.97119 q -1.6211,-0.48633 -4.66065,-0.48633 -5.83593,0 -10.01025,6.11963 V 396 h -7.65967 v -42.99951 h 7.65967 v 5.99805 q 4.82275,-6.97071 11.18555,-6.97071 1.62109,0 3.48535,0.32422 z"
             id="path333" />
          <path
             d="m 840.11765,384.69287 v -9.52392 h -5.22803 q -16.61621,0 -16.61621,9.03759 0,3.28272 2.43164,5.06592 2.43164,1.74268 6.56543,1.74268 3.76904,0 7.29492,-1.70215 3.52588,-1.70215 5.55225,-4.62012 z m 0,6.88965 q -5.83594,5.43066 -15.03565,5.43066 -6.40332,0 -10.53711,-3.44482 -4.13379,-3.48535 -4.13379,-8.95654 0,-15.07618 25.97803,-15.07618 h 3.72852 q 0,-4.62011 -0.48633,-6.68701 -0.48633,-2.10742 -2.71533,-3.48535 -2.22901,-1.37793 -7.09229,-1.37793 -10.21289,0 -10.53711,7.29492 h -7.61914 q 0.85107,-13.25244 18.56152,-13.25244 8.26758,0 12.8877,3.28272 4.62012,3.28271 4.62012,12.88769 V 396 h -7.61914 z"
             id="path335" />
          <path
             d="m 881.37448,359.97119 q -1.62109,-0.48633 -4.66064,-0.48633 -5.83594,0 -10.01026,6.11963 V 396 h -7.65967 v -42.99951 h 7.65967 v 5.99805 q 4.82276,-6.97071 11.18555,-6.97071 1.62109,0 3.48535,0.32422 z"
             id="path337" />
          <path
             d="m 889.1152,406.375 q 5.67383,0 9.28077,-10.375 L 882.1445,353.00049 h 8.26758 l 11.38818,33.63769 11.38819,-33.63769 h 8.26757 L 905.20456,396 q -2.35059,6.16016 -4.01221,9.4834 -1.62109,3.36377 -4.2959,5.6333 -2.63427,2.31006 -6.48437,2.31006 -2.87744,0 -4.94434,-0.56739 v -7.05175 q 1.78321,0.56738 3.64746,0.56738 z"
             id="path339" />
          <path
             d="m 400.11227,496.01318 q -12.604,0 -20.14209,-8.26757 -7.49755,-8.30811 -7.49755,-22.45215 0,-14.14405 7.49755,-22.41162 7.53809,-8.30811 20.14209,-8.30811 9.68604,0 16.49463,5.22803 6.8086,5.22803 7.65967,13.77929 h -8.10547 q -0.48633,-5.6333 -4.90381,-8.95654 -4.37695,-3.32324 -11.06396,-3.32324 -9.0376,0 -14.30615,6.24121 -5.26856,6.20068 -5.26856,17.75098 0,11.50976 5.22803,17.75097 5.22803,6.24121 14.18457,6.24121 6.9707,0 11.2666,-3.40429 4.2959,-3.4043 4.86328,-9.72656 h 8.10547 q -0.85107,9.48339 -7.45703,14.67089 -6.60596,5.1875 -16.69727,5.1875 z"
             style="fill:#000000"
             id="path341" />
          <path
             d="m 451.582,451.02783 q 9.19971,0 14.6709,5.87647 5.51172,5.87646 5.51172,16.61621 0,10.69922 -5.51172,16.61621 -5.47119,5.87646 -14.6709,5.87646 -9.15918,0 -14.6709,-5.87646 -5.47119,-5.91699 -5.47119,-16.61621 0,-10.73975 5.47119,-16.61621 5.51172,-5.87647 14.6709,-5.87647 z m 0,38.98731 q 5.47119,0 8.87549,-4.13379 3.4043,-4.17432 3.4043,-12.36084 0,-8.22705 -3.4043,-12.36084 -3.4043,-4.17432 -8.87549,-4.17432 -5.47119,0 -8.87549,4.17432 -3.40429,4.13379 -3.40429,12.36084 0,8.18652 3.40429,12.36084 3.4043,4.13379 8.87549,4.13379 z"
             style="fill:#000000"
             id="path343" />
          <path
             d="m 538.4321,495 h -7.65967 v -27.80176 q 0,-5.34961 -1.54004,-7.61914 -1.54004,-2.26953 -5.14697,-2.26953 -5.55225,0 -10.90186,6.88965 V 495 h -7.61914 v -27.80176 q 0,-5.34961 -1.54004,-7.61914 -1.54004,-2.26953 -5.1875,-2.26953 -5.55224,0 -10.86132,6.88965 V 495 h -7.65967 v -42.99951 h 7.65967 v 5.47119 q 5.43066,-6.44385 12.03662,-6.44385 9.44287,0 12.03662,7.78125 4.2959,-5.06592 7.29492,-6.40332 2.99902,-1.37793 5.87646,-1.37793 13.21192,0 13.21192,15.84619 z"
             style="fill:#000000"
             id="path345" />
          <path
             d="m 557.1152,457.14746 q 5.10645,-6.11963 12.27979,-6.11963 8.42969,0 13.0498,5.99805 4.62012,5.95752 4.62012,16.12988 0,10.57764 -5.1875,16.73779 -5.14697,6.11963 -13.00928,6.11963 -6.9707,0 -11.75293,-4.33642 v 19.8584 h -7.65966 v -59.53467 h 7.65966 z m 0,27.63965 q 4.90381,5.22803 11.26661,5.22803 4.94433,0 7.8623,-4.21485 2.91797,-4.25537 2.91797,-12.64453 0,-7.94336 -2.75586,-12.03662 -2.75586,-4.13379 -7.7002,-4.13379 -6.36279,0 -11.59082,7.37598 z"
             style="fill:#000000"
             id="path347" />
          <path
             d="m 613.04294,451.02783 q 9.19971,0 14.6709,5.87647 5.51172,5.87646 5.51172,16.61621 0,10.69922 -5.51172,16.61621 -5.47119,5.87646 -14.6709,5.87646 -9.15918,0 -14.6709,-5.87646 -5.47119,-5.91699 -5.47119,-16.61621 0,-10.73975 5.47119,-16.61621 5.51172,-5.87647 14.6709,-5.87647 z m 0,38.98731 q 5.47119,0 8.87549,-4.13379 3.40429,-4.17432 3.40429,-12.36084 0,-8.22705 -3.40429,-12.36084 -3.4043,-4.17432 -8.87549,-4.17432 -5.47119,0 -8.87549,4.17432 -3.4043,4.13379 -3.4043,12.36084 0,8.18652 3.4043,12.36084 3.4043,4.13379 8.87549,4.13379 z"
             style="fill:#000000"
             id="path349" />
          <path
             d="m 649.43649,457.47168 q 5.71436,-6.44385 12.84717,-6.44385 14.54932,0 14.54932,15.84619 V 495 h -7.65967 v -27.80176 q 0,-5.26855 -1.90479,-7.57861 -1.86425,-2.31006 -6.16015,-2.31006 -5.83594,0 -11.67188,6.88965 V 495 h -7.65967 v -42.99951 h 7.65967 z"
             style="fill:#000000"
             id="path351" />
          <path
             d="m 706.2153,496.01318 q -9.4834,0 -15.23828,-5.91699 -5.75488,-5.95752 -5.75488,-16.57568 0,-10.53711 5.55224,-16.49463 5.59278,-5.99805 14.58985,-5.99805 9.1997,0 14.6709,5.87647 5.51171,5.87646 5.51171,16.61621 v 1.82373 H 693.1655 q 0.48632,7.45703 4.09326,11.06396 3.64746,3.60694 8.95654,3.60694 4.01221,0 7.21387,-2.02637 3.24219,-2.0669 3.4043,-5.83594 h 7.90283 q -0.8916,6.64649 -6.03858,10.25342 -5.10644,3.60693 -12.48242,3.60693 z m 11.2666,-26.66699 q -0.93213,-6.20068 -4.17431,-9.28076 -3.24219,-3.08008 -7.94336,-3.08008 -4.57959,0 -7.86231,3.08008 -3.28271,3.03955 -4.17431,9.28076 z"
             style="fill:#000000"
             id="path353" />
          <path
             d="m 741.75778,457.47168 q 5.71436,-6.44385 12.84717,-6.44385 14.54932,0 14.54932,15.84619 V 495 h -7.65967 v -27.80176 q 0,-5.26855 -1.90479,-7.57861 -1.86425,-2.31006 -6.16015,-2.31006 -5.83594,0 -11.67188,6.88965 V 495 h -7.65967 v -42.99951 h 7.65967 z"
             style="fill:#000000"
             id="path355" />
          <path
             d="m 796.95602,495.08105 q -2.51269,0.48633 -5.47119,0.48633 -4.70117,0 -6.88965,-1.66162 -2.18847,-1.70215 -2.71533,-4.33642 -0.52685,-2.63428 -0.52685,-7.17334 v -24.39746 h -5.30909 v -5.99805 h 5.30909 v -10.69922 h 7.61914 v 10.69922 h 6.9707 v 5.99805 h -6.9707 v 24.80273 q 0,4.41748 1.09424,5.6333 1.13476,1.17529 3.08007,1.17529 1.98584,0 3.80957,-0.32422 z"
             style="fill:#000000"
             id="path357" />
          <path
             d="m 818.67868,496.01318 q -17.62939,0 -18.43994,-13.86035 h 7.65967 q 0.0811,7.86231 10.69922,7.86231 4.74169,0 7.21386,-1.94532 2.5127,-1.98584 2.5127,-4.94433 0,-2.91797 -2.43164,-4.09326 -2.43164,-1.21582 -10.05078,-3.12061 -7.57862,-1.90478 -11.1045,-4.25537 -3.48535,-2.35059 -3.48535,-8.26758 0,-5.34961 4.33643,-8.83496 4.37695,-3.52588 11.67187,-3.52588 16.89991,0 17.26465,12.03662 h -7.61914 q -0.40527,-6.0791 -9.11865,-6.0791 -3.8501,0 -6.40332,1.45899 -2.5127,1.45898 -2.5127,4.25537 0,2.51269 1.94532,3.64746 1.94531,1.09424 9.72656,2.99902 7.82178,1.86426 11.59082,4.37695 3.80957,2.5127 3.80957,8.67286 0,5.87646 -4.70117,9.76709 -4.66065,3.85009 -12.56348,3.85009 z"
             style="fill:#000000"
             id="path359" />
          <path
             d="M 839.18552,495 Z"
             style="fill:#000000"
             id="path361" />
          <path
             d="m 907.96042,442.63867 h -32.21924 v 18.39942 h 27.92334 v 7.05175 H 875.74118 V 495 h -7.8623 v -59.41309 h 40.08154 z"
             style="fill:#000000"
             id="path363" />
          <path
             d="m 962.87497,495 h -44.29639 v -59.41309 h 42.91846 v 7.05176 h -35.05615 v 18.15625 h 32.78662 v 7.05176 h -32.78662 v 20.10156 h 36.43408 z"
             style="fill:#000000"
             id="path365" />
          <path
             d="m 1029.7856,495 h -7.457 V 444.4624 L 1005.3882,495 h -7.0518 L 981.39597,444.4624 V 495 h -7.45704 v -59.41309 h 11.79346 l 16.08931,49.52442 16.1705,-49.52442 h 11.7934 z"
             style="fill:#000000"
             id="path367" />
        </g>
        <path
           d="M 0,22.75 H 41.5001 V 0 L 83.0002,45.5 41.5001,91.0001 v -22.75 H 0 Z"
           stroke="#000000"
           stroke-width="10.3125"
           stroke-miterlimit="8"
           fill="none"
           fill-rule="evenodd"
           transform="matrix(1,0,0,-1,1724,1126)"
           id="path42" />
        <path
           d="M 0,22.7499 H 41.0001 V 0 L 82.0002,45.4999 41.0001,90.9997 V 68.2498 H 0 Z"
           stroke="#000000"
           stroke-width="10.3125"
           stroke-miterlimit="8"
           fill="none"
           fill-rule="evenodd"
           transform="matrix(1,0,0,-1,1229,1119)"
           id="path44" />
        <path
           d="M 0,22.75 H 41 V 0 L 81.9998,45.5 41,91.0001 v -22.75 H 0 Z"
           stroke="#000000"
           stroke-width="10.3125"
           stroke-miterlimit="8"
           fill="none"
           fill-rule="evenodd"
           transform="matrix(1,0,0,-1,2433,1126)"
           id="path46" />
        <path
           d="M 0,22.75 H 41.5001 V 0 L 83.0002,45.5 41.5001,91.0001 v -22.75 H 0 Z"
           stroke="#000000"
           stroke-width="10.3125"
           stroke-miterlimit="8"
           fill="none"
           fill-rule="evenodd"
           transform="matrix(1,0,0,-1,3177,1126)"
           id="path48" />
        <path
           d="M 0,22.6796 H 41.2746 V 0 L 82.5491,45.3593 41.2746,90.7186 V 68.0389 H 0 Z"
           stroke="#000000"
           stroke-width="10.3125"
           stroke-miterlimit="8"
           fill="none"
           fill-rule="evenodd"
           transform="matrix(0.761995,-0.647583,-0.647583,-0.761995,1766.99,1425.18)"
           id="path50" />
        <path
           d="M 0,22.6796 H 41.2746 V 0 L 82.5491,45.3593 41.2746,90.7186 V 68.0389 H 0 Z"
           stroke="#000000"
           stroke-width="10.3125"
           stroke-miterlimit="8"
           fill="none"
           fill-rule="evenodd"
           transform="matrix(0.680895,0.732381,0.732381,-0.680895,2429.91,1335.35)"
           id="path52" />
      </g>
    </g>
  </g>
</svg>
