<?xml version="1.0" encoding="UTF-8" standalone="no"?>
<!DOCTYPE svg PUBLIC "-//W3C//DTD SVG 1.1//EN"
 "http://www.w3.org/Graphics/SVG/1.1/DTD/svg11.dtd">
<!-- Generated by graphviz version 2.43.0 (0)
 -->
<!-- Title: Libraries Pages: 1 -->
<svg width="412pt" height="260pt"
 viewBox="0.00 0.00 412.42 260.00" xmlns="http://www.w3.org/2000/svg" xmlns:xlink="http://www.w3.org/1999/xlink">
<g id="graph0" class="graph" transform="scale(1 1) rotate(0) translate(4 256)">
<title>Libraries</title>
<polygon fill="white" stroke="transparent" points="-4,4 -4,-256 408.42,-256 408.42,4 -4,4"/>
<!-- Element Library -->
<g id="node1" class="node">
<title>Element Library</title>
<ellipse fill="none" stroke="black" cx="244.44" cy="-234" rx="87.18" ry="18"/>
<text text-anchor="middle" x="244.44" y="-230.3" font-family="Times,serif" font-size="14.00">Element Library</text>
</g>
<!-- Junction Library -->
<g id="node2" class="node">
<title>Junction Library</title>
<ellipse fill="none" stroke="black" cx="187.44" cy="-162" rx="85.59" ry="18"/>
<text text-anchor="middle" x="187.44" y="-158.3" font-family="Times,serif" font-size="14.00">Junction Library</text>
</g>
<!-- Element Library&#45;&gt;Junction Library -->
<g id="edge1" class="edge">
<title>Element Library&#45;&gt;Junction Library</title>
<path fill="none" stroke="black" d="M230.65,-216.05C223.71,-207.54 215.18,-197.07 207.54,-187.68"/>
<polygon fill="black" stroke="black" points="210.14,-185.33 201.11,-179.79 204.71,-189.75 210.14,-185.33"/>
</g>
<!-- Qubit Library -->
<g id="node3" class="node">
<title>Qubit Library</title>
<ellipse fill="none" stroke="black" cx="73.44" cy="-90" rx="73.39" ry="18"/>
<text text-anchor="middle" x="73.44" y="-86.3" font-family="Times,serif" font-size="14.00">Qubit Library</text>
</g>
<!-- Element Library&#45;&gt;Qubit Library -->
<g id="edge2" class="edge">
<title>Element Library&#45;&gt;Qubit Library</title>
<path fill="none" stroke="black" d="M173.14,-223.64C144.27,-216.32 112.96,-203.26 92.44,-180 77.63,-163.2 73.39,-137.72 72.57,-118.32"/>
<polygon fill="black" stroke="black" points="76.07,-118.21 72.41,-108.26 69.07,-118.32 76.07,-118.21"/>
</g>
<!-- Chip Library -->
<g id="node4" class="node">
<title>Chip Library</title>
<ellipse fill="none" stroke="black" cx="277.44" cy="-18" rx="69.59" ry="18"/>
<text text-anchor="middle" x="277.44" y="-14.3" font-family="Times,serif" font-size="14.00">Chip Library</text>
</g>
<!-- Element Library&#45;&gt;Chip Library -->
<g id="edge3" class="edge">
<title>Element Library&#45;&gt;Chip Library</title>
<path fill="none" stroke="black" d="M277.71,-217.36C315.02,-197.74 373.57,-160.23 398.44,-108 405.32,-93.55 407.2,-85.39 398.44,-72 385.65,-52.44 363.87,-40.05 342.28,-32.23"/>
<polygon fill="black" stroke="black" points="343.33,-28.89 332.74,-29.04 341.12,-35.53 343.33,-28.89"/>
</g>
<!-- TestStructure Library -->
<g id="node5" class="node">
<title>TestStructure Library</title>
<ellipse fill="none" stroke="black" cx="277.44" cy="-90" rx="112.38" ry="18"/>
<text text-anchor="middle" x="277.44" y="-86.3" font-family="Times,serif" font-size="14.00">TestStructure Library</text>
</g>
<!-- Element Library&#45;&gt;TestStructure Library -->
<g id="edge4" class="edge">
<title>Element Library&#45;&gt;TestStructure Library</title>
<path fill="none" stroke="black" d="M260.91,-215.92C269.1,-206.22 278.15,-193.37 282.44,-180 288.9,-159.92 287.06,-136.01 283.94,-118.02"/>
<polygon fill="black" stroke="black" points="287.37,-117.33 282,-108.19 280.5,-118.68 287.37,-117.33"/>
</g>
<!-- Junction Library&#45;&gt;Qubit Library -->
<g id="edge7" class="edge">
<title>Junction Library&#45;&gt;Qubit Library</title>
<path fill="none" stroke="black" d="M161,-144.76C145.21,-135.07 124.97,-122.64 107.93,-112.17"/>
<polygon fill="black" stroke="black" points="109.7,-109.16 99.35,-106.91 106.04,-115.12 109.7,-109.16"/>
</g>
<!-- Junction Library&#45;&gt;TestStructure Library -->
<g id="edge5" class="edge">
<title>Junction Library&#45;&gt;TestStructure Library</title>
<path fill="none" stroke="black" d="M208.77,-144.41C220.46,-135.32 235.12,-123.92 247.89,-113.99"/>
<polygon fill="black" stroke="black" points="250.21,-116.61 255.96,-107.71 245.91,-111.09 250.21,-116.61"/>
</g>
<!-- Qubit Library&#45;&gt;Chip Library -->
<g id="edge8" class="edge">
<title>Qubit Library&#45;&gt;Chip Library</title>
<path fill="none" stroke="black" d="M114.24,-75C146.97,-63.77 193.05,-47.96 227.91,-36"/>
<polygon fill="black" stroke="black" points="229.09,-39.29 237.42,-32.73 226.82,-32.67 229.09,-39.29"/>
</g>
<!-- TestStructure Library&#45;&gt;Chip Library -->
<g id="edge6" class="edge">
<title>TestStructure Library&#45;&gt;Chip Library</title>
<path fill="none" stroke="black" d="M277.44,-71.7C277.44,-63.98 277.44,-54.71 277.44,-46.11"/>
<polygon fill="black" stroke="black" points="280.94,-46.1 277.44,-36.1 273.94,-46.1 280.94,-46.1"/>
</g>
</g>
</svg>
