<?xml version="1.0" encoding="UTF-8" standalone="no"?>
<!DOCTYPE svg PUBLIC "-//W3C//DTD SVG 1.1//EN"
 "http://www.w3.org/Graphics/SVG/1.1/DTD/svg11.dtd">
<!-- Generated by graphviz version 2.43.0 (0)
 -->
<!-- Title: %3 Pages: 1 -->
<svg width="678pt" height="530pt"
 viewBox="0.00 0.00 678.37 530.00" xmlns="http://www.w3.org/2000/svg" xmlns:xlink="http://www.w3.org/1999/xlink">
<g id="graph0" class="graph" transform="scale(1 1) rotate(0) translate(4 526)">
<title>%3</title>
<polygon fill="white" stroke="transparent" points="-4,4 -4,-526 674.37,-526 674.37,4 -4,4"/>
<!-- Element -->
<g id="node1" class="node">
<title>Element</title>
<g id="a_node1"><a xlink:href="../api/kqcircuits.elements.element.html" xlink:title="Element" target="_top">
<ellipse fill="none" stroke="black" cx="50.05" cy="-261" rx="50.09" ry="18"/>
<text text-anchor="middle" x="50.05" y="-257.3" font-family="Times,serif" font-size="14.00">Element</text>
</a>
</g>
</g>
<!-- Qubit -->
<g id="node2" class="node">
<title>Qubit</title>
<g id="a_node2"><a xlink:href="../api/kqcircuits.qubits.qubit.html" xlink:title="Qubit" target="_top">
<ellipse fill="none" stroke="black" cx="234.23" cy="-504" rx="36.29" ry="18"/>
<text text-anchor="middle" x="234.23" y="-500.3" font-family="Times,serif" font-size="14.00">Qubit</text>
</a>
</g>
</g>
<!-- Element&#45;&gt;Qubit -->
<g id="edge1" class="edge">
<title>Element&#45;&gt;Qubit</title>
<path fill="none" stroke="black" d="M52.8,-279.12C57.8,-320.54 75.91,-422.77 136.09,-477 150.29,-489.79 170.04,-496.58 188.04,-500.17"/>
<polygon fill="black" stroke="black" points="187.64,-503.65 198.09,-501.89 188.82,-496.75 187.64,-503.65"/>
</g>
<!-- Junction -->
<g id="node3" class="node">
<title>Junction</title>
<g id="a_node3"><a xlink:href="../api/kqcircuits.junctions.junction.html" xlink:title="Junction" target="_top">
<ellipse fill="none" stroke="black" cx="234.23" cy="-450" rx="48.99" ry="18"/>
<text text-anchor="middle" x="234.23" y="-446.3" font-family="Times,serif" font-size="14.00">Junction</text>
</a>
</g>
</g>
<!-- Element&#45;&gt;Junction -->
<g id="edge2" class="edge">
<title>Element&#45;&gt;Junction</title>
<path fill="none" stroke="black" d="M55.44,-279.13C64.53,-312.72 88.64,-384.69 136.09,-423 147.82,-432.47 162.65,-438.62 177.17,-442.62"/>
<polygon fill="black" stroke="black" points="176.59,-446.08 187.13,-445.06 178.25,-439.28 176.59,-446.08"/>
</g>
<!-- Airbridge -->
<g id="node4" class="node">
<title>Airbridge</title>
<g id="a_node4"><a xlink:href="../api/kqcircuits.elements.airbridges.airbridge.html" xlink:title="Airbridge" target="_top">
<ellipse fill="none" stroke="black" cx="234.23" cy="-396" rx="54.69" ry="18"/>
<text text-anchor="middle" x="234.23" y="-392.3" font-family="Times,serif" font-size="14.00">Airbridge</text>
</a>
</g>
</g>
<!-- Element&#45;&gt;Airbridge -->
<g id="edge4" class="edge">
<title>Element&#45;&gt;Airbridge</title>
<path fill="none" stroke="black" d="M60.3,-278.82C73.73,-302.92 100.93,-345.59 136.09,-369 147.47,-376.58 160.95,-382.04 174.18,-385.98"/>
<polygon fill="black" stroke="black" points="173.65,-389.46 184.22,-388.71 175.48,-382.71 173.65,-389.46"/>
</g>
<!-- TestStructure -->
<g id="node5" class="node">
<title>TestStructure</title>
<g id="a_node5"><a xlink:href="../api/kqcircuits.test_structures.test_structure.html" xlink:title="TestStructure" target="_top">
<ellipse fill="none" stroke="black" cx="234.23" cy="-342" rx="75.29" ry="18"/>
<text text-anchor="middle" x="234.23" y="-338.3" font-family="Times,serif" font-size="14.00">TestStructure</text>
</a>
</g>
</g>
<!-- Element&#45;&gt;TestStructure -->
<g id="edge5" class="edge">
<title>Element&#45;&gt;TestStructure</title>
<path fill="none" stroke="black" d="M72.77,-277.34C89.38,-289.18 113.24,-304.84 136.09,-315 146.42,-319.59 157.72,-323.59 168.84,-326.99"/>
<polygon fill="black" stroke="black" points="167.96,-330.38 178.54,-329.83 169.93,-323.66 167.96,-330.38"/>
</g>
<!-- FlipChipConnector -->
<g id="node6" class="node">
<title>FlipChipConnector</title>
<g id="a_node6"><a xlink:href="../api/kqcircuits.elements.flip_chip_connectors.flip_chip_connector.html" xlink:title="FlipChipConnector" target="_top">
<ellipse fill="none" stroke="black" cx="234.23" cy="-288" rx="98.28" ry="18"/>
<text text-anchor="middle" x="234.23" y="-284.3" font-family="Times,serif" font-size="14.00">FlipChipConnector</text>
</a>
</g>
</g>
<!-- Element&#45;&gt;FlipChipConnector -->
<g id="edge6" class="edge">
<title>Element&#45;&gt;FlipChipConnector</title>
<path fill="none" stroke="black" d="M96.55,-267.74C111.88,-270.02 129.53,-272.63 146.95,-275.21"/>
<polygon fill="black" stroke="black" points="146.75,-278.72 157.15,-276.73 147.78,-271.8 146.75,-278.72"/>
</g>
<!-- Fluxline -->
<g id="node7" class="node">
<title>Fluxline</title>
<g id="a_node7"><a xlink:href="../api/kqcircuits.elements.fluxlines.fluxline.html" xlink:title="Fluxline" target="_top">
<ellipse fill="none" stroke="black" cx="234.23" cy="-234" rx="48.19" ry="18"/>
<text text-anchor="middle" x="234.23" y="-230.3" font-family="Times,serif" font-size="14.00">Fluxline</text>
</a>
</g>
</g>
<!-- Element&#45;&gt;Fluxline -->
<g id="edge7" class="edge">
<title>Element&#45;&gt;Fluxline</title>
<path fill="none" stroke="black" d="M96.55,-254.26C121.58,-250.55 152.79,-245.92 179.07,-242.03"/>
<polygon fill="black" stroke="black" points="179.87,-245.45 189.25,-240.52 178.85,-238.52 179.87,-245.45"/>
</g>
<!-- Marker -->
<g id="node8" class="node">
<title>Marker</title>
<g id="a_node8"><a xlink:href="../api/kqcircuits.elements.markers.marker.html" xlink:title="Marker" target="_top">
<ellipse fill="none" stroke="black" cx="234.23" cy="-180" rx="44.69" ry="18"/>
<text text-anchor="middle" x="234.23" y="-176.3" font-family="Times,serif" font-size="14.00">Marker</text>
</a>
</g>
</g>
<!-- Element&#45;&gt;Marker -->
<g id="edge8" class="edge">
<title>Element&#45;&gt;Marker</title>
<path fill="none" stroke="black" d="M72.77,-244.66C89.38,-232.82 113.24,-217.16 136.09,-207 151.18,-200.29 168.34,-194.86 183.99,-190.68"/>
<polygon fill="black" stroke="black" points="185.21,-193.98 194.03,-188.11 183.47,-187.2 185.21,-193.98"/>
</g>
<!-- Tsv -->
<g id="node9" class="node">
<title>Tsv</title>
<g id="a_node9"><a xlink:href="../api/kqcircuits.elements.tsvs.tsv.html" xlink:title="Tsv" target="_top">
<ellipse fill="none" stroke="black" cx="234.23" cy="-126" rx="27" ry="18"/>
<text text-anchor="middle" x="234.23" y="-122.3" font-family="Times,serif" font-size="14.00">Tsv</text>
</a>
</g>
</g>
<!-- Element&#45;&gt;Tsv -->
<g id="edge9" class="edge">
<title>Element&#45;&gt;Tsv</title>
<path fill="none" stroke="black" d="M60.3,-243.18C73.73,-219.08 100.93,-176.41 136.09,-153 154.37,-140.83 178.06,-134.1 197.47,-130.41"/>
<polygon fill="black" stroke="black" points="198.2,-133.83 207.47,-128.7 197.02,-126.93 198.2,-133.83"/>
</g>
<!-- Chip -->
<g id="node11" class="node">
<title>Chip</title>
<g id="a_node11"><a xlink:href="../api/kqcircuits.chips.chip.html" xlink:title="Chip" target="_top">
<polygon fill="none" stroke="black" points="261.23,-90 207.23,-90 207.23,-54 261.23,-54 261.23,-90"/>
<text text-anchor="middle" x="234.23" y="-68.3" font-family="Times,serif" font-size="14.00">Chip</text>
</a>
</g>
</g>
<!-- Element&#45;&gt;Chip -->
<g id="edge10" class="edge">
<title>Element&#45;&gt;Chip</title>
<path fill="none" stroke="black" d="M55.44,-242.87C64.53,-209.28 88.64,-137.31 136.09,-99 153.37,-85.05 177.39,-78.29 197.21,-75.03"/>
<polygon fill="black" stroke="black" points="197.73,-78.49 207.14,-73.62 196.75,-71.56 197.73,-78.49"/>
</g>
<!-- WaveguideCoplanar -->
<g id="node12" class="node">
<title>WaveguideCoplanar</title>
<g id="a_node12"><a xlink:href="../api/kqcircuits.elements.waveguide_coplanar.html" xlink:title="WaveguideCoplanar" target="_top">
<polygon fill="none" stroke="green" points="313.73,-36 154.73,-36 154.73,0 313.73,0 313.73,-36"/>
<text text-anchor="middle" x="234.23" y="-14.3" font-family="Times,serif" font-size="14.00">WaveguideCoplanar</text>
</a>
</g>
</g>
<!-- Element&#45;&gt;WaveguideCoplanar -->
<g id="edge11" class="edge">
<title>Element&#45;&gt;WaveguideCoplanar</title>
<path fill="none" stroke="black" d="M52.8,-242.88C57.8,-201.46 75.91,-99.23 136.09,-45 139.08,-42.31 142.31,-39.88 145.72,-37.7"/>
<polygon fill="black" stroke="black" points="147.53,-40.7 154.53,-32.74 144.1,-34.6 147.53,-40.7"/>
</g>
<!-- Swissmon -->
<g id="node15" class="node">
<title>Swissmon</title>
<g id="a_node15"><a xlink:href="../api/kqcircuits.qubits.swissmon.html" xlink:title="Swissmon" target="_top">
<polygon fill="none" stroke="green" points="498.37,-522 409.37,-522 409.37,-486 498.37,-486 498.37,-522"/>
<text text-anchor="middle" x="453.87" y="-500.3" font-family="Times,serif" font-size="14.00">Swissmon</text>
</a>
</g>
</g>
<!-- Qubit&#45;&gt;Swissmon -->
<g id="edge14" class="edge">
<title>Qubit&#45;&gt;Swissmon</title>
<path fill="none" stroke="black" d="M270.68,-504C305.48,-504 359,-504 399.05,-504"/>
<polygon fill="black" stroke="black" points="399.18,-507.5 409.18,-504 399.18,-500.5 399.18,-507.5"/>
</g>
<!-- Squid -->
<g id="node10" class="node">
<title>Squid</title>
<ellipse fill="none" stroke="black" cx="453.87" cy="-450" rx="37.89" ry="18"/>
<text text-anchor="middle" x="453.87" y="-446.3" font-family="Times,serif" font-size="14.00">Squid</text>
</g>
<!-- Junction&#45;&gt;Squid -->
<g id="edge3" class="edge">
<title>Junction&#45;&gt;Squid</title>
<path fill="none" stroke="black" d="M282.99,-450C319.44,-450 369.39,-450 405.69,-450"/>
<polygon fill="black" stroke="black" points="406.02,-453.5 416.02,-450 406.02,-446.5 406.02,-453.5"/>
</g>
<!-- AirbridgeRectangular -->
<g id="node17" class="node">
<title>AirbridgeRectangular</title>
<g id="a_node17"><a xlink:href="../api/kqcircuits.elements.airbridges.airbridge_rectangular.html" xlink:title="AirbridgeRectangular" target="_top">
<polygon fill="none" stroke="green" points="539.37,-414 368.37,-414 368.37,-378 539.37,-378 539.37,-414"/>
<text text-anchor="middle" x="453.87" y="-392.3" font-family="Times,serif" font-size="14.00">AirbridgeRectangular</text>
</a>
</g>
</g>
<!-- Airbridge&#45;&gt;AirbridgeRectangular -->
<g id="edge16" class="edge">
<title>Airbridge&#45;&gt;AirbridgeRectangular</title>
<path fill="none" stroke="black" d="M289.03,-396C309.96,-396 334.57,-396 358.27,-396"/>
<polygon fill="black" stroke="black" points="358.35,-399.5 368.35,-396 358.35,-392.5 358.35,-399.5"/>
</g>
<!-- AirbridgeDC -->
<g id="node20" class="node">
<title>AirbridgeDC</title>
<g id="a_node20"><a xlink:href="../api/kqcircuits.test_structures.airbridge_dc.html" xlink:title="AirbridgeDC" target="_top">
<polygon fill="none" stroke="green" points="506.87,-360 400.87,-360 400.87,-324 506.87,-324 506.87,-360"/>
<text text-anchor="middle" x="453.87" y="-338.3" font-family="Times,serif" font-size="14.00">AirbridgeDC</text>
</a>
</g>
</g>
<!-- TestStructure&#45;&gt;AirbridgeDC -->
<g id="edge19" class="edge">
<title>TestStructure&#45;&gt;AirbridgeDC</title>
<path fill="none" stroke="black" d="M309.83,-342C336.11,-342 365.35,-342 390.52,-342"/>
<polygon fill="black" stroke="black" points="390.67,-345.5 400.67,-342 390.67,-338.5 390.67,-345.5"/>
</g>
<!-- FlipChipConnectorDc -->
<g id="node21" class="node">
<title>FlipChipConnectorDc</title>
<g id="a_node21"><a xlink:href="../api/kqcircuits.elements.flip_chip_connectors.flip_chip_connector_dc.html" xlink:title="FlipChipConnectorDc" target="_top">
<polygon fill="none" stroke="green" points="538.87,-306 368.87,-306 368.87,-270 538.87,-270 538.87,-306"/>
<text text-anchor="middle" x="453.87" y="-284.3" font-family="Times,serif" font-size="14.00">FlipChipConnectorDc</text>
</a>
</g>
</g>
<!-- FlipChipConnector&#45;&gt;FlipChipConnectorDc -->
<g id="edge20" class="edge">
<title>FlipChipConnector&#45;&gt;FlipChipConnectorDc</title>
<path fill="none" stroke="black" d="M332.59,-288C341.22,-288 349.94,-288 358.53,-288"/>
<polygon fill="black" stroke="black" points="358.56,-291.5 368.56,-288 358.56,-284.5 358.56,-291.5"/>
</g>
<!-- FluxlineStraight -->
<g id="node18" class="node">
<title>FluxlineStraight</title>
<g id="a_node18"><a xlink:href="../api/kqcircuits.elements.fluxlines.fluxline_straight.html" xlink:title="FluxlineStraight" target="_top">
<polygon fill="none" stroke="green" points="520.87,-252 386.87,-252 386.87,-216 520.87,-216 520.87,-252"/>
<text text-anchor="middle" x="453.87" y="-230.3" font-family="Times,serif" font-size="14.00">FluxlineStraight</text>
</a>
</g>
</g>
<!-- Fluxline&#45;&gt;FluxlineStraight -->
<g id="edge17" class="edge">
<title>Fluxline&#45;&gt;FluxlineStraight</title>
<path fill="none" stroke="black" d="M282.46,-234C309.98,-234 345.35,-234 376.72,-234"/>
<polygon fill="black" stroke="black" points="376.75,-237.5 386.75,-234 376.75,-230.5 376.75,-237.5"/>
</g>
<!-- MarkerStandard -->
<g id="node19" class="node">
<title>MarkerStandard</title>
<g id="a_node19"><a xlink:href="../api/kqcircuits.elements.markers.marker_standard.html" xlink:title="MarkerStandard" target="_top">
<polygon fill="none" stroke="green" points="521.37,-198 386.37,-198 386.37,-162 521.37,-162 521.37,-198"/>
<text text-anchor="middle" x="453.87" y="-176.3" font-family="Times,serif" font-size="14.00">MarkerStandard</text>
</a>
</g>
</g>
<!-- Marker&#45;&gt;MarkerStandard -->
<g id="edge18" class="edge">
<title>Marker&#45;&gt;MarkerStandard</title>
<path fill="none" stroke="black" d="M279.28,-180C306.96,-180 343.44,-180 375.81,-180"/>
<polygon fill="black" stroke="black" points="376.16,-183.5 386.16,-180 376.16,-176.5 376.16,-183.5"/>
</g>
<!-- TsvEllipse -->
<g id="node22" class="node">
<title>TsvEllipse</title>
<g id="a_node22"><a xlink:href="../api/kqcircuits.elements.tsvs.tsv_ellipse.html" xlink:title="TsvEllipse" target="_top">
<polygon fill="none" stroke="green" points="498.37,-144 409.37,-144 409.37,-108 498.37,-108 498.37,-144"/>
<text text-anchor="middle" x="453.87" y="-122.3" font-family="Times,serif" font-size="14.00">TsvEllipse</text>
</a>
</g>
</g>
<!-- Tsv&#45;&gt;TsvEllipse -->
<g id="edge21" class="edge">
<title>Tsv&#45;&gt;TsvEllipse</title>
<path fill="none" stroke="black" d="M261.49,-126C295.4,-126 355.26,-126 399.03,-126"/>
<polygon fill="black" stroke="black" points="399.23,-129.5 409.23,-126 399.23,-122.5 399.23,-129.5"/>
</g>
<!-- Manhattan -->
<g id="node16" class="node">
<title>Manhattan</title>
<g id="a_node16"><a xlink:href="../api/kqcircuits.junctions.manhattan.html" xlink:title="Manhattan" target="_top">
<polygon fill="none" stroke="green" points="670.37,-468 575.37,-468 575.37,-432 670.37,-432 670.37,-468"/>
<text text-anchor="middle" x="622.87" y="-446.3" font-family="Times,serif" font-size="14.00">Manhattan</text>
</a>
</g>
</g>
<!-- Squid&#45;&gt;Manhattan -->
<g id="edge15" class="edge">
<title>Squid&#45;&gt;Manhattan</title>
<path fill="none" stroke="black" d="M491.94,-450C513.46,-450 541.02,-450 565.22,-450"/>
<polygon fill="black" stroke="black" points="565.35,-453.5 575.35,-450 565.35,-446.5 565.35,-453.5"/>
</g>
<!-- Demo -->
<g id="node13" class="node">
<title>Demo</title>
<g id="a_node13"><a xlink:href="../api/kqcircuits.chips.demo.html" xlink:title="Demo" target="_top">
<polygon fill="none" stroke="green" points="482.87,-90 424.87,-90 424.87,-54 482.87,-54 482.87,-90"/>
<text text-anchor="middle" x="453.87" y="-68.3" font-family="Times,serif" font-size="14.00">Demo</text>
</a>
</g>
</g>
<!-- Chip&#45;&gt;Demo -->
<g id="edge12" class="edge">
<title>Chip&#45;&gt;Demo</title>
<path fill="none" stroke="black" d="M261.49,-72C299.69,-72 370.83,-72 414.79,-72"/>
<polygon fill="black" stroke="black" points="414.81,-75.5 424.81,-72 414.81,-68.5 414.81,-75.5"/>
</g>
<!-- DemoTwoface -->
<g id="node14" class="node">
<title>DemoTwoface</title>
<g id="a_node14"><a xlink:href="../api/kqcircuits.chips.demo_twoface.html" xlink:title="DemoTwoface" target="_top">
<polygon fill="none" stroke="green" points="511.87,-36 395.87,-36 395.87,0 511.87,0 511.87,-36"/>
<text text-anchor="middle" x="453.87" y="-14.3" font-family="Times,serif" font-size="14.00">DemoTwoface</text>
</a>
</g>
</g>
<!-- Chip&#45;&gt;DemoTwoface -->
<g id="edge13" class="edge">
<title>Chip&#45;&gt;DemoTwoface</title>
<path fill="none" stroke="black" d="M261.49,-65.49C292.05,-57.9 343.69,-45.09 385.63,-34.68"/>
<polygon fill="black" stroke="black" points="386.65,-38.04 395.52,-32.23 384.97,-31.24 386.65,-38.04"/>
</g>
</g>
</svg>
