<?xml version="1.0" encoding="UTF-8" standalone="no"?>
<!DOCTYPE svg PUBLIC "-//W3C//DTD SVG 1.1//EN"
 "http://www.w3.org/Graphics/SVG/1.1/DTD/svg11.dtd">
<!-- Generated by graphviz version 2.43.0 (0)
 -->
<!-- Title: Libraries Pages: 1 -->
<svg width="412pt" height="260pt"
 viewBox="0.00 0.00 412.49 260.00" xmlns="http://www.w3.org/2000/svg" xmlns:xlink="http://www.w3.org/1999/xlink">
<g id="graph0" class="graph" transform="scale(1 1) rotate(0) translate(4 256)">
<title>Libraries</title>
<polygon fill="white" stroke="transparent" points="-4,4 -4,-256 408.49,-256 408.49,4 -4,4"/>
<!-- Element Library -->
<g id="node1" class="node">
<title>Element Library</title>
<ellipse fill="none" stroke="black" cx="235.44" cy="-234" rx="87.18" ry="18"/>
<text text-anchor="middle" x="235.44" y="-230.3" font-family="Times,serif" font-size="14.00">Element Library</text>
</g>
<!-- SQUID Library -->
<g id="node2" class="node">
<title>SQUID Library</title>
<ellipse fill="none" stroke="black" cx="181.44" cy="-162" rx="79.89" ry="18"/>
<text text-anchor="middle" x="181.44" y="-158.3" font-family="Times,serif" font-size="14.00">SQUID Library</text>
</g>
<!-- Element Library&#45;&gt;SQUID Library -->
<g id="edge1" class="edge">
<title>Element Library&#45;&gt;SQUID Library</title>
<path fill="none" stroke="black" d="M222.37,-216.05C215.87,-207.63 207.89,-197.28 200.7,-187.97"/>
<polygon fill="black" stroke="black" points="203.27,-185.57 194.39,-179.79 197.73,-189.84 203.27,-185.57"/>
</g>
<!-- Qubit Library -->
<g id="node3" class="node">
<title>Qubit Library</title>
<ellipse fill="none" stroke="black" cx="73.44" cy="-90" rx="73.39" ry="18"/>
<text text-anchor="middle" x="73.44" y="-86.3" font-family="Times,serif" font-size="14.00">Qubit Library</text>
</g>
<!-- Element Library&#45;&gt;Qubit Library -->
<g id="edge2" class="edge">
<title>Element Library&#45;&gt;Qubit Library</title>
<path fill="none" stroke="black" d="M167.92,-222.54C140.84,-215.03 111.58,-202.13 92.44,-180 77.79,-163.06 73.54,-137.59 72.66,-118.24"/>
<polygon fill="black" stroke="black" points="76.16,-118.14 72.48,-108.2 69.16,-118.27 76.16,-118.14"/>
</g>
<!-- Chip Library -->
<g id="node4" class="node">
<title>Chip Library</title>
<ellipse fill="none" stroke="black" cx="277.44" cy="-18" rx="69.59" ry="18"/>
<text text-anchor="middle" x="277.44" y="-14.3" font-family="Times,serif" font-size="14.00">Chip Library</text>
</g>
<!-- Element Library&#45;&gt;Chip Library -->
<g id="edge3" class="edge">
<title>Element Library&#45;&gt;Chip Library</title>
<path fill="none" stroke="black" d="M271.29,-217.55C310.76,-198.33 372.1,-161.41 398.44,-108 405.52,-93.65 407.2,-85.39 398.44,-72 385.65,-52.44 363.87,-40.05 342.28,-32.23"/>
<polygon fill="black" stroke="black" points="343.33,-28.89 332.74,-29.04 341.12,-35.53 343.33,-28.89"/>
</g>
<!-- TestStructure Library -->
<g id="node5" class="node">
<title>TestStructure Library</title>
<ellipse fill="none" stroke="black" cx="277.44" cy="-90" rx="112.38" ry="18"/>
<text text-anchor="middle" x="277.44" y="-86.3" font-family="Times,serif" font-size="14.00">TestStructure Library</text>
</g>
<!-- Element Library&#45;&gt;TestStructure Library -->
<g id="edge4" class="edge">
<title>Element Library&#45;&gt;TestStructure Library</title>
<path fill="none" stroke="black" d="M249.86,-216.04C257.38,-206.18 265.93,-193.14 270.44,-180 277.28,-160.12 278.83,-136.33 278.79,-118.34"/>
<polygon fill="black" stroke="black" points="282.29,-118.17 278.59,-108.24 275.29,-118.31 282.29,-118.17"/>
</g>
<!-- SQUID Library&#45;&gt;Qubit Library -->
<g id="edge7" class="edge">
<title>SQUID Library&#45;&gt;Qubit Library</title>
<path fill="none" stroke="black" d="M156.39,-144.76C141.67,-135.22 122.88,-123.04 106.9,-112.68"/>
<polygon fill="black" stroke="black" points="108.65,-109.65 98.36,-107.15 104.84,-115.52 108.65,-109.65"/>
</g>
<!-- SQUID Library&#45;&gt;TestStructure Library -->
<g id="edge5" class="edge">
<title>SQUID Library&#45;&gt;TestStructure Library</title>
<path fill="none" stroke="black" d="M204.19,-144.41C216.78,-135.24 232.59,-123.7 246.3,-113.71"/>
<polygon fill="black" stroke="black" points="248.51,-116.43 254.52,-107.71 244.38,-110.78 248.51,-116.43"/>
</g>
<!-- Qubit Library&#45;&gt;Chip Library -->
<g id="edge8" class="edge">
<title>Qubit Library&#45;&gt;Chip Library</title>
<path fill="none" stroke="black" d="M114.24,-75C146.97,-63.77 193.05,-47.96 227.91,-36"/>
<polygon fill="black" stroke="black" points="229.09,-39.29 237.42,-32.73 226.82,-32.67 229.09,-39.29"/>
</g>
<!-- TestStructure Library&#45;&gt;Chip Library -->
<g id="edge6" class="edge">
<title>TestStructure Library&#45;&gt;Chip Library</title>
<path fill="none" stroke="black" d="M277.44,-71.7C277.44,-63.98 277.44,-54.71 277.44,-46.11"/>
<polygon fill="black" stroke="black" points="280.94,-46.1 277.44,-36.1 273.94,-46.1 280.94,-46.1"/>
</g>
</g>
</svg>
