<?xml version="1.0" encoding="UTF-8"?>
<svg xmlns="http://www.w3.org/2000/svg" xmlns:xlink="http://www.w3.org/1999/xlink"
     width="4485.2390000000005" height="2636.279000000001" viewBox="-658.8745000000001 -2147.4045000000006 4485.2390000000005 2636.279000000001">
<defs>
<style type="text/css">
.l11d1 {stroke: none; fill: #09b8c6;}
.l14d0 {stroke: none; fill: none;}
.l85d0 {stroke: none; fill: none; fill-opacity: 0.5;}
.l29d3 {stroke: none; fill: #00e397;fill-opacity: 0.5;}
.l28d3 {stroke: none; fill: #00e397;fill-opacity: 0.5;}
.l85t0 {stroke: none; fill: none;}
</style>
<g id="Waveguide$Coplanar$2" >
<polygon class="l14d0" points="1147.0000000000002,71.00000000000001 1107.0000000000002,101.00000000000003 1293.0000000000005,349.00000000000006 1333.0000000000005,319.0000000000001"/>
<polygon class="l14d0" points="1107.0000000000002,101.00000000000003 1067.0000000000002,131.00000000000003 1253.0000000000002,379.00000000000006 1293.0000000000005,349.00000000000006"/>
<use transform="translate(1200.0000000000002 225.00000000000006) rotate(143.13010235415598) scale(1.0)" xlink:href="#Waveguide$Coplanar$Straight$3"/>
<use transform="translate(1320.0000000000002 660.0000000000001) rotate(233.13010235415598) scale(1.0)" xlink:href="#Waveguide$Coplanar$Curved$1"/>
<use transform="translate(900.0000000000002 660.0000000000001) rotate(90.0)" xlink:href="#Waveguide$Coplanar$Straight$4"/>
<use transform="translate(1320.0000000000002 1140.0000000000002) rotate(180.0)" xlink:href="#Waveguide$Coplanar$Curved$2"/>
<use transform="translate(1068.0000000000002 1476.0000000000002) rotate(36.86989764584401) scale(1.0)" xlink:href="#Waveguide$Coplanar$Straight$5"/>
<use transform="translate(1500.0000000000002 1275.0000000000002) rotate(126.86989764584402) scale(1.0)" xlink:href="#Waveguide$Coplanar$Curved$3"/>
<use transform="translate(1752.0000000000005 1611.0000000000005) rotate(323.13010235415595) scale(1.0)" xlink:href="#Waveguide$Coplanar$Straight$6"/>
<use transform="translate(1680.0000000000002 1140.0000000000002) rotate(53.13010235415599) scale(1.0)" xlink:href="#Waveguide$Coplanar$Curved$2"/>
<use transform="translate(2100.0000000000005 1140.0000000000002) rotate(270.0)" xlink:href="#Waveguide$Coplanar$Straight$4"/>
<use transform="translate(1680.0000000000002 660.0000000000001)" xlink:href="#Waveguide$Coplanar$Curved$1"/>
<use transform="translate(1932.0000000000005 324.00000000000006) rotate(216.86989764584402) scale(1.0)" xlink:href="#Waveguide$Coplanar$Straight$7"/>
<use transform="translate(1500.0000000000002 525.0000000000001) rotate(306.86989764584405) scale(1.0)" xlink:href="#Waveguide$Coplanar$Curved$4"/>
<use transform="translate(1248.0000000000002 189.00000000000006) rotate(143.13010235415598) scale(1.0)" xlink:href="#Waveguide$Coplanar$Straight$8"/>
</g>
<g id="Waveguide$Coplanar" >
<polygon class="l14d0" points="-455.0000000000001,-50.00000000000001 -455.0000000000001,0.0 -145.00000000000003,0.0 -145.00000000000003,-50.00000000000001"/>
<polygon class="l14d0" points="-455.0000000000001,1800.0000000000005 -455.0000000000001,1850.0000000000005 -145.00000000000003,1850.0000000000005 -145.00000000000003,1800.0000000000005"/>
<use transform="translate(-300.00000000000006 0.0) rotate(90.0)" xlink:href="#Waveguide$Coplanar$Straight"/>
</g>
<g id="Waveguide$Coplanar$Straight$1" >
<polygon class="l11d1" points="0.0,45.00000000000001 0.0,105.00000000000001 894.2700000000002,105.00000000000001 894.2700000000002,45.00000000000001"/>
<polygon class="l11d1" points="0.0,-105.00000000000001 0.0,-45.00000000000001 894.2700000000002,-45.00000000000001 894.2700000000002,-105.00000000000001"/>
<polygon class="l14d0" points="0.0,-155.00000000000003 0.0,155.00000000000003 894.2700000000002,155.00000000000003 894.2700000000002,-155.00000000000003"/>
<polygon class="l85d0" points="0.0,-105.00000000000001 0.0,105.00000000000001 894.2700000000002,105.00000000000001 894.2700000000002,-105.00000000000001"/>
</g>
<g id="Waveguide$Coplanar$Curved$6" >
<polygon class="l11d1" points="64.97000000000001,-369.33000000000004 54.58000000000001,-310.24000000000007 84.72000000000001,-303.39000000000004 114.05000000000003,-293.63000000000005 142.29000000000002,-281.03000000000003 169.15000000000003,-265.7300000000001 194.38000000000005,-247.88000000000008 217.74000000000004,-227.63000000000005 239.00000000000006,-205.19000000000005 257.96000000000004,-180.78000000000003 274.44000000000005,-154.62000000000003 288.27000000000004,-126.98000000000002 299.33000000000004,-98.11000000000001 307.5100000000001,-68.30000000000001 312.7200000000001,-37.830000000000005 314.9200000000001,-6.990000000000002 315.00000000000006,0.0 375.00000000000006,0.0 373.1900000000001,-36.76000000000001 367.7900000000001,-73.16000000000001 358.85,-108.86000000000003 346.4500000000001,-143.51000000000002 330.7200000000001,-176.77000000000004 311.80000000000007,-208.34000000000003 289.88000000000005,-237.90000000000006 265.1700000000001,-265.1700000000001 237.90000000000006,-289.88000000000005 208.34000000000003,-311.80000000000007 176.77000000000004,-330.7200000000001 143.51000000000002,-346.4500000000001 108.86000000000003,-358.85 73.16000000000001,-367.7900000000001"/>
<polygon class="l11d1" points="90.96000000000002,-517.0600000000001 80.57000000000002,-457.97000000000014 90.72000000000003,-456.07000000000016 134.98000000000002,-444.98000000000013 177.95000000000005,-429.6000000000001 219.20000000000005,-410.0900000000001 258.3400000000001,-386.6300000000001 294.99000000000007,-359.45000000000005 328.80000000000007,-328.80000000000007 359.45000000000005,-294.99000000000007 386.6300000000001,-258.3400000000001 410.0900000000001,-219.20000000000005 429.6000000000001,-177.95000000000005 444.98000000000013,-134.98000000000002 456.07000000000016,-90.72000000000003 462.7600000000001,-45.580000000000005 465.0000000000001,0.0 525.0000000000001,0.0 524.8700000000001,-11.660000000000004 521.2000000000002,-63.05000000000001 512.5100000000001,-113.83000000000003 498.8900000000001,-163.52000000000004 480.46000000000015,-211.63000000000005 457.4000000000001,-257.70000000000005 429.94000000000005,-301.2900000000001 398.3400000000001,-341.99000000000007 362.9000000000001,-379.3800000000001 323.9600000000001,-413.1300000000001 281.9100000000001,-442.8900000000001 237.14000000000004,-468.3900000000001 190.09000000000003,-489.3800000000001 141.21000000000004,-505.6500000000001"/>
<polygon class="l14d0" points="99.63000000000002,-566.3000000000002 45.920000000000016,-260.99000000000007 51.70000000000001,-259.9100000000001 76.93,-253.59000000000006 101.41000000000003,-244.83000000000004 124.92000000000003,-233.71000000000006 147.23000000000005,-220.34000000000006 168.11000000000004,-204.85000000000008 187.38000000000002,-187.38000000000002 204.85000000000008,-168.11000000000004 220.34000000000006,-147.23000000000005 233.71000000000006,-124.92000000000003 244.83000000000004,-101.41000000000003 253.59000000000006,-76.93 259.9100000000001,-51.70000000000001 263.7200000000001,-25.970000000000006 265.00000000000006,0.0 575.0000000000001,0.0 574.8600000000001,-12.770000000000003 570.8400000000001,-69.05000000000003 561.3200000000002,-124.67000000000002 546.4000000000001,-179.09000000000006 526.21,-231.78000000000003 500.9600000000001,-282.25000000000006 470.8800000000001,-329.9900000000001 436.2700000000001,-374.5600000000001 397.4600000000001,-415.5100000000001 354.82000000000005,-452.47000000000014 308.7600000000001,-485.0700000000001 259.7300000000001,-513.0000000000001 208.19000000000005,-535.9900000000001 154.66000000000003,-553.8100000000002"/>
<polygon class="l85d0" points="524.873841346568,-5.145619614283829 315.1261586534321,5.145619614283829 313.35925118805864,-30.866053826026754 308.8250733708726,-61.42116615770897 301.3105136322893,-91.40440950586853 290.90131152710234,-120.5096785045937 277.6959552593094,-148.43428545907526 261.81380601720133,-174.92951791346516 243.4039346343565,-199.7483632508427 222.64485172943185,-222.64485172943185 199.7483632508427,-243.40393463435646 174.92951791346516,-261.8138060172013 148.43428545907526,-277.6959552593094 120.50967850459371,-290.90131152710234 91.40440950586853,-301.31051363228926 59.47805242315305,-309.3120668581224 53.41290891965329,-310.4496946472194 92.12709108034674,-516.8503053527808 104.40194757684695,-514.5479331418778 152.43559049413153,-502.5094863677109 200.950321495406,-485.158688472898 247.54571454092513,-463.1240447406906 291.750482086535,-436.62619398279895 333.1516367491579,-405.9160653656434 371.31514827056833,-371.31514827056833 405.9160653656434,-333.15163674915794 436.6261939827989,-291.750482086535 463.12404474069064,-247.54571454092516 485.158688472898,-200.950321495406 502.50948636771085,-152.43559049413153 515.0349266291277,-102.4588338422911 522.6007488119416,-51.47394617397326"/>
</g>
<g id="Waveguide$Coplanar$Curved$5" >
<polygon class="l11d1" points="64.97000000000001,-369.33000000000004 54.58000000000001,-310.24000000000007 84.72000000000001,-303.39000000000004 114.05000000000003,-293.63000000000005 142.29000000000002,-281.03000000000003 169.15000000000003,-265.7300000000001 194.38000000000005,-247.88000000000008 217.74000000000004,-227.63000000000005 239.00000000000006,-205.19000000000005 257.96000000000004,-180.78000000000003 274.44000000000005,-154.62000000000003 288.27000000000004,-126.98000000000002 299.33000000000004,-98.11000000000001 307.5100000000001,-68.30000000000001 312.7200000000001,-37.830000000000005 314.9200000000001,-6.990000000000002 315.00000000000006,0.0 375.00000000000006,0.0 373.1900000000001,-36.76000000000001 367.7900000000001,-73.16000000000001 358.85,-108.86000000000003 346.4500000000001,-143.51000000000002 330.7200000000001,-176.77000000000004 311.80000000000007,-208.34000000000003 289.88000000000005,-237.90000000000006 265.1700000000001,-265.1700000000001 237.90000000000006,-289.88000000000005 208.34000000000003,-311.80000000000007 176.77000000000004,-330.7200000000001 143.51000000000002,-346.4500000000001 108.86000000000003,-358.85 73.16000000000001,-367.7900000000001"/>
<polygon class="l11d1" points="90.96000000000002,-517.0600000000001 80.57000000000002,-457.97000000000014 90.72000000000003,-456.07000000000016 134.98000000000002,-444.98000000000013 177.95000000000005,-429.6000000000001 219.20000000000005,-410.0900000000001 258.3400000000001,-386.6300000000001 294.99000000000007,-359.45000000000005 328.80000000000007,-328.80000000000007 359.45000000000005,-294.99000000000007 386.6300000000001,-258.3400000000001 410.0900000000001,-219.20000000000005 429.6000000000001,-177.95000000000005 444.98000000000013,-134.98000000000002 456.07000000000016,-90.72000000000003 462.7600000000001,-45.580000000000005 465.0000000000001,0.0 525.0000000000001,0.0 524.8700000000001,-11.660000000000004 521.2000000000002,-63.05000000000001 512.5100000000001,-113.83000000000003 498.8900000000001,-163.52000000000004 480.46000000000015,-211.63000000000005 457.4000000000001,-257.70000000000005 429.94000000000005,-301.2900000000001 398.3400000000001,-341.99000000000007 362.9000000000001,-379.3800000000001 323.9600000000001,-413.1300000000001 281.9100000000001,-442.8900000000001 237.14000000000004,-468.3900000000001 190.09000000000003,-489.3800000000001 141.21000000000004,-505.6500000000001"/>
<polygon class="l14d0" points="99.63000000000002,-566.3000000000002 45.920000000000016,-260.99000000000007 51.70000000000001,-259.9100000000001 76.93,-253.59000000000006 101.41000000000003,-244.83000000000004 124.92000000000003,-233.71000000000006 147.23000000000005,-220.34000000000006 168.11000000000004,-204.85000000000008 187.38000000000002,-187.38000000000002 204.85000000000008,-168.11000000000004 220.34000000000006,-147.23000000000005 233.71000000000006,-124.92000000000003 244.83000000000004,-101.41000000000003 253.59000000000006,-76.93 259.9100000000001,-51.70000000000001 263.7200000000001,-25.970000000000006 265.00000000000006,0.0 575.0000000000001,0.0 574.8600000000001,-12.770000000000003 570.8400000000001,-69.05000000000003 561.3200000000002,-124.67000000000002 546.4000000000001,-179.09000000000006 526.21,-231.78000000000003 500.9600000000001,-282.25000000000006 470.8800000000001,-329.9900000000001 436.2700000000001,-374.5600000000001 397.4600000000001,-415.5100000000001 354.82000000000005,-452.47000000000014 308.7600000000001,-485.0700000000001 259.7300000000001,-513.0000000000001 208.19000000000005,-535.9900000000001 154.66000000000003,-553.8100000000002"/>
<polygon class="l85d0" points="524.873841346568,-5.145619614283829 315.1261586534321,5.145619614283829 313.35925118805864,-30.866053826026754 308.8250733708726,-61.42116615770897 301.3105136322893,-91.40440950586853 290.90131152710234,-120.5096785045937 277.6959552593094,-148.43428545907526 261.81380601720133,-174.92951791346516 243.4039346343565,-199.7483632508427 222.64485172943185,-222.64485172943185 199.7483632508427,-243.40393463435646 174.92951791346516,-261.8138060172013 148.43428545907526,-277.6959552593094 120.50967850459371,-290.90131152710234 91.40440950586853,-301.31051363228926 59.47805242315305,-309.3120668581224 53.41290891965329,-310.4496946472194 92.12709108034674,-516.8503053527808 104.40194757684695,-514.5479331418778 152.43559049413153,-502.5094863677109 200.950321495406,-485.158688472898 247.54571454092513,-463.1240447406906 291.750482086535,-436.62619398279895 333.1516367491579,-405.9160653656434 371.31514827056833,-371.31514827056833 405.9160653656434,-333.15163674915794 436.6261939827989,-291.750482086535 463.12404474069064,-247.54571454092516 485.158688472898,-200.950321495406 502.50948636771085,-152.43559049413153 515.0349266291277,-102.4588338422911 522.6007488119416,-51.47394617397326"/>
</g>
<g id="Waveguide$Coplanar$Curved$4" >
<polygon class="l11d1" points="105.00000000000001,-360.00000000000006 88.20000000000002,-302.40000000000003 117.42000000000003,-292.30000000000007 145.50000000000006,-279.38000000000005 172.18000000000004,-263.7800000000001 197.21000000000004,-245.63000000000005 220.34000000000006,-225.12000000000003 241.3400000000001,-202.44000000000003 260.02000000000004,-177.80000000000004 276.2000000000001,-151.46000000000004 289.7100000000001,-123.66000000000003 300.44000000000005,-94.67000000000002 308.2700000000001,-64.76000000000002 313.13000000000005,-34.24000000000001 314.9800000000001,-3.380000000000001 315.00000000000006,0.0 375.00000000000006,0.0 373.1900000000001,-36.76000000000001 367.7900000000001,-73.16000000000001 358.85,-108.86000000000003 346.4500000000001,-143.51000000000002 330.7200000000001,-176.77000000000004 311.80000000000007,-208.34000000000003 289.88000000000005,-237.90000000000006 265.1700000000001,-265.1700000000001 237.90000000000006,-289.88000000000005 208.34000000000003,-311.80000000000007 176.77000000000004,-330.7200000000001 143.51000000000002,-346.4500000000001 108.86000000000003,-358.85"/>
<polygon class="l11d1" points="147.00000000000003,-504.0000000000001 130.20000000000005,-446.4000000000001 134.98000000000002,-444.98000000000013 177.95000000000005,-429.6000000000001 219.20000000000005,-410.0900000000001 258.3400000000001,-386.6300000000001 294.99000000000007,-359.45000000000005 328.80000000000007,-328.80000000000007 359.45000000000005,-294.99000000000007 386.6300000000001,-258.3400000000001 410.0900000000001,-219.20000000000005 429.6000000000001,-177.95000000000005 444.98000000000013,-134.98000000000002 456.07000000000016,-90.72000000000003 462.7600000000001,-45.580000000000005 465.0000000000001,0.0 525.0000000000001,0.0 524.9700000000001,-5.630000000000002 521.8900000000001,-57.06000000000002 513.7800000000002,-107.94000000000003 500.73000000000013,-157.78000000000003 482.85000000000014,-206.10000000000008 460.3300000000001,-252.44000000000005 433.3700000000001,-296.3400000000001 402.2300000000001,-337.3900000000001 367.2300000000001,-375.19000000000005 328.68000000000006,-409.3800000000001 286.9700000000001,-439.6300000000001 242.50000000000006,-465.64000000000016 195.69000000000005,-487.1600000000001"/>
<polygon class="l14d0" points="161.00000000000006,-552.0000000000001 74.20000000000002,-254.40000000000003 76.93,-253.59000000000006 101.41000000000003,-244.83000000000004 124.92000000000003,-233.71000000000006 147.23000000000005,-220.34000000000006 168.11000000000004,-204.85000000000008 187.38000000000002,-187.38000000000002 204.85000000000008,-168.11000000000004 220.34000000000006,-147.23000000000005 233.71000000000006,-124.92000000000003 244.83000000000004,-101.41000000000003 253.59000000000006,-76.93 259.9100000000001,-51.70000000000001 263.7200000000001,-25.970000000000006 265.00000000000006,0.0 575.0000000000001,0.0 574.9700000000001,-6.170000000000001 571.5900000000001,-62.500000000000014 562.7200000000001,-118.22000000000003 548.4200000000001,-172.81000000000003 528.8400000000001,-225.73000000000005 504.1700000000001,-276.4800000000001 474.6400000000001,-324.5600000000001 440.5400000000001,-369.52000000000004 402.20000000000016,-410.9300000000001 359.9900000000001,-448.3700000000001 314.30000000000007,-481.5000000000001 265.6000000000001,-509.98000000000013 214.33000000000004,-533.5600000000002"/>
<polygon class="l85d0" points="524.873841346568,-5.145619614283829 315.1261586534321,5.145619614283829 313.35925118805864,-30.866053826026754 308.8250733708726,-61.42116615770897 301.3105136322893,-91.40440950586853 290.90131152710234,-120.5096785045937 277.6959552593094,-148.43428545907526 261.81380601720133,-174.92951791346516 243.4039346343565,-199.7483632508427 222.64485172943185,-222.64485172943185 199.7483632508427,-243.40393463435646 174.92951791346516,-261.8138060172013 148.43428545907526,-277.6959552593094 120.50967850459371,-290.90131152710234 89.195681515737,-302.1004426326249 87.55669497028217,-302.5898622260593 147.6433050297179,-503.8101377739408 154.64431848426307,-501.7195573673753 200.950321495406,-485.158688472898 247.54571454092513,-463.1240447406906 291.750482086535,-436.62619398279895 333.1516367491579,-405.9160653656434 371.31514827056833,-371.31514827056833 405.9160653656434,-333.15163674915794 436.6261939827989,-291.750482086535 463.12404474069064,-247.54571454092516 485.158688472898,-200.950321495406 502.50948636771085,-152.43559049413153 515.0349266291277,-102.4588338422911 522.6007488119416,-51.47394617397326"/>
</g>
<g id="Airbridge" >
<polygon class="l14d0" points="-170.00000000000003,230.00000000000006 -170.00000000000003,510.0000000000001 170.00000000000003,510.0000000000001 170.00000000000003,230.00000000000006"/>
<polygon class="l14d0" points="-170.00000000000003,-510.0000000000001 -170.00000000000003,-230.00000000000006 170.00000000000003,-230.00000000000006 170.00000000000003,-510.0000000000001"/>
<polygon class="l28d3" points="-120.00000000000003,280.00000000000006 -120.00000000000003,460.0000000000001 120.00000000000003,460.0000000000001 120.00000000000003,280.00000000000006"/>
<polygon class="l28d3" points="-120.00000000000003,-460.0000000000001 -120.00000000000003,-280.00000000000006 120.00000000000003,-280.00000000000006 120.00000000000003,-460.0000000000001"/>
<polygon class="l29d3" points="-100.00000000000001,-440.00000000000006 -100.00000000000001,440.00000000000006 100.00000000000001,440.00000000000006 100.00000000000001,-440.00000000000006"/>
<text class="l85t0" text-anchor="middle" dominant-baseline="central" transform="scale(1 -1) translate(0.0 -0.0)">base</text>
<text class="l85t0" text-anchor="middle" dominant-baseline="central" transform="scale(1 -1) translate(0.0 -300.00000000000006)">port_a</text>
<text class="l85t0" text-anchor="middle" dominant-baseline="central" transform="scale(1 -1) translate(0.0 300.00000000000006)">port_b</text>
</g>
<g id="Waveguide$Coplanar$Curved$3" >
<polygon class="l11d1" points="105.00000000000001,-360.00000000000006 88.20000000000002,-302.40000000000003 117.42000000000003,-292.30000000000007 145.50000000000006,-279.38000000000005 172.18000000000004,-263.7800000000001 197.21000000000004,-245.63000000000005 220.34000000000006,-225.12000000000003 241.3400000000001,-202.44000000000003 260.02000000000004,-177.80000000000004 276.2000000000001,-151.46000000000004 289.7100000000001,-123.66000000000003 300.44000000000005,-94.67000000000002 308.2700000000001,-64.76000000000002 313.13000000000005,-34.24000000000001 314.9800000000001,-3.380000000000001 315.00000000000006,0.0 375.00000000000006,0.0 373.1900000000001,-36.76000000000001 367.7900000000001,-73.16000000000001 358.85,-108.86000000000003 346.4500000000001,-143.51000000000002 330.7200000000001,-176.77000000000004 311.80000000000007,-208.34000000000003 289.88000000000005,-237.90000000000006 265.1700000000001,-265.1700000000001 237.90000000000006,-289.88000000000005 208.34000000000003,-311.80000000000007 176.77000000000004,-330.7200000000001 143.51000000000002,-346.4500000000001 108.86000000000003,-358.85"/>
<polygon class="l11d1" points="147.00000000000003,-504.0000000000001 130.20000000000005,-446.4000000000001 134.98000000000002,-444.98000000000013 177.95000000000005,-429.6000000000001 219.20000000000005,-410.0900000000001 258.3400000000001,-386.6300000000001 294.99000000000007,-359.45000000000005 328.80000000000007,-328.80000000000007 359.45000000000005,-294.99000000000007 386.6300000000001,-258.3400000000001 410.0900000000001,-219.20000000000005 429.6000000000001,-177.95000000000005 444.98000000000013,-134.98000000000002 456.07000000000016,-90.72000000000003 462.7600000000001,-45.580000000000005 465.0000000000001,0.0 525.0000000000001,0.0 524.9700000000001,-5.630000000000002 521.8900000000001,-57.06000000000002 513.7800000000002,-107.94000000000003 500.73000000000013,-157.78000000000003 482.85000000000014,-206.10000000000008 460.3300000000001,-252.44000000000005 433.3700000000001,-296.3400000000001 402.2300000000001,-337.3900000000001 367.2300000000001,-375.19000000000005 328.68000000000006,-409.3800000000001 286.9700000000001,-439.6300000000001 242.50000000000006,-465.64000000000016 195.69000000000005,-487.1600000000001"/>
<polygon class="l14d0" points="161.00000000000006,-552.0000000000001 74.20000000000002,-254.40000000000003 76.93,-253.59000000000006 101.41000000000003,-244.83000000000004 124.92000000000003,-233.71000000000006 147.23000000000005,-220.34000000000006 168.11000000000004,-204.85000000000008 187.38000000000002,-187.38000000000002 204.85000000000008,-168.11000000000004 220.34000000000006,-147.23000000000005 233.71000000000006,-124.92000000000003 244.83000000000004,-101.41000000000003 253.59000000000006,-76.93 259.9100000000001,-51.70000000000001 263.7200000000001,-25.970000000000006 265.00000000000006,0.0 575.0000000000001,0.0 574.9700000000001,-6.170000000000001 571.5900000000001,-62.500000000000014 562.7200000000001,-118.22000000000003 548.4200000000001,-172.81000000000003 528.8400000000001,-225.73000000000005 504.1700000000001,-276.4800000000001 474.6400000000001,-324.5600000000001 440.5400000000001,-369.52000000000004 402.20000000000016,-410.9300000000001 359.9900000000001,-448.3700000000001 314.30000000000007,-481.5000000000001 265.6000000000001,-509.98000000000013 214.33000000000004,-533.5600000000002"/>
<polygon class="l85d0" points="524.873841346568,-5.145619614283829 315.1261586534321,5.145619614283829 313.35925118805864,-30.866053826026754 308.8250733708726,-61.42116615770897 301.3105136322893,-91.40440950586853 290.90131152710234,-120.5096785045937 277.6959552593094,-148.43428545907526 261.81380601720133,-174.92951791346516 243.4039346343565,-199.7483632508427 222.64485172943185,-222.64485172943185 199.7483632508427,-243.40393463435646 174.92951791346516,-261.8138060172013 148.43428545907526,-277.6959552593094 120.50967850459371,-290.90131152710234 89.195681515737,-302.1004426326249 87.55669497028217,-302.5898622260593 147.6433050297179,-503.8101377739408 154.64431848426307,-501.7195573673753 200.950321495406,-485.158688472898 247.54571454092513,-463.1240447406906 291.750482086535,-436.62619398279895 333.1516367491579,-405.9160653656434 371.31514827056833,-371.31514827056833 405.9160653656434,-333.15163674915794 436.6261939827989,-291.750482086535 463.12404474069064,-247.54571454092516 485.158688472898,-200.950321495406 502.50948636771085,-152.43559049413153 515.0349266291277,-102.4588338422911 522.6007488119416,-51.47394617397326"/>
</g>
<g id="Waveguide$Coplanar$Straight$4" >
<polygon class="l11d1" points="0.0,45.00000000000001 0.0,105.00000000000001 480.0000000000001,105.00000000000001 480.0000000000001,45.00000000000001"/>
<polygon class="l11d1" points="0.0,-105.00000000000001 0.0,-45.00000000000001 480.0000000000001,-45.00000000000001 480.0000000000001,-105.00000000000001"/>
<polygon class="l14d0" points="0.0,-155.00000000000003 0.0,155.00000000000003 480.0000000000001,155.00000000000003 480.0000000000001,-155.00000000000003"/>
<polygon class="l85d0" points="0.0,-105.00000000000001 0.0,105.00000000000001 480.0000000000001,105.00000000000001 480.0000000000001,-105.00000000000001"/>
</g>
<g id="Waveguide$Coplanar$Bridged$3" >
<use transform="translate(0.0 0.0)" xlink:href="#Waveguide$Coplanar$3"/>
</g>
<g id="Waveguide$Coplanar$Straight$2" >
<polygon class="l11d1" points="0.0,45.00000000000001 0.0,105.00000000000001 758.4100000000002,105.00000000000001 758.4100000000002,45.00000000000001"/>
<polygon class="l11d1" points="0.0,-105.00000000000001 0.0,-45.00000000000001 758.4100000000002,-45.00000000000001 758.4100000000002,-105.00000000000001"/>
<polygon class="l14d0" points="0.0,-155.00000000000003 0.0,155.00000000000003 758.4100000000002,155.00000000000003 758.4100000000002,-155.00000000000003"/>
<polygon class="l85d0" points="0.0,-105.00000000000001 0.0,105.00000000000001 758.4100000000002,105.00000000000001 758.4100000000002,-105.00000000000001"/>
</g>
<g id="Waveguide$Coplanar$Bridged$2" >
<use transform="translate(1800.0000000000005 225.00000000000006) rotate(216.86989764584402) scale(1.0)" xlink:href="#Airbridge"/>
<use transform="translate(0.0 0.0)" xlink:href="#Waveguide$Coplanar$2"/>
</g>
<g id="Waveguide$Coplanar$Straight" >
<polygon class="l11d1" points="0.0,45.00000000000001 0.0,105.00000000000001 1800.0000000000005,105.00000000000001 1800.0000000000005,45.00000000000001"/>
<polygon class="l11d1" points="0.0,-105.00000000000001 0.0,-45.00000000000001 1800.0000000000005,-45.00000000000001 1800.0000000000005,-105.00000000000001"/>
<polygon class="l14d0" points="0.0,-155.00000000000003 0.0,155.00000000000003 1800.0000000000005,155.00000000000003 1800.0000000000005,-155.00000000000003"/>
<polygon class="l85d0" points="0.0,-105.00000000000001 0.0,105.00000000000001 1800.0000000000005,105.00000000000001 1800.0000000000005,-105.00000000000001"/>
</g>
<g id="Waveguide$Coplanar$Bridged$1" >
<use transform="translate(0.0 0.0)" xlink:href="#Waveguide$Coplanar$1"/>
</g>
<g id="Waveguide$Coplanar$Straight$11" >
<polygon class="l11d1" points="0.0,45.00000000000001 0.0,105.00000000000001 187.44000000000003,105.00000000000001 187.44000000000003,45.00000000000001"/>
<polygon class="l11d1" points="0.0,-105.00000000000001 0.0,-45.00000000000001 187.44000000000003,-45.00000000000001 187.44000000000003,-105.00000000000001"/>
<polygon class="l14d0" points="0.0,-155.00000000000003 0.0,155.00000000000003 187.44000000000003,155.00000000000003 187.44000000000003,-155.00000000000003"/>
<polygon class="l85d0" points="0.0,-105.00000000000001 0.0,105.00000000000001 187.44000000000003,105.00000000000001 187.44000000000003,-105.00000000000001"/>
</g>
<g id="Waveguide$Coplanar$Straight$9" >
<polygon class="l11d1" points="0.0,45.00000000000001 0.0,105.00000000000001 305.3900000000001,105.00000000000001 305.3900000000001,45.00000000000001"/>
<polygon class="l11d1" points="0.0,-105.00000000000001 0.0,-45.00000000000001 305.3900000000001,-45.00000000000001 305.3900000000001,-105.00000000000001"/>
<polygon class="l14d0" points="0.0,-155.00000000000003 0.0,155.00000000000003 305.3900000000001,155.00000000000003 305.3900000000001,-155.00000000000003"/>
<polygon class="l85d0" points="0.0,-105.00000000000001 0.0,105.00000000000001 305.3900000000001,105.00000000000001 305.3900000000001,-105.00000000000001"/>
</g>
<g id="Waveguide$Coplanar$Bridged" >
<use transform="translate(0.0 0.0)" xlink:href="#Waveguide$Coplanar"/>
</g>
<g id="Waveguide$Coplanar$Straight$7" >
<polygon class="l11d1" points="0.0,45.00000000000001 0.0,105.00000000000001 225.00000000000006,105.00000000000001 225.00000000000006,45.00000000000001"/>
<polygon class="l11d1" points="0.0,-105.00000000000001 0.0,-45.00000000000001 225.00000000000006,-45.00000000000001 225.00000000000006,-105.00000000000001"/>
<polygon class="l14d0" points="0.0,-155.00000000000003 0.0,155.00000000000003 225.00000000000006,155.00000000000003 225.00000000000006,-155.00000000000003"/>
<polygon class="l85d0" points="0.0,-105.00000000000001 0.0,105.00000000000001 225.00000000000006,105.00000000000001 225.00000000000006,-105.00000000000001"/>
</g>
<g id="Waveguide$Coplanar$Straight$5" >
<polygon class="l11d1" points="0.0,45.00000000000001 0.0,105.00000000000001 225.00000000000006,105.00000000000001 225.00000000000006,45.00000000000001"/>
<polygon class="l11d1" points="0.0,-105.00000000000001 0.0,-45.00000000000001 225.00000000000006,-45.00000000000001 225.00000000000006,-105.00000000000001"/>
<polygon class="l14d0" points="0.0,-155.00000000000003 0.0,155.00000000000003 225.00000000000006,155.00000000000003 225.00000000000006,-155.00000000000003"/>
<polygon class="l85d0" points="0.0,-105.00000000000001 0.0,105.00000000000001 225.00000000000006,105.00000000000001 225.00000000000006,-105.00000000000001"/>
</g>
<g id="Waveguide$Coplanar$Curved$1" >
<polygon class="l11d1" points="225.00000000000006,-300.00000000000006 189.00000000000006,-252.00000000000006 212.79000000000002,-232.26000000000005 234.53000000000006,-210.29000000000002 254.01000000000008,-186.29000000000005 271.05000000000007,-160.49000000000004 285.4800000000001,-133.15000000000003 297.1500000000001,-104.53000000000003 305.9700000000001,-74.90000000000002 311.83000000000004,-44.55000000000001 314.70000000000005,-13.770000000000003 315.00000000000006,0.0 375.00000000000006,0.0 373.1900000000001,-36.76000000000001 367.7900000000001,-73.16000000000001 358.85,-108.86000000000003 346.4500000000001,-143.51000000000002 330.7200000000001,-176.77000000000004 311.80000000000007,-208.34000000000003 289.88000000000005,-237.90000000000006 265.1700000000001,-265.1700000000001 237.90000000000006,-289.88000000000005"/>
<polygon class="l11d1" points="315.00000000000006,-420.00000000000006 279.00000000000006,-372.0000000000001 294.99000000000007,-359.45000000000005 328.80000000000007,-328.80000000000007 359.45000000000005,-294.99000000000007 386.6300000000001,-258.3400000000001 410.0900000000001,-219.20000000000005 429.6000000000001,-177.95000000000005 444.98000000000013,-134.98000000000002 456.07000000000016,-90.72000000000003 462.7600000000001,-45.580000000000005 465.0000000000001,0.0 525.0000000000001,0.0 524.5000000000001,-22.950000000000003 519.7200000000001,-74.25000000000001 509.94000000000017,-124.83000000000003 495.2500000000001,-174.21000000000004 475.79000000000013,-221.92000000000004 451.7500000000001,-267.48 423.3600000000001,-310.4800000000001 390.89000000000004,-350.4800000000001 354.6500000000001,-387.1000000000001"/>
<polygon class="l14d0" points="345.00000000000006,-460.0000000000001 159.00000000000003,-212.00000000000006 168.11000000000004,-204.85000000000008 187.38000000000002,-187.38000000000002 204.85000000000008,-168.11000000000004 220.34000000000006,-147.23000000000005 233.71000000000006,-124.92000000000003 244.83000000000004,-101.41000000000003 253.59000000000006,-76.93 259.9100000000001,-51.70000000000001 263.7200000000001,-25.970000000000006 265.00000000000006,0.0 575.0000000000001,0.0 574.4500000000002,-25.13000000000001 569.2200000000001,-81.32000000000002 558.5100000000001,-136.72000000000003 542.4200000000001,-190.80000000000007 521.1100000000001,-243.05000000000007 494.7700000000001,-292.96000000000004 463.68000000000006,-340.0400000000001 428.11000000000007,-383.8600000000001 388.4300000000001,-423.97000000000014"/>
<polygon class="l85d0" points="524.873841346568,-5.145619614283829 315.1261586534321,5.145619614283829 313.35925118805864,-30.866053826026754 308.8250733708726,-61.42116615770897 301.3105136322893,-91.40440950586853 290.90131152710234,-120.5096785045937 277.6959552593094,-148.43428545907526 261.81380601720133,-174.92951791346516 243.4039346343565,-199.7483632508427 222.64485172943185,-222.64485172943185 198.68949178596284,-244.36395959825666 187.1767147519802,-253.3989001910154 316.82328524801994,-418.60109980898477 334.2105082140376,-404.95604040174334 371.31514827056833,-371.31514827056833 405.9160653656434,-333.15163674915794 436.6261939827989,-291.750482086535 463.12404474069064,-247.54571454092516 485.158688472898,-200.950321495406 502.50948636771085,-152.43559049413153 515.0349266291277,-102.4588338422911 522.6007488119416,-51.47394617397326"/>
</g>
<g id="Waveguide$Coplanar$Curved" >
<polygon class="l11d1" points="51.20000000000001,-371.49000000000007 43.01000000000001,-312.05000000000007 73.39000000000001,-306.33000000000004 103.06000000000003,-297.6600000000001 131.74000000000004,-286.13000000000005 159.15000000000003,-271.8400000000001 185.03000000000003,-254.93000000000006 209.12000000000006,-235.57000000000005 231.21000000000006,-213.93000000000004 251.06000000000006,-190.24000000000004 268.50000000000006,-164.72000000000006 283.3500000000001,-137.61 295.4800000000001,-109.17000000000003 304.7500000000001,-79.68000000000002 311.1000000000001,-49.430000000000014 314.44000000000005,-18.700000000000006 315.00000000000006,0.0 375.00000000000006,0.0 373.1900000000001,-36.76000000000001 367.7900000000001,-73.16000000000001 358.85,-108.86000000000003 346.4500000000001,-143.51000000000002 330.7200000000001,-176.77000000000004 311.80000000000007,-208.34000000000003 289.88000000000005,-237.90000000000006 265.1700000000001,-265.1700000000001 237.90000000000006,-289.88000000000005 208.34000000000003,-311.80000000000007 176.77000000000004,-330.7200000000001 143.51000000000002,-346.4500000000001 108.86000000000003,-358.85 73.16000000000001,-367.7900000000001"/>
<polygon class="l11d1" points="71.68000000000002,-520.0800000000002 63.49000000000001,-460.6500000000001 90.72000000000003,-456.07000000000016 134.98000000000002,-444.98000000000013 177.95000000000005,-429.6000000000001 219.20000000000005,-410.0900000000001 258.3400000000001,-386.6300000000001 294.99000000000007,-359.45000000000005 328.80000000000007,-328.80000000000007 359.45000000000005,-294.99000000000007 386.6300000000001,-258.3400000000001 410.0900000000001,-219.20000000000005 429.6000000000001,-177.95000000000005 444.98000000000013,-134.98000000000002 456.07000000000016,-90.72000000000003 462.7600000000001,-45.580000000000005 465.0000000000001,0.0 525.0000000000001,0.0 524.0700000000002,-31.160000000000004 518.5000000000001,-82.38000000000001 507.9200000000001,-132.81000000000003 492.4600000000001,-181.95000000000005 472.2600000000001,-229.34000000000003 447.50000000000006,-274.5300000000001 418.44000000000005,-317.07000000000005 385.35000000000014,-356.56000000000006 348.5400000000001,-392.6100000000001 308.3800000000001,-424.88000000000005 265.25000000000006,-453.0600000000001 219.56000000000006,-476.8800000000001 171.76000000000005,-496.1100000000001 122.31000000000003,-510.5500000000001"/>
<polygon class="l14d0" points="78.50000000000003,-569.6200000000001 36.18000000000001,-262.52000000000004 51.70000000000001,-259.9100000000001 76.93,-253.59000000000006 101.41000000000003,-244.83000000000004 124.92000000000003,-233.71000000000006 147.23000000000005,-220.34000000000006 168.11000000000004,-204.85000000000008 187.38000000000002,-187.38000000000002 204.85000000000008,-168.11000000000004 220.34000000000006,-147.23000000000005 233.71000000000006,-124.92000000000003 244.83000000000004,-101.41000000000003 253.59000000000006,-76.93 259.9100000000001,-51.70000000000001 263.7200000000001,-25.970000000000006 265.00000000000006,0.0 575.0000000000001,0.0 573.9900000000001,-34.13000000000001 567.8800000000001,-90.23000000000002 556.3000000000002,-145.45000000000005 539.3600000000001,-199.28000000000003 517.2300000000001,-251.19000000000005 490.1200000000001,-300.68000000000006 458.2900000000001,-347.2700000000001 422.0500000000001,-390.5200000000001 381.74000000000007,-430.00000000000006 337.75000000000006,-465.35000000000014 290.51000000000005,-496.2100000000001 240.48000000000005,-522.3000000000001 188.12000000000006,-543.3600000000001 133.96000000000004,-559.1800000000002"/>
<polygon class="l85d0" points="524.873841346568,-5.145619614283829 315.1261586534321,5.145619614283829 313.35925118805864,-30.866053826026754 308.8250733708726,-61.42116615770897 301.3105136322893,-91.40440950586853 290.90131152710234,-120.5096785045937 277.6959552593094,-148.43428545907526 261.81380601720133,-174.92951791346516 243.4039346343565,-199.7483632508427 222.64485172943185,-222.64485172943185 199.7483632508427,-243.40393463435646 174.92951791346516,-261.8138060172013 148.43428545907526,-277.6959552593094 120.50967850459371,-290.90131152710234 91.40440950586853,-301.31051363228926 60.43066402918483,-309.0733182765207 39.91431419166706,-312.52606983454194 74.76568580833298,-519.6139301654582 103.44933597081521,-514.7866817234795 152.43559049413153,-502.5094863677109 200.950321495406,-485.158688472898 247.54571454092513,-463.1240447406906 291.750482086535,-436.62619398279895 333.1516367491579,-405.9160653656434 371.31514827056833,-371.31514827056833 405.9160653656434,-333.15163674915794 436.6261939827989,-291.750482086535 463.12404474069064,-247.54571454092516 485.158688472898,-200.950321495406 502.50948636771085,-152.43559049413153 515.0349266291277,-102.4588338422911 522.6007488119416,-51.47394617397326"/>
</g>
<g id="Waveguide$Coplanar$3" >
<polygon class="l14d0" points="3586.010000000001,336.9200000000001 3373.9900000000007,563.0800000000002 3410.4700000000007,597.2800000000002 3622.4900000000007,371.1200000000001"/>
<polygon class="l14d0" points="3410.4700000000007,1202.7200000000003 3373.9900000000007,1236.9200000000003 3586.010000000001,1463.0800000000002 3622.4900000000007,1428.8800000000003"/>
<use transform="translate(3480.0000000000005 450.0000000000001) rotate(223.1523897340054) scale(1.0)" xlink:href="#Waveguide$Coplanar$Straight$9"/>
<use transform="translate(2969.9500000000007 547.5400000000001) rotate(313.1523897340054) scale(1.0)" xlink:href="#Waveguide$Coplanar$Curved$5"/>
<use transform="translate(2717.9500000000007 211.54000000000002) rotate(143.13010235415598) scale(1.0)" xlink:href="#Waveguide$Coplanar$Straight$10"/>
<use transform="translate(2820.0000000000005 660.0000000000001) rotate(233.13010235415598) scale(1.0)" xlink:href="#Waveguide$Coplanar$Curved$1"/>
<use transform="translate(2400.0000000000005 660.0000000000001) rotate(90.0)" xlink:href="#Waveguide$Coplanar$Straight$4"/>
<use transform="translate(2820.0000000000005 1140.0000000000002) rotate(180.0)" xlink:href="#Waveguide$Coplanar$Curved$2"/>
<use transform="translate(2568.000000000001 1476.0000000000002) rotate(36.86989764584401) scale(1.0)" xlink:href="#Waveguide$Coplanar$Straight$11"/>
<use transform="translate(2969.9500000000007 1252.4600000000003) rotate(126.86989764584402) scale(1.0)" xlink:href="#Waveguide$Coplanar$Curved$6"/>
<use transform="translate(3257.2100000000005 1558.8700000000003) rotate(316.8476102659947) scale(1.0)" xlink:href="#Waveguide$Coplanar$Straight$12"/>
</g>
<g id="Waveguide$Coplanar$1" >
<polygon class="l14d0" points="569.19,-135.20000000000005 538.2500000000001,-95.93000000000002 781.7500000000002,95.93000000000002 812.6900000000002,56.650000000000006"/>
<polygon class="l14d0" points="771.6500000000002,1692.4900000000005 548.3500000000001,1907.5100000000002 583.0300000000001,1943.5300000000004 806.3300000000003,1728.5000000000005"/>
<use transform="translate(660.0000000000001 0.0) rotate(128.23382517744693) scale(1.0)" xlink:href="#Waveguide$Coplanar$Straight$1"/>
<use transform="translate(436.47000000000014 962.3700000000002) rotate(218.23382517744693) scale(1.0)" xlink:href="#Waveguide$Coplanar$Curved"/>
<use transform="translate(133.93000000000004 1253.7000000000003) rotate(46.080924186660695) scale(1.0)" xlink:href="#Waveguide$Coplanar$Straight$2"/>
</g>
<g id="Waveguide$Coplanar$Straight$10" >
<polygon class="l11d1" points="0.0,45.00000000000001 0.0,105.00000000000001 187.44000000000003,105.00000000000001 187.44000000000003,45.00000000000001"/>
<polygon class="l11d1" points="0.0,-105.00000000000001 0.0,-45.00000000000001 187.44000000000003,-45.00000000000001 187.44000000000003,-105.00000000000001"/>
<polygon class="l14d0" points="0.0,-155.00000000000003 0.0,155.00000000000003 187.44000000000003,155.00000000000003 187.44000000000003,-155.00000000000003"/>
<polygon class="l85d0" points="0.0,-105.00000000000001 0.0,105.00000000000001 187.44000000000003,105.00000000000001 187.44000000000003,-105.00000000000001"/>
</g>
<g id="Waveguide$Coplanar$Straight$8" >
<polygon class="l11d1" points="0.0,45.00000000000001 0.0,105.00000000000001 60.000000000000014,105.00000000000001 60.000000000000014,45.00000000000001"/>
<polygon class="l11d1" points="0.0,-105.00000000000001 0.0,-45.00000000000001 60.000000000000014,-45.00000000000001 60.000000000000014,-105.00000000000001"/>
<polygon class="l14d0" points="0.0,-155.00000000000003 0.0,155.00000000000003 60.000000000000014,155.00000000000003 60.000000000000014,-155.00000000000003"/>
<polygon class="l85d0" points="0.0,-105.00000000000001 0.0,105.00000000000001 60.000000000000014,105.00000000000001 60.000000000000014,-105.00000000000001"/>
</g>
<g id="Waveguide$Coplanar$Straight$12" >
<polygon class="l11d1" points="0.0,45.00000000000001 0.0,105.00000000000001 305.3900000000001,105.00000000000001 305.3900000000001,45.00000000000001"/>
<polygon class="l11d1" points="0.0,-105.00000000000001 0.0,-45.00000000000001 305.3900000000001,-45.00000000000001 305.3900000000001,-105.00000000000001"/>
<polygon class="l14d0" points="0.0,-155.00000000000003 0.0,155.00000000000003 305.3900000000001,155.00000000000003 305.3900000000001,-155.00000000000003"/>
<polygon class="l85d0" points="0.0,-105.00000000000001 0.0,105.00000000000001 305.3900000000001,105.00000000000001 305.3900000000001,-105.00000000000001"/>
</g>
<g id="Waveguide$Coplanar$Straight$6" >
<polygon class="l11d1" points="0.0,45.00000000000001 0.0,105.00000000000001 225.00000000000006,105.00000000000001 225.00000000000006,45.00000000000001"/>
<polygon class="l11d1" points="0.0,-105.00000000000001 0.0,-45.00000000000001 225.00000000000006,-45.00000000000001 225.00000000000006,-105.00000000000001"/>
<polygon class="l14d0" points="0.0,-155.00000000000003 0.0,155.00000000000003 225.00000000000006,155.00000000000003 225.00000000000006,-155.00000000000003"/>
<polygon class="l85d0" points="0.0,-105.00000000000001 0.0,105.00000000000001 225.00000000000006,105.00000000000001 225.00000000000006,-105.00000000000001"/>
</g>
<g id="Waveguide$Coplanar$Curved$2" >
<polygon class="l11d1" points="225.00000000000006,-300.00000000000006 189.00000000000006,-252.00000000000006 212.79000000000002,-232.26000000000005 234.53000000000006,-210.29000000000002 254.01000000000008,-186.29000000000005 271.05000000000007,-160.49000000000004 285.4800000000001,-133.15000000000003 297.1500000000001,-104.53000000000003 305.9700000000001,-74.90000000000002 311.83000000000004,-44.55000000000001 314.70000000000005,-13.770000000000003 315.00000000000006,0.0 375.00000000000006,0.0 373.1900000000001,-36.76000000000001 367.7900000000001,-73.16000000000001 358.85,-108.86000000000003 346.4500000000001,-143.51000000000002 330.7200000000001,-176.77000000000004 311.80000000000007,-208.34000000000003 289.88000000000005,-237.90000000000006 265.1700000000001,-265.1700000000001 237.90000000000006,-289.88000000000005"/>
<polygon class="l11d1" points="315.00000000000006,-420.00000000000006 279.00000000000006,-372.0000000000001 294.99000000000007,-359.45000000000005 328.80000000000007,-328.80000000000007 359.45000000000005,-294.99000000000007 386.6300000000001,-258.3400000000001 410.0900000000001,-219.20000000000005 429.6000000000001,-177.95000000000005 444.98000000000013,-134.98000000000002 456.07000000000016,-90.72000000000003 462.7600000000001,-45.580000000000005 465.0000000000001,0.0 525.0000000000001,0.0 524.5000000000001,-22.950000000000003 519.7200000000001,-74.25000000000001 509.94000000000017,-124.83000000000003 495.2500000000001,-174.21000000000004 475.79000000000013,-221.92000000000004 451.7500000000001,-267.48 423.3600000000001,-310.4800000000001 390.89000000000004,-350.4800000000001 354.6500000000001,-387.1000000000001"/>
<polygon class="l14d0" points="345.00000000000006,-460.0000000000001 159.00000000000003,-212.00000000000006 168.11000000000004,-204.85000000000008 187.38000000000002,-187.38000000000002 204.85000000000008,-168.11000000000004 220.34000000000006,-147.23000000000005 233.71000000000006,-124.92000000000003 244.83000000000004,-101.41000000000003 253.59000000000006,-76.93 259.9100000000001,-51.70000000000001 263.7200000000001,-25.970000000000006 265.00000000000006,0.0 575.0000000000001,0.0 574.4500000000002,-25.13000000000001 569.2200000000001,-81.32000000000002 558.5100000000001,-136.72000000000003 542.4200000000001,-190.80000000000007 521.1100000000001,-243.05000000000007 494.7700000000001,-292.96000000000004 463.68000000000006,-340.0400000000001 428.11000000000007,-383.8600000000001 388.4300000000001,-423.97000000000014"/>
<polygon class="l85d0" points="524.873841346568,-5.145619614283829 315.1261586534321,5.145619614283829 313.35925118805864,-30.866053826026754 308.8250733708726,-61.42116615770897 301.3105136322893,-91.40440950586853 290.90131152710234,-120.5096785045937 277.6959552593094,-148.43428545907526 261.81380601720133,-174.92951791346516 243.4039346343565,-199.7483632508427 222.64485172943185,-222.64485172943185 198.68949178596284,-244.36395959825666 187.1767147519802,-253.3989001910154 316.82328524801994,-418.60109980898477 334.2105082140376,-404.95604040174334 371.31514827056833,-371.31514827056833 405.9160653656434,-333.15163674915794 436.6261939827989,-291.750482086535 463.12404474069064,-247.54571454092516 485.158688472898,-200.950321495406 502.50948636771085,-152.43559049413153 515.0349266291277,-102.4588338422911 522.6007488119416,-51.47394617397326"/>
</g>
<g id="Waveguide$Coplanar$Straight$3" >
<polygon class="l11d1" points="0.0,45.00000000000001 0.0,105.00000000000001 165.00000000000003,105.00000000000001 165.00000000000003,45.00000000000001"/>
<polygon class="l11d1" points="0.0,-105.00000000000001 0.0,-45.00000000000001 165.00000000000003,-45.00000000000001 165.00000000000003,-105.00000000000001"/>
<polygon class="l14d0" points="0.0,-155.00000000000003 0.0,155.00000000000003 165.00000000000003,155.00000000000003 165.00000000000003,-155.00000000000003"/>
<polygon class="l85d0" points="0.0,-105.00000000000001 0.0,105.00000000000001 165.00000000000003,105.00000000000001 165.00000000000003,-105.00000000000001"/>
</g>
</defs><rect x="-658.8745000000001" y="-2147.4045000000006" width="4485.2390000000005" height="2636.279000000001" fill="#222" stroke="none"/>
<g id="logo" transform="scale(1 -1)">
<use transform="translate(0.0 0.0)" xlink:href="#Waveguide$Coplanar$Bridged"/>
<use transform="translate(0.0 0.0)" xlink:href="#Waveguide$Coplanar$Bridged$1"/>
<use transform="translate(0.0 0.0)" xlink:href="#Waveguide$Coplanar$Bridged$2"/>
<use transform="translate(0.0 0.0)" xlink:href="#Waveguide$Coplanar$Bridged$3"/>
</g>
</svg>