<svg xmlns="http://www.w3.org/2000/svg" id="Layer_1" data-name="Layer 1" viewBox="0 0 4077.49 2228.53">
	<defs>
		<style>
			.cpw-centre {
				fill:none;
			}
			.airbridge-pad {
				fill:#7b7c7f;
			}
			.airbridge {
				fill:#666;
			}
			.airbridge-pad, .airbridge {
				fill-opacity:0.5;
			}
			@media (prefers-color-scheme: dark) {
            	.cpw-gap {
					fill:white;
				}
				.airbridge-pad {
					fill:#fafcf5;
				}
				.airbridge {
					fill:#d1d1d1;
				}
				.airbridge-pad, .airbridge {
					fill-opacity:0.5;
				}
			}
		</style>
	</defs>
	<g id="logo">
<!--		<rect id="background" width="100%" height="100%" />-->
		<g id="Waveguide_Coplanar_Bridged" data-name="Waveguide$Coplanar$Bridged">
			<g id="Waveguide_Coplanar" data-name="Waveguide$Coplanar">
				<polygon class="cpw-centre" points="0 1993.53 0 1943.53 310 1943.53 310 1993.53 0 1993.53"/>
				<polygon class="cpw-centre" points="0 143.53 0 93.53 310 93.53 310 143.53 0 143.53"/>
				<g id="Waveguide_Coplanar_Straight" data-name="Waveguide$Coplanar$Straight">
					<polygon class="cpw-gap" points="110 1943.53 50 1943.53 50 143.53 110 143.53 110 1943.53"/>
					<polygon class="cpw-gap" points="260 1943.53 200 1943.53 200 143.53 260 143.53 260 1943.53"/>
					<polygon class="cpw-centre" points="310 1943.53 0 1943.53 0 143.53 310 143.53 310 1943.53"/>
					<polygon class="cpw-centre" points="260 1943.53 50 1943.53 50 143.53 260 143.53 260 1943.53"/>
				</g>
			</g>
		</g>
		<g id="Waveguide_Coplanar_Bridged_1" data-name="Waveguide$Coplanar$Bridged$1">
			<g id="Waveguide_Coplanar_1" data-name="Waveguide$Coplanar$1">
				<polygon class="cpw-centre" points="1024.19 2078.73 993.25 2039.46 1236.75 1847.6 1267.69 1886.88 1024.19 2078.73"/>
				<polygon class="cpw-centre" points="1226.65 251.04 1003.35 36.02 1038.03 0 1261.33 215.03 1226.65 251.04"/>
				<g id="Waveguide_Coplanar_Straight_1" data-name="Waveguide$Coplanar$Straight$1">
					<polygon class="cpw-gap" points="1079.65 1971.38 1032.52 2008.51 479.08 1306.07 526.21 1268.94 1079.65 1971.38"/>
					<polygon class="cpw-gap" points="1197.48 1878.55 1150.35 1915.68 596.91 1213.24 644.04 1176.11 1197.48 1878.55"/>
					<polygon class="cpw-centre" points="1236.75 1847.61 993.25 2039.45 439.81 1337.01 683.31 1145.16 1236.75 1847.61"/>
					<polygon class="cpw-centre" points="1197.48 1878.55 1032.52 2008.51 479.08 1306.07 644.04 1176.11 1197.48 1878.55"/>
				</g>
				<g id="Waveguide_Coplanar_Curved" data-name="Waveguide$Coplanar$Curved">
					<polygon class="cpw-gap" points="621.35 721.04 664.57 762.66 644.24 785.96 626.3 811.13 610.91 837.94 598.23 866.13 588.36 895.42 581.42 925.54 577.46 956.21 576.53 987.1 578.63 1017.94 583.74 1048.43 591.81 1078.27 602.78 1107.17 616.51 1134.86 632.91 1161.07 644.04 1176.11 596.91 1213.24 575.58 1183.24 557.3 1151.31 542.23 1117.73 530.52 1082.84 522.29 1046.98 517.62 1010.48 516.54 973.69 519.08 936.98 525.2 900.69 534.86 865.18 547.95 830.78 564.34 797.84 583.88 766.66 606.39 737.54 621.35 721.04"/>
					<polygon class="cpw-gap" points="513.3 617 556.52 658.62 537.96 679.07 510.06 715.17 485.82 753.84 465.5 794.7 449.27 837.35 437.3 881.38 429.71 926.38 426.56 971.9 427.9 1017.51 433.69 1062.77 443.89 1107.25 458.41 1150.52 477.09 1192.15 499.77 1231.75 526.22 1268.94 479.09 1306.07 460.53 1281.02 433.21 1237.34 410.31 1191.18 392.04 1143.01 378.58 1093.28 370.06 1042.46 366.56 991.07 368.12 939.57 374.72 888.47 386.29 838.27 402.73 789.44 423.88 742.45 449.52 697.77 479.43 655.82 513.3 617"/>
					<polygon class="cpw-centre" points="477.29 582.31 700.59 797.34 690.01 809 674.1 829.58 660.29 851.61 648.71 874.89 639.46 899.2 632.64 924.29 628.32 949.94 626.52 975.89 627.28 1001.87 630.58 1027.67 636.4 1053.02 644.67 1077.67 655.32 1101.4 668.25 1123.97 683.32 1145.16 439.81 1337.01 419.48 1309.58 389.56 1261.73 364.49 1211.19 344.48 1158.42 329.74 1103.95 320.4 1048.3 316.57 992 318.27 935.61 325.5 879.65 338.18 824.66 356.19 771.18 379.34 719.72 407.43 670.78 440.19 624.83 477.29 582.31"/>
					<polygon class="cpw-centre" points="476 1301.95 647.13 1180.22 626.23 1150.84 610.88 1124.04 598.23 1095.84 588.39 1066.53 581.48 1036.42 577.56 1005.78 576.66 974.89 578.8 944.06 583.93 913.59 592.03 883.77 603.02 854.89 616.78 827.24 633.2 801.05 652.73 775.78 666.7 760.38 511.17 619.28 491.62 640.82 460.74 680.78 433.37 724.43 410.41 770.58 392.09 818.75 378.57 868.5 370.01 919.29 366.45 970.68 367.95 1022.21 374.49 1073.33 386.02 1123.57 402.42 1172.41 423.5 1219.42 449.12 1264.15 476 1301.95"/>
				</g>
				<g id="Waveguide_Coplanar_Straight_2" data-name="Waveguide$Coplanar$Straight$2">
					<polygon class="cpw-gap" points="556.52 658.62 513.3 617 1039.36 70.7 1082.58 112.32 556.52 658.62"/>
					<polygon class="cpw-gap" points="664.56 762.66 621.34 721.04 1147.41 174.75 1190.63 216.36 664.56 762.66"/>
					<polygon class="cpw-centre" points="700.58 797.35 477.28 582.32 1003.35 36.02 1226.64 251.05 700.58 797.35"/>
					<polygon class="cpw-centre" points="664.56 762.66 513.3 617 1039.36 70.7 1190.63 216.36 664.56 762.66"/>
				</g>
			</g>
		</g>
		<g id="Waveguide_Coplanar_Bridged_2" data-name="Waveguide$Coplanar$Bridged$2">
			<g id="Airbridge">
				<polygon class="cpw-centre" points="2529 1800.53 2697 2024.53 2425 2228.53 2257 2004.53 2529 1800.53"/>
				<polygon class="cpw-centre" points="2085 1208.53 2253 1432.53 1981 1636.53 1813 1412.53 2085 1208.53"/>
				<polygon class="airbridge-pad" points="2519 1870.53 2627 2014.53 2435 2158.53 2327 2014.53 2519 1870.53"/>
				<polygon class="airbridge-pad" points="2075 1278.53 2183 1422.53 1991 1566.53 1883 1422.53 2075 1278.53"/>
				<polygon class="airbridge" points="2071 1306.53 2599 2010.53 2439 2130.53 1911 1426.53 2071 1306.53"/>
			</g>
			<g id="Waveguide_Coplanar_2" data-name="Waveguide$Coplanar$2">
				<polygon class="cpw-centre" points="1602 1872.53 1562 1842.53 1748 1594.53 1788 1624.53 1602 1872.53"/>
				<polygon class="cpw-centre" points="1562 1842.53 1522 1812.53 1708 1564.53 1748 1594.53 1562 1842.53"/>
				<g id="Waveguide_Coplanar_Straight_3" data-name="Waveguide$Coplanar$Straight$3">
					<polygon class="cpw-gap" points="1628 1754.53 1592 1802.53 1460 1703.53 1496 1655.53 1628 1754.53"/>
					<polygon class="cpw-gap" points="1718 1634.53 1682 1682.53 1550 1583.53 1586 1535.53 1718 1634.53"/>
					<polygon class="cpw-centre" points="1748 1594.53 1562 1842.53 1430 1743.53 1616 1495.53 1748 1594.53"/>
					<polygon class="cpw-centre" points="1718 1634.53 1592 1802.53 1460 1703.53 1586 1535.53 1718 1634.53"/>
				</g>
				<g id="Waveguide_Coplanar_Curved_1" data-name="Waveguide$Coplanar$Curved$1">
					<polygon class="cpw-gap" points="1400 1283.53 1460 1283.53 1461.52 1314.41 1466.05 1344.98 1473.56 1374.96 1483.98 1404.08 1497.19 1432.02 1513.09 1458.53 1531.5 1483.37 1552.26 1506.26 1575.16 1527.03 1586 1535.53 1550 1583.53 1521.68 1560.03 1495.8 1533.87 1472.6 1505.29 1452.32 1474.58 1435.15 1442.04 1421.25 1407.97 1410.75 1372.69 1403.76 1336.56 1400.36 1299.92 1400 1283.53"/>
					<polygon class="cpw-gap" points="1250 1283.53 1310 1283.53 1310.45 1303.85 1314.68 1349.29 1323.34 1394.1 1336.35 1437.83 1353.59 1480.08 1374.88 1520.44 1400.03 1558.53 1428.78 1593.95 1460.88 1626.39 1496 1655.53 1460 1703.53 1441.94 1689.36 1403.77 1654.76 1369.17 1616.58 1338.48 1575.2 1311.99 1531.01 1289.97 1484.44 1272.6 1435.93 1260.08 1385.95 1252.53 1334.99 1250 1283.53"/>
					<polygon class="cpw-centre" points="1200 1283.53 1510 1283.53 1510.25 1295.11 1512.67 1321.01 1517.6 1346.54 1525.01 1371.46 1534.84 1395.55 1546.97 1418.55 1561.3 1440.24 1577.69 1460.44 1595.99 1478.92 1616 1495.53 1430 1743.53 1410.23 1728.01 1368.41 1690.11 1330.52 1648.31 1296.91 1602.99 1267.89 1554.59 1243.77 1503.57 1224.76 1450.45 1211.05 1395.7 1202.77 1339.89 1200 1283.53"/>
					<polygon class="cpw-centre" points="1455.96 1700.34 1590.04 1538.72 1562.29 1515.7 1540.57 1493.74 1521.09 1469.74 1504.05 1443.94 1489.63 1416.63 1477.97 1388.02 1469.16 1358.4 1463.3 1328.06 1460.3 1295.86 1459.97 1281.23 1250.03 1285.83 1250.51 1307.92 1255.16 1357.79 1264.93 1408.37 1279.62 1457.78 1299.09 1505.5 1323.14 1551.09 1351.55 1594.08 1384.01 1634.08 1420.26 1670.73 1455.96 1700.34"/>
				</g>
				<g id="Waveguide_Coplanar_Straight_4" data-name="Waveguide$Coplanar$Straight$4">
					<polygon class="cpw-gap" points="1310 1283.53 1250 1283.53 1250 803.53 1310 803.53 1310 1283.53"/>
					<polygon class="cpw-gap" points="1460 1283.53 1400 1283.53 1400 803.53 1460 803.53 1460 1283.53"/>
					<polygon class="cpw-centre" points="1510 1283.53 1200 1283.53 1200 803.53 1510 803.53 1510 1283.53"/>
					<polygon class="cpw-centre" points="1460 1283.53 1250 1283.53 1250 803.53 1460 803.53 1460 1283.53"/>
				</g>
				<g id="Waveguide_Coplanar_Curved_2" data-name="Waveguide$Coplanar$Curved$2">
					<polygon class="cpw-gap" points="1550 503.53 1586 551.53 1562.21 571.27 1540.47 593.24 1520.99 617.24 1503.95 643.04 1489.52 670.38 1477.85 699 1469.03 728.63 1463.17 758.98 1460.3 789.76 1460 803.53 1400 803.53 1401.81 766.77 1407.21 730.37 1416.15 694.67 1428.55 660.02 1444.28 626.76 1463.2 595.19 1485.12 565.63 1509.83 538.36 1537.1 513.65 1550 503.53"/>
					<polygon class="cpw-gap" points="1460 383.53 1496 431.53 1480.01 444.08 1446.2 474.73 1415.55 508.54 1388.37 545.19 1364.91 584.33 1345.4 625.58 1330.02 668.55 1318.93 712.81 1312.24 757.95 1310 803.53 1250 803.53 1250.5 780.58 1255.28 729.28 1265.06 678.7 1279.75 629.32 1299.21 581.61 1323.25 536.05 1351.64 493.05 1384.11 453.05 1420.35 416.43 1460 383.53"/>
					<polygon class="cpw-centre" points="1430 343.53 1616 591.53 1606.89 598.68 1587.62 616.15 1570.15 635.42 1554.66 656.3 1541.29 678.61 1530.17 702.12 1521.41 726.6 1515.09 751.83 1511.28 777.56 1510 803.53 1200 803.53 1200.55 778.4 1205.78 722.21 1216.49 666.81 1232.58 612.73 1253.89 560.48 1280.23 510.57 1311.32 463.49 1346.89 419.67 1386.57 379.56 1430 343.53"/>
					<polygon class="cpw-centre" points="1250.13 798.38 1459.87 808.68 1461.64 772.66 1466.17 742.11 1473.69 712.13 1484.1 683.02 1497.3 655.1 1513.19 628.6 1531.6 603.78 1552.36 580.88 1576.31 559.17 1587.82 550.13 1458.18 384.93 1440.79 398.57 1403.68 432.21 1369.08 470.38 1338.37 511.78 1311.88 555.98 1289.84 602.58 1272.49 651.09 1259.96 701.07 1252.4 752.06 1250.13 798.38"/>
				</g>
				<g id="Waveguide_Coplanar_Straight_5" data-name="Waveguide$Coplanar$Straight$5">
					<polygon class="cpw-gap" points="1496 431.53 1460 383.53 1640 248.53 1676 296.53 1496 431.53"/>
					<polygon class="cpw-gap" points="1586 551.53 1550 503.53 1730 368.53 1766 416.53 1586 551.53"/>
					<polygon class="cpw-centre" points="1616 591.53 1430 343.53 1610 208.53 1796 456.53 1616 591.53"/>
					<polygon class="cpw-centre" points="1586 551.53 1460 383.53 1640 248.53 1766 416.53 1586 551.53"/>
				</g>
				<g id="Waveguide_Coplanar_Curved_3" data-name="Waveguide$Coplanar$Curved$3">
					<polygon class="cpw-gap" points="2180 368.53 2144 416.53 2118.39 399.21 2091.2 384.5 2062.72 372.52 2033.18 363.38 2002.89 357.19 1972.15 353.99 1941.23 353.83 1910.45 356.69 1880.1 362.57 1850.47 371.38 1821.85 383.06 1794.51 397.48 1768.72 414.52 1766 416.53 1730 368.53 1760.49 347.92 1792.85 330.4 1826.78 316.13 1861.94 305.26 1897.98 297.89 1934.59 294.09 1971.39 293.89 2008.03 297.29 2044.16 304.28 2079.44 314.78 2113.51 328.68 2146.05 345.85 2176.76 366.13 2180 368.53"/>
					<polygon class="cpw-gap" points="2270 248.53 2234 296.53 2230 293.56 2191.91 268.41 2151.55 247.12 2109.3 229.88 2065.57 216.87 2020.76 208.21 1975.32 203.98 1929.69 204.22 1884.31 208.94 1839.6 218.08 1796 231.56 1753.93 249.24 1713.81 270.97 1676 296.53 1640 248.53 1644.52 245.18 1687.51 216.78 1733.08 192.74 1780.79 173.28 1830.17 158.59 1880.75 148.8 1932.05 144.03 1983.57 144.31 2034.81 149.63 2085.3 159.96 2134.52 175.18 2182.01 195.15 2227.31 219.68 2270 248.53"/>
					<polygon class="cpw-centre" points="2300 208.53 2114 456.53 2111.71 454.83 2090.02 440.5 2067.02 428.37 2042.93 418.54 2018.01 411.13 1992.48 406.2 1966.58 403.78 1940.58 403.92 1914.71 406.61 1889.23 411.82 1864.39 419.5 1840.41 429.58 1817.54 441.97 1796 456.53 1610 208.53 1614.95 204.85 1662.05 173.76 1711.94 147.42 1764.2 126.11 1818.28 110.02 1873.68 99.31 1929.86 94.08 1986.29 94.39 2042.42 100.21 2097.7 111.52 2151.62 128.19 2203.62 150.06 2253.25 176.93 2300 208.53"/>
					<polygon class="cpw-centre" points="1644.19 245.54 1761.81 419.52 1791.68 399.32 1818.84 384.62 1847.34 372.64 1876.87 363.5 1907.13 357.31 1937.86 354.12 1968.76 353.96 1999.53 356.83 2029.87 362.69 2059.49 371.5 2088.1 383.17 2115.41 397.58 2143.16 415.91 2144.54 416.93 2269.46 248.13 2263.59 243.78 2222.56 216.68 2176.97 192.62 2129.25 173.15 2079.84 158.46 2029.26 148.69 1977.97 143.91 1926.42 144.18 1875.16 149.5 1824.66 159.83 1775.44 175.06 1727.95 195.03 1682.62 219.56 1644.19 245.54"/>
				</g>
				<g id="Waveguide_Coplanar_Straight_6" data-name="Waveguide$Coplanar$Straight$6">
					<polygon class="cpw-gap" points="2234 296.53 2270 248.53 2450 383.53 2414 431.53 2234 296.53"/>
					<polygon class="cpw-gap" points="2144 416.53 2180 368.53 2360 503.53 2324 551.53 2144 416.53"/>
					<polygon class="cpw-centre" points="2114 456.53 2300 208.53 2480 343.53 2294 591.53 2114 456.53"/>
					<polygon class="cpw-centre" points="2144 416.53 2270 248.53 2450 383.53 2324 551.53 2144 416.53"/>
				</g>
				<g id="Waveguide_Coplanar_Curved_2-2" data-name="Waveguide$Coplanar$Curved$2">
					<polygon class="cpw-gap" points="2510 803.53 2450 803.53 2448.48 772.65 2443.95 742.08 2436.44 712.1 2426.02 682.98 2412.81 655.04 2396.91 628.53 2378.5 603.69 2357.74 580.8 2334.84 560.03 2324 551.53 2360 503.53 2388.32 527.03 2414.2 553.19 2437.4 581.77 2457.68 612.48 2474.85 645.02 2488.75 679.09 2499.25 714.37 2506.24 750.5 2509.64 787.14 2510 803.53"/>
					<polygon class="cpw-gap" points="2660 803.53 2600 803.53 2599.55 783.21 2595.32 737.77 2586.66 692.96 2573.65 649.23 2556.41 606.98 2535.12 566.62 2509.97 528.53 2481.22 493.11 2449.12 460.67 2414 431.53 2450 383.53 2468.06 397.7 2506.23 432.3 2540.83 470.48 2571.52 511.86 2598.01 556.05 2620.03 602.62 2637.4 651.13 2649.92 701.11 2657.47 752.07 2660 803.53"/>
					<polygon class="cpw-centre" points="2710 803.53 2400 803.53 2399.75 791.95 2397.33 766.05 2392.4 740.52 2384.99 715.6 2375.16 691.51 2363.03 668.51 2348.7 646.82 2332.31 626.62 2314.01 608.14 2294 591.53 2480 343.53 2499.77 359.05 2541.59 396.95 2579.48 438.75 2613.09 484.07 2642.11 532.47 2666.23 583.49 2685.24 636.61 2698.95 691.36 2707.23 747.17 2710 803.53"/>
					<polygon class="cpw-centre" points="2454.04 386.72 2319.96 548.34 2347.71 571.36 2369.43 593.32 2388.91 617.32 2405.95 643.12 2420.36 670.43 2432.03 699.04 2440.84 728.66 2446.7 759 2449.7 791.2 2450.03 805.83 2659.97 801.23 2659.49 779.13 2654.84 729.27 2645.07 678.69 2630.38 629.28 2610.91 581.56 2586.86 535.97 2558.45 492.98 2525.99 452.98 2489.74 416.33 2454.04 386.72"/>
				</g>
				<g id="Waveguide_Coplanar_Straight_4-2" data-name="Waveguide$Coplanar$Straight$4">
					<polygon class="cpw-gap" points="2600 803.53 2660 803.53 2660 1283.53 2600 1283.53 2600 803.53"/>
					<polygon class="cpw-gap" points="2450 803.53 2510 803.53 2510 1283.53 2450 1283.53 2450 803.53"/>
					<polygon class="cpw-centre" points="2400 803.53 2710 803.53 2710 1283.53 2400 1283.53 2400 803.53"/>
					<polygon class="cpw-centre" points="2450 803.53 2660 803.53 2660 1283.53 2450 1283.53 2450 803.53"/>
				</g>
				<g id="Waveguide_Coplanar_Curved_1-2" data-name="Waveguide$Coplanar$Curved$1">
					<polygon class="cpw-gap" points="2360 1583.53 2324 1535.53 2347.79 1515.79 2369.53 1493.82 2389.01 1469.82 2406.05 1444.02 2420.48 1416.68 2432.15 1388.06 2440.97 1358.43 2446.83 1328.08 2449.7 1297.3 2450 1283.53 2510 1283.53 2508.19 1320.29 2502.79 1356.69 2493.85 1392.39 2481.45 1427.04 2465.72 1460.3 2446.8 1491.87 2424.88 1521.43 2400.17 1548.7 2372.9 1573.41 2360 1583.53"/>
					<polygon class="cpw-gap" points="2450 1703.53 2414 1655.53 2429.99 1642.98 2463.8 1612.33 2494.45 1578.52 2521.63 1541.87 2545.09 1502.73 2564.6 1461.48 2579.98 1418.51 2591.07 1374.25 2597.76 1329.11 2600 1283.53 2660 1283.53 2659.5 1306.48 2654.72 1357.78 2644.94 1408.36 2630.25 1457.74 2610.79 1505.45 2586.75 1551.01 2558.36 1594.01 2525.89 1634.01 2489.65 1670.63 2450 1703.53"/>
					<polygon class="cpw-centre" points="2480 1743.53 2294 1495.53 2303.11 1488.38 2322.38 1470.91 2339.85 1451.64 2355.34 1430.76 2368.71 1408.45 2379.83 1384.94 2388.59 1360.46 2394.91 1335.23 2398.72 1309.5 2400 1283.53 2710 1283.53 2709.45 1308.66 2704.22 1364.85 2693.51 1420.25 2677.42 1474.33 2656.11 1526.58 2629.77 1576.49 2598.68 1623.57 2563.11 1667.39 2523.43 1707.5 2480 1743.53"/>
					<polygon class="cpw-centre" points="2659.87 1288.68 2450.13 1278.38 2448.36 1314.4 2443.82 1344.95 2436.31 1374.93 2425.9 1404.04 2412.7 1431.96 2396.81 1458.46 2378.4 1483.28 2357.64 1506.17 2333.69 1527.89 2322.18 1536.93 2451.82 1702.13 2469.21 1688.49 2506.32 1654.85 2540.92 1616.68 2571.63 1575.28 2598.12 1531.08 2620.16 1484.48 2637.51 1435.97 2650.03 1385.99 2657.6 1335 2659.87 1288.68"/>
				</g>
				<g id="Waveguide_Coplanar_Straight_7" data-name="Waveguide$Coplanar$Straight$7">
					<polygon class="cpw-gap" points="2414 1655.53 2450 1703.53 2270 1838.53 2234 1790.53 2414 1655.53"/>
					<polygon class="cpw-gap" points="2324 1535.53 2360 1583.53 2180 1718.53 2144 1670.53 2324 1535.53"/>
					<polygon class="cpw-centre" points="2294 1495.53 2480 1743.53 2300 1878.53 2114 1630.53 2294 1495.53"/>
					<polygon class="cpw-centre" points="2324 1535.53 2450 1703.53 2270 1838.53 2144 1670.53 2324 1535.53"/>
				</g>
				<g id="Waveguide_Coplanar_Curved_4" data-name="Waveguide$Coplanar$Curved$4">
					<polygon class="cpw-gap" points="1730 1718.53 1766 1670.53 1791.61 1687.85 1818.8 1702.56 1847.28 1714.54 1876.82 1723.68 1907.11 1729.87 1937.85 1733.07 1968.77 1733.23 1999.55 1730.37 2029.9 1724.49 2059.53 1715.68 2088.15 1704 2115.49 1689.58 2141.28 1672.54 2144 1670.53 2180 1718.53 2149.51 1739.14 2117.15 1756.66 2083.22 1770.93 2048.06 1781.8 2012.02 1789.17 1975.41 1792.97 1938.61 1793.17 1901.97 1789.77 1865.84 1782.78 1830.56 1772.28 1796.49 1758.38 1763.95 1741.21 1733.24 1720.93 1730 1718.53"/>
					<polygon class="cpw-gap" points="1640 1838.53 1676 1790.53 1680 1793.5 1718.09 1818.65 1758.45 1839.94 1800.7 1857.18 1844.43 1870.19 1889.24 1878.85 1934.68 1883.08 1980.31 1882.84 2025.69 1878.12 2070.4 1868.98 2114 1855.5 2156.07 1837.82 2196.19 1816.09 2234 1790.53 2270 1838.53 2265.48 1841.88 2222.49 1870.28 2176.92 1894.32 2129.21 1913.78 2079.83 1928.47 2029.25 1938.26 1977.95 1943.03 1926.43 1942.75 1875.19 1937.43 1824.7 1927.1 1775.48 1911.88 1727.99 1891.91 1682.69 1867.38 1640 1838.53"/>
					<polygon class="cpw-centre" points="1610 1878.53 1796 1630.53 1798.29 1632.23 1819.98 1646.56 1842.98 1658.69 1867.07 1668.52 1891.99 1675.93 1917.52 1680.86 1943.42 1683.28 1969.42 1683.14 1995.29 1680.45 2020.77 1675.24 2045.61 1667.56 2069.59 1657.48 2092.46 1645.09 2114 1630.53 2300 1878.53 2295.05 1882.21 2247.95 1913.3 2198.06 1939.64 2145.8 1960.95 2091.72 1977.04 2036.32 1987.75 1980.14 1992.98 1923.71 1992.67 1867.58 1986.85 1812.3 1975.54 1758.38 1958.87 1706.38 1937 1656.75 1910.13 1610 1878.53"/>
					<polygon class="cpw-centre" points="2265.81 1841.52 2148.19 1667.54 2118.32 1687.74 2091.16 1702.44 2062.66 1714.42 2033.13 1723.56 2002.87 1729.75 1972.14 1732.94 1941.24 1733.1 1910.47 1730.23 1880.13 1724.37 1850.51 1715.56 1821.9 1703.89 1794.59 1689.48 1766.84 1671.15 1765.46 1670.13 1640.54 1838.93 1646.41 1843.28 1687.44 1870.39 1733.03 1894.44 1780.75 1913.91 1830.16 1928.6 1880.74 1938.37 1932.03 1943.15 1983.58 1942.88 2034.84 1937.56 2085.34 1927.23 2134.56 1912 2182.05 1892.03 2227.38 1867.49 2265.81 1841.52"/>
				</g>
				<g id="Waveguide_Coplanar_Straight_8" data-name="Waveguide$Coplanar$Straight$8">
					<polygon class="cpw-gap" points="1676 1790.53 1640 1838.53 1592 1802.53 1628 1754.53 1676 1790.53"/>
					<polygon class="cpw-gap" points="1766 1670.53 1730 1718.53 1682 1682.53 1718 1634.53 1766 1670.53"/>
					<polygon class="cpw-centre" points="1796 1630.53 1610 1878.53 1562 1842.53 1748 1594.53 1796 1630.53"/>
					<polygon class="cpw-centre" points="1766 1670.53 1640 1838.53 1592 1802.53 1718 1634.53 1766 1670.53"/>
				</g>
			</g>
		</g>
		<g id="Waveguide_Coplanar_Bridged_3" data-name="Waveguide$Coplanar$Bridged$3">
			<g id="Waveguide_Coplanar_3" data-name="Waveguide$Coplanar$3">
				<polygon class="cpw-centre" points="4041.01 1606.61 3828.99 1380.45 3865.47 1346.25 4077.49 1572.41 4041.01 1606.61"/>
				<polygon class="cpw-centre" points="3865.47 740.81 3828.99 706.61 4041.01 480.45 4077.49 514.65 3865.47 740.81"/>
				<g id="Waveguide_Coplanar_Straight_9" data-name="Waveguide$Coplanar$Straight$9">
					<polygon class="cpw-gap" points="3965.78 1526.36 4006.81 1570.13 3784.02 1779 3742.98 1735.23 3965.78 1526.36"/>
					<polygon class="cpw-gap" points="3863.19 1416.93 3904.22 1460.7 3681.43 1669.57 3640.39 1625.8 3863.19 1416.93"/>
					<polygon class="cpw-centre" points="3828.99 1380.45 4041.01 1606.61 3818.22 1815.48 3606.2 1589.32 3828.99 1380.45"/>
					<polygon class="cpw-centre" points="3863.19 1416.93 4006.81 1570.13 3784.02 1779 3640.39 1625.8 3863.19 1416.93"/>
				</g>
				<g id="Waveguide_Coplanar_Curved_5" data-name="Waveguide$Coplanar$Curved$5">
					<polygon class="cpw-gap" points="3199.95 1695.99 3235.95 1647.99 3261.56 1665.3 3288.74 1680.02 3317.25 1692 3346.78 1701.13 3377.06 1707.33 3407.81 1710.53 3438.72 1710.69 3469.49 1707.82 3499.85 1701.95 3529.47 1693.14 3558.1 1681.46 3585.44 1667.04 3611.23 1650 3635.24 1630.52 3640.39 1625.79 3681.43 1669.57 3653.37 1693.39 3623.12 1714.34 3590.97 1732.24 3557.21 1746.89 3522.18 1758.16 3486.21 1765.95 3449.65 1770.18 3412.86 1770.8 3376.18 1767.81 3339.97 1761.23 3304.58 1751.14 3270.35 1737.64 3237.61 1720.84 3206.67 1700.91 3199.95 1695.99"/>
					<polygon class="cpw-gap" points="3109.95 1815.99 3145.95 1767.99 3154.28 1774.1 3192.64 1798.8 3233.25 1819.63 3275.69 1836.38 3319.58 1848.89 3364.47 1857.04 3409.96 1860.74 3455.59 1859.98 3500.91 1854.74 3545.51 1845.09 3588.95 1831.11 3630.82 1812.94 3670.69 1790.76 3708.2 1764.77 3742.98 1735.22 3784.02 1779 3775.42 1786.88 3735.42 1819.35 3692.43 1847.74 3646.87 1871.79 3599.16 1891.25 3549.78 1905.93 3499.2 1915.71 3447.9 1920.49 3396.38 1920.21 3345.13 1914.89 3294.66 1904.57 3245.43 1889.34 3197.94 1869.38 3152.64 1844.84 3109.95 1815.99"/>
					<polygon class="cpw-centre" points="3079.95 1855.99 3265.95 1607.99 3270.7 1611.47 3292.56 1625.55 3315.7 1637.42 3339.89 1646.97 3364.9 1654.1 3390.48 1658.74 3416.41 1660.85 3442.41 1660.41 3468.24 1657.43 3493.66 1651.93 3518.42 1643.96 3542.27 1633.61 3565 1620.96 3586.37 1606.15 3606.19 1589.32 3818.22 1815.47 3808.8 1824.11 3765 1859.66 3717.91 1890.76 3668 1917.1 3615.76 1938.4 3561.66 1954.5 3506.26 1965.21 3450.08 1970.44 3393.66 1970.14 3337.53 1964.31 3282.25 1953 3228.34 1936.34 3176.32 1914.46 3126.7 1887.59 3079.95 1855.99"/>
					<polygon class="cpw-centre" points="3780.18 1782.42 3644.23 1622.37 3616.75 1645.71 3591.36 1663.3 3564.35 1678.32 3535.99 1690.63 3506.59 1700.1 3476.4 1706.63 3445.7 1710.18 3414.8 1710.69 3383.99 1708.19 3353.59 1702.67 3323.88 1694.21 3295.15 1682.87 3267.65 1668.75 3239.97 1650.93 3235 1647.29 3110.9 1816.69 3120.97 1824.08 3162.61 1850.88 3208.45 1874.41 3256.39 1893.33 3305.95 1907.46 3356.68 1916.66 3408.02 1920.84 3459.53 1919.98 3510.73 1914.07 3561.11 1903.16 3610.17 1887.37 3657.43 1866.85 3702.46 1841.8 3744.83 1812.45 3780.18 1782.42"/>
				</g>
				<g id="Waveguide_Coplanar_Straight_10" data-name="Waveguide$Coplanar$Straight$10">
					<polygon class="cpw-gap" points="3145.95 1767.99 3109.95 1815.99 2960 1703.53 2996 1655.53 3145.95 1767.99"/>
					<polygon class="cpw-gap" points="3235.95 1647.99 3199.95 1695.99 3050 1583.53 3086 1535.53 3235.95 1647.99"/>
					<polygon class="cpw-centre" points="3265.95 1607.99 3079.95 1855.99 2930 1743.53 3116 1495.53 3265.95 1607.99"/>
					<polygon class="cpw-centre" points="3235.95 1647.99 3109.95 1815.99 2960 1703.53 3086 1535.53 3235.95 1647.99"/>
				</g>
				<g id="Waveguide_Coplanar_Curved_1-3" data-name="Waveguide$Coplanar$Curved$1">
					<polygon class="cpw-gap" points="2900 1283.53 2960 1283.53 2961.52 1314.41 2966.05 1344.98 2973.56 1374.96 2983.98 1404.08 2997.19 1432.02 3013.09 1458.53 3031.5 1483.37 3052.26 1506.26 3075.16 1527.03 3086 1535.53 3050 1583.53 3021.68 1560.03 2995.8 1533.87 2972.6 1505.29 2952.32 1474.58 2935.15 1442.04 2921.25 1407.97 2910.75 1372.69 2903.76 1336.56 2900.36 1299.92 2900 1283.53"/>
					<polygon class="cpw-gap" points="2750 1283.53 2810 1283.53 2810.45 1303.85 2814.68 1349.29 2823.34 1394.1 2836.35 1437.83 2853.59 1480.08 2874.88 1520.44 2900.03 1558.53 2928.78 1593.95 2960.88 1626.39 2996 1655.53 2960 1703.53 2941.94 1689.36 2903.77 1654.76 2869.17 1616.58 2838.48 1575.2 2811.99 1531.01 2789.97 1484.44 2772.6 1435.93 2760.08 1385.95 2752.53 1334.99 2750 1283.53"/>
					<polygon class="cpw-centre" points="2700 1283.53 3010 1283.53 3010.25 1295.11 3012.67 1321.01 3017.6 1346.54 3025.01 1371.46 3034.84 1395.55 3046.97 1418.55 3061.3 1440.24 3077.69 1460.44 3095.99 1478.92 3116 1495.53 2930 1743.53 2910.23 1728.01 2868.41 1690.11 2830.52 1648.31 2796.91 1602.99 2767.89 1554.59 2743.77 1503.57 2724.76 1450.45 2711.05 1395.7 2702.77 1339.89 2700 1283.53"/>
					<polygon class="cpw-centre" points="2955.96 1700.34 3090.04 1538.72 3062.29 1515.7 3040.57 1493.74 3021.09 1469.74 3004.05 1443.94 2989.64 1416.63 2977.97 1388.02 2969.16 1358.4 2963.3 1328.06 2960.3 1295.86 2959.97 1281.23 2750.03 1285.83 2750.51 1307.92 2755.16 1357.79 2764.93 1408.37 2779.62 1457.78 2799.09 1505.5 2823.14 1551.09 2851.55 1594.08 2884.01 1634.08 2920.26 1670.73 2955.96 1700.34"/>
				</g>
				<g id="Waveguide_Coplanar_Straight_4-3" data-name="Waveguide$Coplanar$Straight$4">
					<polygon class="cpw-gap" points="2810 1283.53 2750 1283.53 2750 803.53 2810 803.53 2810 1283.53"/>
					<polygon class="cpw-gap" points="2960 1283.53 2900 1283.53 2900 803.53 2960 803.53 2960 1283.53"/>
					<polygon class="cpw-centre" points="3010 1283.53 2700 1283.53 2700 803.53 3010 803.53 3010 1283.53"/>
					<polygon class="cpw-centre" points="2960 1283.53 2750 1283.53 2750 803.53 2960 803.53 2960 1283.53"/>
				</g>
				<g id="Waveguide_Coplanar_Curved_2-3" data-name="Waveguide$Coplanar$Curved$2">
					<polygon class="cpw-gap" points="3050 503.53 3086 551.53 3062.21 571.27 3040.47 593.24 3020.99 617.24 3003.95 643.04 2989.52 670.38 2977.85 699 2969.03 728.63 2963.17 758.98 2960.3 789.76 2960 803.53 2900 803.53 2901.81 766.77 2907.21 730.37 2916.15 694.67 2928.55 660.02 2944.28 626.76 2963.2 595.19 2985.12 565.63 3009.83 538.36 3037.1 513.65 3050 503.53"/>
					<polygon class="cpw-gap" points="2960 383.53 2996 431.53 2980.01 444.08 2946.2 474.73 2915.55 508.54 2888.37 545.19 2864.91 584.33 2845.4 625.58 2830.02 668.55 2818.93 712.81 2812.24 757.95 2810 803.53 2750 803.53 2750.5 780.58 2755.28 729.28 2765.06 678.7 2779.75 629.32 2799.21 581.61 2823.25 536.05 2851.64 493.05 2884.11 453.05 2920.35 416.43 2960 383.53"/>
					<polygon class="cpw-centre" points="2930 343.53 3116 591.53 3106.89 598.68 3087.62 616.15 3070.15 635.42 3054.66 656.3 3041.29 678.61 3030.17 702.12 3021.41 726.6 3015.09 751.83 3011.28 777.56 3010 803.53 2700 803.53 2700.55 778.4 2705.78 722.21 2716.49 666.81 2732.58 612.73 2753.89 560.48 2780.23 510.57 2811.32 463.49 2846.89 419.67 2886.57 379.56 2930 343.53"/>
					<polygon class="cpw-centre" points="2750.13 798.38 2959.87 808.68 2961.64 772.66 2966.18 742.11 2973.69 712.13 2984.1 683.02 2997.3 655.1 3013.19 628.6 3031.6 603.78 3052.36 580.88 3076.31 559.17 3087.82 550.13 2958.18 384.93 2940.79 398.57 2903.68 432.21 2869.08 470.38 2838.37 511.78 2811.88 555.98 2789.84 602.58 2772.49 651.09 2759.97 701.07 2752.4 752.06 2750.13 798.38"/>
				</g>
				<g id="Waveguide_Coplanar_Straight_11" data-name="Waveguide$Coplanar$Straight$11">
					<polygon class="cpw-gap" points="2996 431.53 2960 383.53 3109.95 271.07 3145.95 319.07 2996 431.53"/>
					<polygon class="cpw-gap" points="3086 551.53 3050 503.53 3199.95 391.07 3235.95 439.07 3086 551.53"/>
					<polygon class="cpw-centre" points="3116 591.53 2930 343.53 3079.95 231.07 3265.95 479.07 3116 591.53"/>
					<polygon class="cpw-centre" points="3086 551.53 2960 383.53 3109.95 271.07 3235.95 439.07 3086 551.53"/>
				</g>
				<g id="Waveguide_Coplanar_Curved_6" data-name="Waveguide$Coplanar$Curved$6">
					<polygon class="cpw-gap" points="3681.43 417.5 3640.39 461.26 3616.83 441.26 3591.42 423.65 3564.4 408.62 3536.04 396.31 3506.63 386.84 3476.41 380.3 3445.7 376.76 3414.8 376.23 3383.98 378.75 3353.57 384.27 3323.84 392.74 3295.08 404.08 3267.58 418.2 3241.59 434.94 3235.95 439.07 3199.95 391.07 3230.44 370.46 3262.8 352.94 3296.73 338.67 3331.89 327.8 3367.93 320.43 3404.54 316.63 3441.34 316.43 3477.98 319.83 3514.11 326.82 3549.39 337.32 3583.46 351.22 3616 368.39 3646.71 388.67 3675.29 411.87 3681.43 417.5"/>
					<polygon class="cpw-gap" points="3784.02 308.07 3742.98 351.83 3735.37 344.85 3699.95 316.1 3661.86 290.95 3621.5 269.66 3579.25 252.42 3535.52 239.41 3490.71 230.75 3445.27 226.52 3399.64 226.76 3354.26 231.48 3309.55 240.62 3265.95 254.1 3223.88 271.78 3183.76 293.51 3145.95 319.07 3109.95 271.07 3119.36 264.18 3162.67 236.28 3208.51 212.76 3256.43 193.85 3305.98 179.72 3356.67 170.53 3408.02 166.34 3459.54 167.2 3510.71 173.12 3561.08 184.02 3610.12 199.81 3657.38 220.32 3702.4 245.37 3744.74 274.71 3784.02 308.07"/>
					<polygon class="cpw-centre" points="3818.21 271.59 3606.19 497.74 3601.86 493.76 3581.66 477.37 3559.97 463.04 3536.97 450.91 3512.88 441.08 3487.96 433.67 3462.43 428.74 3436.53 426.32 3410.53 426.46 3384.66 429.15 3359.18 434.36 3334.34 442.04 3310.36 452.12 3287.49 464.51 3265.95 479.07 3079.95 231.07 3090.25 223.52 3137.69 192.97 3187.89 167.21 3240.38 146.5 3294.65 131.03 3350.17 120.95 3406.41 116.37 3462.84 117.32 3518.88 123.8 3574.03 135.73 3627.75 153.02 3679.51 175.49 3728.83 202.92 3775.2 235.06 3818.21 271.59"/>
					<polygon class="cpw-centre" points="3114.14 268.08 3231.76 442.06 3261.63 421.86 3288.79 407.16 3317.29 395.18 3346.82 386.04 3377.08 379.85 3407.8 376.66 3438.71 376.5 3469.48 379.37 3499.82 385.23 3529.44 394.04 3558.05 405.7 3585.36 420.12 3611.16 437.16 3636.71 457.9 3641.26 462.07 3783.15 307.26 3773.95 298.82 3735.5 267.62 3692.51 239.22 3646.92 215.16 3599.2 195.69 3549.79 181 3499.21 171.23 3447.92 166.45 3396.38 166.72 3345.11 172.04 3294.61 182.37 3245.39 197.6 3197.9 217.57 3152.57 242.1 3114.14 268.08"/>
				</g>
				<g id="Waveguide_Coplanar_Straight_12" data-name="Waveguide$Coplanar$Straight$12">
					<polygon class="cpw-gap" points="3742.99 351.83 3784.02 308.06 4006.82 516.93 3965.78 560.7 3742.99 351.83"/>
					<polygon class="cpw-gap" points="3640.4 461.26 3681.43 417.49 3904.23 626.36 3863.19 670.13 3640.4 461.26"/>
					<polygon class="cpw-centre" points="3606.2 497.74 3818.22 271.58 4041.01 480.45 3828.99 706.61 3606.2 497.74"/>
					<polygon class="cpw-centre" points="3640.4 461.26 3784.02 308.06 4006.82 516.93 3863.19 670.13 3640.4 461.26"/>
				</g>
			</g>
		</g>
	</g>
</svg>